<svg width="351" height="351" viewBox="0 0 351 351" fill="none" xmlns="http://www.w3.org/2000/svg">
<path d="M311.835 102.359C312.369 114.201 305.314 125.153 295.254 131.421C290.171 134.508 284.373 136.22 278.428 136.388C272.484 136.557 266.598 135.177 261.348 132.383C249.645 125.981 242.015 112.811 229.245 108.95C219.501 106.009 208.887 109.203 198.884 107.188C180.07 103.377 169.344 80.2176 175.325 61.9726C181.306 43.7276 200.147 31.7445 219.249 29.807C238.35 27.8695 257.423 34.4963 274.11 43.9874C284.851 50.1018 295.058 57.5921 302.38 67.5395C309.701 77.4868 313.92 90.179 311.835 102.359Z" fill="#EBEBEB"/>
<path d="M209.056 207.167C198.891 199.593 184.893 200.533 172.376 202.52C159.859 204.507 146.528 207.118 134.924 202.029C125.138 197.732 118.287 188.55 113.808 178.863C109.329 169.175 106.788 158.687 102.892 148.74C98.996 138.792 93.387 129.035 84.4997 123.103C75.6124 117.171 57.3112 110.846 49.0487 117.627C42.0287 121.369 34.6507 129.329 30.3263 136.027C22.6043 148.01 17.3815 171.204 16.7918 181.144C15.0298 211.063 18.9539 243.594 42.1199 266.016C66.9988 290.108 99.9858 302.021 127.315 299.712C152.636 297.55 180.94 286.009 200.098 269.308C209.196 261.383 216.918 251.351 219.529 239.614C222.141 227.876 218.694 214.349 209.056 207.167Z" fill="#EBEBEB"/>
<path d="M342.66 331.407C342.66 331.512 269.386 331.59 179.017 331.59C88.6487 331.59 15.3599 331.512 15.3599 331.407C15.3599 331.302 88.6206 331.225 179.017 331.225C269.414 331.225 342.66 331.344 342.66 331.407Z" fill="black"/>
<path d="M305.019 272.966C306.02 273.428 306.917 274.088 307.656 274.906C308.396 275.724 308.962 276.683 309.322 277.725C310.029 279.817 310.247 282.043 309.961 284.233C309.533 288.445 307.153 292.762 304.64 296.167C301.039 293.106 300.154 287.694 299.88 284.935C299.445 280.554 301.319 272.369 305.019 273.001" fill="#2C4BFF"/>
<path d="M308.88 303.095C308.626 301.891 308.693 300.64 309.075 299.47C309.457 298.299 310.14 297.25 311.056 296.426C311.989 295.622 313.073 295.012 314.245 294.631C315.416 294.25 316.652 294.107 317.88 294.208C319.01 294.278 320.238 294.594 320.898 295.521C321.182 295.971 321.34 296.49 321.355 297.022C321.37 297.554 321.241 298.081 320.982 298.546C320.455 299.477 319.69 300.25 318.764 300.786C315.703 302.758 312.383 304.099 308.88 303.095Z" fill="#2C4BFF"/>
<path d="M302.906 305.553C302.372 303.009 301.24 300.63 299.603 298.612C297.966 296.594 295.871 294.995 293.492 293.949C292.278 293.429 290.684 293.127 289.772 294.047C288.859 294.966 289.112 296.553 289.645 297.767C290.796 300.274 292.662 302.383 295.01 303.831C297.357 305.279 300.08 306 302.836 305.904" fill="#2C4BFF"/>
<path d="M304.001 316.37C304.018 316.072 304.063 315.776 304.134 315.486C304.233 314.924 304.394 314.082 304.619 313.106C305.154 310.479 306.03 307.932 307.223 305.531C308.448 303.118 310.294 301.075 312.572 299.614C313.266 299.187 314.009 298.845 314.784 298.596C314.993 298.525 315.206 298.466 315.423 298.42C315.498 298.396 315.576 298.382 315.654 298.378C314.616 298.741 313.618 299.211 312.678 299.782C310.47 301.267 308.679 303.292 307.476 305.665C306.292 308.046 305.396 310.561 304.808 313.155L304.24 315.507C304.176 315.799 304.097 316.087 304.001 316.37Z" fill="black"/>
<path d="M304.141 279.326C304.174 279.449 304.191 279.577 304.19 279.705C304.19 279.979 304.232 280.344 304.26 280.793C304.324 281.741 304.394 283.109 304.464 284.801C304.611 288.185 304.752 292.867 304.794 298.041C304.836 303.215 304.794 307.869 304.668 311.281C304.618 312.98 304.569 314.348 304.527 315.296C304.527 315.745 304.485 316.11 304.471 316.384C304.466 316.511 304.452 316.638 304.429 316.763C304.42 316.637 304.42 316.51 304.429 316.384C304.429 316.103 304.429 315.745 304.429 315.289C304.429 314.313 304.464 312.951 304.485 311.281C304.527 307.89 304.569 303.215 304.527 298.041C304.485 292.867 304.38 288.213 304.282 284.808C304.232 283.138 304.197 281.776 304.169 280.8C304.169 280.344 304.169 279.986 304.169 279.705C304.148 279.58 304.138 279.453 304.141 279.326Z" fill="black"/>
<path d="M294.285 297.88C294.555 297.971 294.816 298.086 295.065 298.224C295.371 298.358 295.667 298.515 295.949 298.694C296.334 298.907 296.706 299.142 297.065 299.396L297.69 299.845C297.908 300.007 298.118 300.196 298.336 300.379C298.792 300.744 299.221 301.186 299.691 301.642C300.655 302.678 301.511 303.81 302.246 305.019C302.953 306.242 303.53 307.536 303.966 308.88C304.154 309.468 304.309 310.065 304.429 310.67C304.479 310.951 304.549 311.225 304.584 311.491C304.619 311.758 304.647 312.011 304.682 312.257C304.752 312.748 304.752 313.19 304.773 313.583C304.795 313.918 304.795 314.253 304.773 314.587C304.77 314.872 304.747 315.156 304.703 315.437C304.633 315.437 304.745 314.215 304.5 312.285C304.464 312.039 304.422 311.786 304.387 311.527C304.352 311.267 304.275 311 304.212 310.719C304.106 310.158 303.917 309.575 303.734 308.957C302.873 306.297 301.434 303.859 299.522 301.818C299.066 301.362 298.652 300.912 298.21 300.547C297.992 300.365 297.788 300.175 297.578 300.014L296.974 299.55C295.374 298.42 294.25 297.936 294.285 297.88Z" fill="black"/>
<path d="M311.288 331.407H298.392L295.76 312.509H313.745L311.288 331.407Z" fill="black"/>
<path d="M312.587 321.221C312.587 321.319 309.077 321.404 304.808 321.404C300.54 321.404 297.03 321.319 297.03 321.221C297.03 321.123 300.54 321.039 304.808 321.039C309.077 321.039 312.587 321.123 312.587 321.221Z" fill="#FAFAFA"/>
<path d="M312.587 322.344C312.587 322.443 309.077 322.527 304.808 322.527C300.54 322.527 297.03 322.443 297.03 322.344C297.03 322.246 300.54 322.162 304.808 322.162C309.077 322.162 312.587 322.218 312.587 322.344Z" fill="#FAFAFA"/>
<path d="M272.79 331.344L174.454 331.386C174.257 331.387 174.062 331.349 173.88 331.274C173.697 331.2 173.532 331.09 173.392 330.951C173.252 330.812 173.142 330.647 173.066 330.465C172.991 330.283 172.952 330.088 172.952 329.891V270.495C172.952 270.298 172.991 270.103 173.066 269.921C173.142 269.739 173.252 269.574 173.392 269.435C173.532 269.296 173.697 269.186 173.88 269.111C174.062 269.037 174.257 268.999 174.454 268.999L272.79 268.95C273.187 268.952 273.568 269.111 273.848 269.393C274.128 269.674 274.285 270.055 274.285 270.453V329.842C274.285 330.239 274.128 330.62 273.848 330.902C273.568 331.183 273.187 331.342 272.79 331.344Z" fill="black"/>
<path d="M224.661 293.913L232.98 298.385L224.998 303.643L217.009 308.908L216.679 299.171L216.342 289.435L224.661 293.913Z" fill="white"/>
<path d="M266.964 325.131C266.964 325.237 247.553 325.328 223.615 325.335C199.677 325.342 180.267 325.272 180.267 325.173C180.267 325.075 199.67 324.984 223.615 324.97C247.56 324.956 266.964 325.026 266.964 325.131Z" fill="white"/>
<path d="M181.818 325.173C181.818 325.39 181.753 325.602 181.633 325.782C181.513 325.962 181.342 326.102 181.142 326.185C180.942 326.268 180.721 326.29 180.509 326.248C180.296 326.205 180.101 326.101 179.948 325.948C179.795 325.795 179.691 325.6 179.648 325.387C179.606 325.175 179.628 324.955 179.711 324.754C179.794 324.554 179.934 324.383 180.114 324.263C180.294 324.143 180.506 324.078 180.723 324.078C181.013 324.078 181.292 324.194 181.497 324.399C181.702 324.604 181.818 324.883 181.818 325.173Z" fill="white"/>
<path d="M257.424 331.19L152.994 331.239C152.596 331.239 152.213 331.08 151.932 330.799C151.65 330.517 151.492 330.135 151.492 329.736V266.592C151.492 266.395 151.531 266.2 151.606 266.018C151.682 265.836 151.793 265.671 151.932 265.532C152.072 265.393 152.237 265.283 152.42 265.208C152.602 265.133 152.797 265.095 152.994 265.096L257.424 265.047C257.821 265.047 258.202 265.204 258.483 265.485C258.765 265.765 258.924 266.145 258.926 266.542V329.722C258.918 330.115 258.757 330.489 258.476 330.764C258.194 331.039 257.816 331.191 257.424 331.19Z" fill="#455A64"/>
<path d="M206.31 291.485L215.134 296.223L206.668 301.804L198.202 307.385L197.851 297.065L197.493 286.739L206.31 291.485Z" fill="white"/>
<path d="M251.161 324.584C251.161 324.689 230.586 324.78 205.208 324.787C179.831 324.794 159.249 324.731 159.249 324.626C159.249 324.521 179.824 324.436 205.208 324.422C230.593 324.408 251.161 324.485 251.161 324.584Z" fill="white"/>
<path d="M160.849 324.626C160.849 324.855 160.781 325.079 160.654 325.269C160.526 325.46 160.345 325.608 160.134 325.696C159.922 325.784 159.689 325.807 159.465 325.762C159.24 325.717 159.033 325.607 158.871 325.445C158.709 325.283 158.599 325.076 158.554 324.852C158.51 324.627 158.533 324.394 158.62 324.183C158.708 323.971 158.857 323.79 159.047 323.663C159.237 323.535 159.461 323.468 159.691 323.468C159.998 323.468 160.292 323.59 160.51 323.807C160.727 324.024 160.849 324.319 160.849 324.626Z" fill="white"/>
<path d="M217.36 293.443H158.722C157.892 293.443 157.22 294.116 157.22 294.945V329.891C157.22 330.721 157.892 331.393 158.722 331.393H217.36C218.19 331.393 218.862 330.721 218.862 329.891V294.945C218.862 294.116 218.19 293.443 217.36 293.443Z" fill="#2C4BFF"/>
<path d="M188.683 308.599L193.745 311.316L188.887 314.517L184.029 317.725L183.826 311.8L183.622 305.875L188.683 308.599Z" fill="white"/>
<path d="M214.419 327.595C214.419 327.694 202.611 327.778 188.051 327.785C173.492 327.792 161.677 327.715 161.677 327.616C161.677 327.518 173.485 327.427 188.051 327.42C202.618 327.413 214.419 327.49 214.419 327.595Z" fill="white"/>
<path d="M162.597 327.616C162.597 327.749 162.558 327.878 162.484 327.988C162.41 328.097 162.306 328.183 162.184 328.233C162.061 328.283 161.927 328.296 161.797 328.27C161.668 328.244 161.549 328.179 161.456 328.085C161.363 327.991 161.3 327.872 161.275 327.742C161.25 327.612 161.264 327.478 161.316 327.356C161.368 327.235 161.454 327.131 161.565 327.058C161.675 326.986 161.805 326.948 161.937 326.949C162.113 326.951 162.281 327.022 162.404 327.147C162.528 327.272 162.597 327.441 162.597 327.616Z" fill="white"/>
<path d="M318.161 73.2677H42.1133V249.119H318.161V73.2677Z" fill="white"/>
<path d="M318.35 248.445C318.35 247.09 318.294 180.512 318.203 72.5938L318.35 72.7623L42.3307 72.8115L42.5273 72.5938C42.5273 134.833 42.5273 194.3 42.5273 248.445L42.3448 248.241L318.385 248.445L42.3448 248.648H42.1201V248.445C42.1201 194.3 42.1201 134.833 42.1201 72.5938V72.3762H42.3448L318.364 72.4254H318.519V72.5938C318.413 180.512 318.357 247.104 318.35 248.445Z" fill="black"/>
<path d="M318.512 83.1379C318.512 83.2432 256.637 83.3345 180.337 83.3345C104.037 83.3345 42.1201 83.2432 42.1201 83.1379C42.1201 83.0326 103.98 82.9343 180.309 82.9343C256.637 82.9343 318.512 83.0256 318.512 83.1379Z" fill="black"/>
<path d="M51.2463 76.6233C51.2463 76.976 51.1418 77.3207 50.9458 77.6139C50.7499 77.9071 50.4714 78.1357 50.1456 78.2706C49.8198 78.4056 49.4613 78.4409 49.1154 78.3721C48.7695 78.3033 48.4518 78.1335 48.2024 77.8841C47.9531 77.6348 47.7832 77.317 47.7144 76.9712C47.6456 76.6253 47.6809 76.2668 47.8159 75.9409C47.9509 75.6151 48.1794 75.3366 48.4726 75.1407C48.7659 74.9448 49.1106 74.8402 49.4633 74.8402C49.9362 74.8402 50.3897 75.0281 50.7241 75.3625C51.0585 75.6969 51.2463 76.1504 51.2463 76.6233Z" fill="black"/>
<path d="M56.7151 76.6233C56.7151 76.976 56.6105 77.3207 56.4146 77.6139C56.2187 77.9071 55.9402 78.1357 55.6144 78.2706C55.2885 78.4056 54.93 78.4409 54.5841 78.3721C54.2383 78.3033 53.9205 78.1335 53.6712 77.8841C53.4218 77.6348 53.252 77.317 53.1832 76.9712C53.1144 76.6253 53.1497 76.2668 53.2847 75.9409C53.4196 75.6151 53.6482 75.3366 53.9414 75.1407C54.2346 74.9448 54.5793 74.8402 54.932 74.8402C55.1662 74.8402 55.398 74.8863 55.6144 74.9759C55.8307 75.0655 56.0273 75.1969 56.1928 75.3625C56.3584 75.528 56.4898 75.7246 56.5794 75.9409C56.669 76.1573 56.7151 76.3891 56.7151 76.6233Z" fill="black"/>
<path d="M62.1555 76.6233C62.1555 76.976 62.0509 77.3207 61.855 77.6139C61.6591 77.9071 61.3806 78.1357 61.0548 78.2706C60.729 78.4056 60.3705 78.4409 60.0246 78.3721C59.6787 78.3033 59.361 78.1335 59.1116 77.8841C58.8622 77.6348 58.6924 77.317 58.6236 76.9712C58.5548 76.6253 58.5901 76.2668 58.7251 75.9409C58.86 75.6151 59.0886 75.3366 59.3818 75.1407C59.675 74.9448 60.0198 74.8402 60.3724 74.8402C60.8453 74.8402 61.2989 75.0281 61.6333 75.3625C61.9677 75.6969 62.1555 76.1504 62.1555 76.6233Z" fill="black"/>
<path d="M117.557 177.887H60.6318V232.966H117.557V177.887Z" fill="#2C4BFF"/>
<g opacity="0.3">
<path d="M65.0474 228.255L80.7932 199.909L93.6749 218.027L101.502 208.403L113.148 228.255H65.0474Z" fill="black"/>
</g>
<g opacity="0.3">
<path d="M99.1647 194.398C99.1661 195.209 98.9268 196.002 98.4772 196.677C98.0276 197.353 97.3877 197.879 96.6388 198.19C95.8898 198.502 95.0652 198.584 94.2695 198.427C93.4738 198.269 92.7426 197.879 92.1686 197.306C91.5945 196.733 91.2034 196.003 91.0446 195.207C90.8859 194.412 90.9666 193.587 91.2767 192.838C91.5868 192.088 92.1123 191.447 92.7866 190.997C93.461 190.546 94.2539 190.305 95.065 190.305C96.1505 190.307 97.1912 190.739 97.9594 191.506C98.7276 192.272 99.161 193.312 99.1647 194.398Z" fill="black"/>
</g>
<g opacity="0.3">
<path d="M113.149 228.403C113.138 228.328 113.138 228.253 113.149 228.178C113.149 228.017 113.149 227.806 113.149 227.539C113.149 226.95 113.149 226.135 113.149 225.061C113.149 222.878 113.149 219.719 113.085 215.704C113.085 207.659 113.015 196.202 112.966 182.45L113.205 182.682L65.1037 182.724L65.3704 182.457V194.826C65.3704 198.87 65.3704 202.836 65.3704 206.69C65.3704 214.412 65.3704 221.699 65.3704 228.403L65.1388 228.171L99.9158 228.29L109.744 228.354H112.348H113.05H113.289C113.219 228.364 113.148 228.364 113.078 228.354H112.425H109.87L100.112 228.417L65.1879 228.536H64.9492V228.297C64.9492 221.593 64.9492 214.3 64.9492 206.585C64.9492 202.731 64.9492 198.764 64.9492 194.721V182.457L65.223 182.183L113.324 182.218H113.556V182.45C113.507 196.265 113.464 207.771 113.436 215.851C113.436 219.845 113.387 222.983 113.373 225.153C113.373 226.199 113.373 227.013 113.373 227.588C113.373 227.848 113.373 228.045 113.373 228.206C113.304 228.278 113.229 228.343 113.149 228.403Z" fill="black"/>
</g>
<path d="M163.987 188.368H125.455V190.305H163.987V188.368Z" fill="#2C4BFF"/>
<path d="M177.381 196.679C177.381 196.792 165.805 196.883 151.534 196.883C137.262 196.883 125.686 196.792 125.686 196.679C125.686 196.567 137.255 196.483 151.534 196.483C165.812 196.483 177.381 196.56 177.381 196.679Z" fill="black"/>
<path d="M177.382 202.085C177.382 202.197 165.806 202.288 151.534 202.288C137.262 202.288 125.658 202.176 125.658 202.085C125.658 201.993 137.227 201.888 151.506 201.888C165.785 201.888 177.382 201.979 177.382 202.085Z" fill="black"/>
<path d="M177.381 207.49C177.381 207.602 165.805 207.687 151.534 207.687C137.262 207.687 125.686 207.602 125.686 207.49C125.686 207.378 137.255 207.294 151.534 207.294C165.812 207.294 177.381 207.378 177.381 207.49Z" fill="black"/>
<path d="M177.381 212.896C177.381 213.001 165.805 213.092 151.534 213.092C137.262 213.092 125.686 213.001 125.686 212.896C125.686 212.79 137.255 212.699 151.534 212.699C165.812 212.699 177.381 212.783 177.381 212.896Z" fill="black"/>
<path d="M177.382 218.322C177.382 218.427 165.806 218.519 151.534 218.519C137.262 218.519 125.658 218.406 125.658 218.322C125.658 218.238 137.227 218.118 151.506 218.118C165.785 218.118 177.382 218.189 177.382 218.322Z" fill="black"/>
<path d="M152.236 223.236C152.236 223.341 146.29 223.432 138.961 223.432C131.632 223.432 125.658 223.369 125.658 223.236C125.658 223.103 131.604 223.032 138.933 223.032C146.262 223.032 152.236 223.152 152.236 223.236Z" fill="black"/>
<path d="M288.459 185.103H249.926V187.041H288.459V185.103Z" fill="#2C4BFF"/>
<path d="M301.86 193.422C301.86 193.534 290.284 193.619 276.013 193.619C261.741 193.619 250.165 193.534 250.165 193.422C250.165 193.31 261.734 193.225 276.013 193.225C290.291 193.225 301.86 193.31 301.86 193.422Z" fill="black"/>
<path d="M301.86 198.827C301.86 198.94 290.284 199.024 276.013 199.024C261.741 199.024 250.165 198.94 250.165 198.827C250.165 198.715 261.734 198.631 276.013 198.631C290.291 198.631 301.86 198.715 301.86 198.827Z" fill="black"/>
<path d="M301.86 204.233C301.86 204.338 290.284 204.429 276.013 204.429C261.741 204.429 250.165 204.338 250.165 204.233C250.165 204.128 261.734 204.029 276.013 204.029C290.291 204.029 301.86 204.121 301.86 204.233Z" fill="black"/>
<path d="M301.86 209.638C301.86 209.744 290.284 209.835 276.013 209.835C261.741 209.835 250.165 209.744 250.165 209.638C250.165 209.533 261.734 209.435 276.013 209.435C290.291 209.435 301.86 209.526 301.86 209.638Z" fill="black"/>
<path d="M301.86 215.037C301.86 215.149 290.284 215.24 276.013 215.24C261.741 215.24 250.165 215.149 250.165 215.037C250.165 214.924 261.734 214.84 276.013 214.84C290.291 214.84 301.86 214.931 301.86 215.037Z" fill="black"/>
<path d="M276.707 220.007C276.707 220.112 270.761 220.203 263.433 220.203C256.104 220.203 250.158 220.112 250.158 220.007C250.158 219.902 256.104 219.803 263.433 219.803C270.761 219.803 276.707 219.894 276.707 220.007Z" fill="black"/>
<path d="M241.965 234.826C242.582 234.634 243.232 234.567 243.875 234.629C243.475 235.03 243.762 234.742 243.671 234.826V234.468V234.11C243.671 233.881 243.685 233.677 243.713 233.499C243.748 233.155 243.798 232.945 243.854 232.945C243.91 232.945 243.959 233.155 243.994 233.499C243.994 233.677 244.008 233.881 244.036 234.11V234.812L243.84 235.015C243.209 235.081 242.571 235.017 241.965 234.826Z" fill="black"/>
<path d="M233.766 234.826C235.115 234.564 236.502 234.564 237.852 234.826C236.503 235.097 235.114 235.097 233.766 234.826Z" fill="black"/>
<path d="M225.623 234.826C226.972 234.564 228.359 234.564 229.709 234.826C228.36 235.097 226.971 235.097 225.623 234.826Z" fill="black"/>
<path d="M217.452 234.826C218.801 234.564 220.188 234.564 221.537 234.826C220.189 235.097 218.8 235.097 217.452 234.826Z" fill="black"/>
<path d="M209.28 234.826C210.63 234.564 212.017 234.564 213.366 234.826C212.018 235.097 210.629 235.097 209.28 234.826Z" fill="black"/>
<path d="M201.109 234.826C202.459 234.564 203.846 234.564 205.195 234.826C203.847 235.097 202.458 235.097 201.109 234.826Z" fill="black"/>
<path d="M192.938 234.826C194.287 234.564 195.674 234.564 197.024 234.826C195.675 235.097 194.286 235.097 192.938 234.826Z" fill="black"/>
<path d="M186.942 232.924C187.143 233.537 187.212 234.185 187.146 234.826L186.942 234.629H187.687L188.297 234.672C188.641 234.714 188.852 234.763 188.852 234.812C188.852 234.861 188.641 234.917 188.297 234.959L187.687 235.002H186.942C186.858 234.91 187.146 235.198 186.746 234.798C186.688 234.166 186.755 233.529 186.942 232.924Z" fill="black"/>
<path d="M186.943 225.033C187.214 226.334 187.214 227.677 186.943 228.978C186.681 227.676 186.681 226.335 186.943 225.033Z" fill="black"/>
<path d="M186.943 217.15C187.214 218.451 187.214 219.794 186.943 221.095C186.681 219.793 186.681 218.452 186.943 217.15Z" fill="black"/>
<path d="M186.943 209.266C187.214 210.565 187.214 211.906 186.943 213.204C186.751 212.566 186.684 211.896 186.746 211.232C186.684 210.57 186.751 209.903 186.943 209.266Z" fill="black"/>
<path d="M186.943 201.376C187.214 202.677 187.214 204.02 186.943 205.321C186.681 204.019 186.681 202.678 186.943 201.376Z" fill="black"/>
<path d="M186.943 193.492C187.214 194.791 187.214 196.132 186.943 197.431C186.751 196.794 186.684 196.127 186.746 195.465C186.684 194.801 186.751 194.131 186.943 193.492Z" fill="black"/>
<path d="M186.943 185.602C187.214 186.903 187.214 188.246 186.943 189.547C186.681 188.245 186.681 186.904 186.943 185.602Z" fill="black"/>
<path d="M188.838 179.754C188.222 179.949 187.572 180.016 186.929 179.951L187.132 179.754V180.119V180.477C187.132 180.702 187.132 180.912 187.09 181.081C187.055 181.425 187.006 181.642 186.95 181.642C186.894 181.642 186.844 181.425 186.809 181.081C186.809 180.912 186.809 180.702 186.767 180.477C186.725 180.253 186.767 180.231 186.767 180.119V179.754L186.964 179.558C187.595 179.497 188.233 179.564 188.838 179.754Z" fill="black"/>
<path d="M197.024 179.754C195.674 180.016 194.287 180.016 192.938 179.754C194.287 179.492 195.674 179.492 197.024 179.754Z" fill="black"/>
<path d="M205.195 179.754C203.846 180.016 202.459 180.016 201.109 179.754C202.459 179.492 203.846 179.492 205.195 179.754Z" fill="black"/>
<path d="M213.366 179.754C212.017 180.016 210.63 180.016 209.28 179.754C210.63 179.492 212.017 179.492 213.366 179.754Z" fill="black"/>
<path d="M221.537 179.754C220.188 180.016 218.801 180.016 217.452 179.754C218.801 179.492 220.188 179.492 221.537 179.754Z" fill="black"/>
<path d="M229.709 179.754C228.359 180.016 226.972 180.016 225.623 179.754C226.972 179.492 228.359 179.492 229.709 179.754Z" fill="black"/>
<path d="M237.88 179.754C236.53 180.016 235.143 180.016 233.794 179.754C235.143 179.492 236.53 179.492 237.88 179.754Z" fill="black"/>
<path d="M243.875 181.663C243.675 181.048 243.606 180.398 243.671 179.754L243.875 179.951H243.489H243.131C242.899 179.951 242.695 179.951 242.52 179.908C242.176 179.873 241.965 179.824 241.965 179.768C241.965 179.712 242.176 179.663 242.52 179.628C242.698 179.628 242.901 179.614 243.131 179.586H243.489H243.875L244.071 179.782C244.128 180.416 244.062 181.055 243.875 181.663Z" fill="black"/>
<path d="M243.875 189.54C243.604 188.239 243.604 186.896 243.875 185.595C244.137 186.897 244.137 188.238 243.875 189.54Z" fill="black"/>
<path d="M243.875 197.431C243.604 196.132 243.604 194.791 243.875 193.492C244.066 194.131 244.133 194.801 244.072 195.465C244.133 196.127 244.067 196.794 243.875 197.431Z" fill="black"/>
<path d="M243.875 205.321C243.604 204.02 243.604 202.677 243.875 201.376C244.137 202.678 244.137 204.019 243.875 205.321Z" fill="black"/>
<path d="M243.875 213.204C243.604 211.906 243.604 210.565 243.875 209.266C244.067 209.903 244.133 210.57 244.072 211.232C244.133 211.896 244.066 212.566 243.875 213.204Z" fill="black"/>
<path d="M243.875 221.13C243.604 219.829 243.604 218.486 243.875 217.185C244.137 218.487 244.137 219.828 243.875 221.13Z" fill="black"/>
<path d="M243.875 228.978C243.604 227.677 243.604 226.334 243.875 225.033C244.137 226.335 244.137 227.676 243.875 228.978Z" fill="black"/>
<path d="M226.402 127.315C226.402 127.315 226.402 127.167 226.402 126.901C226.402 126.634 226.402 126.199 226.402 125.735C226.402 124.703 226.402 123.215 226.367 121.313C226.367 117.487 226.318 111.997 226.29 105.293L226.43 105.433L190.671 105.476C190.628 105.511 191.015 105.132 190.846 105.293V116.679C190.846 120.365 190.846 123.917 190.846 127.301L190.671 127.132L216.378 127.216L223.77 127.266H225.742H226.255C226.316 127.26 226.377 127.26 226.437 127.266H225.785H223.84L216.49 127.315L190.671 127.399H190.502V127.223C190.502 123.84 190.502 120.288 190.502 116.602V110.986C190.502 110.039 190.502 109.077 190.502 108.115V105.3C190.341 105.461 190.727 105.075 190.692 105.117L226.451 105.153H226.599V105.3C226.564 112.046 226.536 117.557 226.522 121.411C226.522 123.299 226.522 124.773 226.487 125.798C226.487 126.29 226.487 126.669 226.487 126.943C226.487 127.216 226.402 127.315 226.402 127.315Z" fill="#2C4BFF"/>
<path d="M208.74 114.475L211.674 116.055L208.859 117.908L206.037 119.761L205.925 116.328L205.806 112.896L208.74 114.475Z" fill="#2C4BFF"/>
<path d="M223.819 125.11C223.819 125.216 216.967 125.293 208.522 125.293C200.077 125.293 193.219 125.216 193.219 125.11C193.219 125.005 200.07 124.956 208.494 124.956C216.918 124.956 223.819 125.012 223.819 125.11Z" fill="#2C4BFF"/>
<path d="M193.366 125.496C193.579 125.496 193.752 125.324 193.752 125.11C193.752 124.897 193.579 124.724 193.366 124.724C193.153 124.724 192.98 124.897 192.98 125.11C192.98 125.324 193.153 125.496 193.366 125.496Z" fill="#2C4BFF"/>
<path d="M272.973 107.869H234.44V109.807H272.973V107.869Z" fill="#2C4BFF"/>
<path d="M286.367 116.188C286.367 116.293 274.798 116.385 260.526 116.385C246.255 116.385 234.679 116.293 234.679 116.188C234.679 116.083 246.248 115.984 260.526 115.984C274.805 115.984 286.367 116.076 286.367 116.188Z" fill="black"/>
<path d="M286.367 121.586C286.367 121.699 274.798 121.79 260.526 121.79C246.255 121.79 234.679 121.699 234.679 121.586C234.679 121.474 246.248 121.39 260.526 121.39C274.805 121.39 286.367 121.481 286.367 121.586Z" fill="black"/>
<path d="M226.402 159.656C226.402 159.656 226.402 159.515 226.402 159.249C226.402 158.982 226.402 158.582 226.402 158.083C226.402 157.051 226.402 155.563 226.367 153.661C226.367 149.835 226.318 144.345 226.29 137.641L226.43 137.781L190.671 137.824C190.628 137.824 191.015 137.473 190.846 137.641V149.035C190.846 152.72 190.846 156.272 190.846 159.656L190.671 159.487L216.378 159.572L223.77 159.621H225.742H226.255H226.437C226.437 159.621 226.388 159.621 226.276 159.621H225.785H223.84L216.49 159.67L190.671 159.747H190.502V159.572C190.502 156.188 190.502 152.636 190.502 148.95V143.334C190.502 142.38 190.502 141.425 190.502 140.463V137.571C190.341 137.732 190.727 137.346 190.692 137.388L226.451 137.423H226.599V137.571C226.564 144.317 226.536 149.828 226.522 153.675C226.522 155.563 226.522 157.044 226.487 158.069C226.487 158.561 226.487 158.933 226.487 159.207C226.468 159.358 226.44 159.508 226.402 159.656Z" fill="#2C4BFF"/>
<path d="M208.74 146.816L211.674 148.396L208.859 150.256L206.037 152.109L205.925 148.677L205.806 145.237L208.74 146.816Z" fill="#2C4BFF"/>
<path d="M223.819 157.459C223.819 157.557 216.967 157.641 208.522 157.641C200.077 157.641 193.219 157.557 193.219 157.459C193.219 157.36 200.07 157.248 208.494 157.248C216.918 157.248 223.819 157.36 223.819 157.459Z" fill="#2C4BFF"/>
<path d="M193.366 157.845C193.579 157.845 193.752 157.672 193.752 157.459C193.752 157.245 193.579 157.073 193.366 157.073C193.153 157.073 192.98 157.245 192.98 157.459C192.98 157.672 193.153 157.845 193.366 157.845Z" fill="#2C4BFF"/>
<path d="M272.973 140.218H234.44V142.155H272.973V140.218Z" fill="#2C4BFF"/>
<path d="M286.367 148.529C286.367 148.641 274.798 148.733 260.526 148.733C246.255 148.733 234.679 148.641 234.679 148.529C234.679 148.417 246.248 148.333 260.526 148.333C274.805 148.333 286.367 148.424 286.367 148.529Z" fill="black"/>
<path d="M286.367 153.935C286.367 154.047 274.798 154.138 260.526 154.138C246.255 154.138 234.679 154.047 234.679 153.935C234.679 153.822 246.248 153.738 260.526 153.738C274.805 153.738 286.367 153.829 286.367 153.935Z" fill="black"/>
<path d="M171.829 167.413C172.395 167.235 172.992 167.173 173.584 167.23L173.401 167.413V167.076V166.746C173.401 166.535 173.401 166.346 173.436 166.184C173.436 165.869 173.513 165.672 173.57 165.672C173.626 165.672 173.661 165.869 173.696 166.184C173.696 166.346 173.696 166.535 173.738 166.746V167.448L173.556 167.631C172.971 167.677 172.383 167.603 171.829 167.413Z" fill="#E0E0E0"/>
<path d="M164.823 167.413C165.98 167.169 167.176 167.169 168.333 167.413C167.176 167.657 165.98 167.657 164.823 167.413Z" fill="#E0E0E0"/>
<path d="M157.824 167.413C158.981 167.168 160.177 167.168 161.334 167.413C160.177 167.658 158.981 167.658 157.824 167.413Z" fill="#E0E0E0"/>
<path d="M150.818 167.413C151.975 167.169 153.171 167.169 154.328 167.413C153.171 167.657 151.975 167.657 150.818 167.413Z" fill="#E0E0E0"/>
<path d="M143.819 167.413C144.383 167.235 144.978 167.173 145.567 167.23C146.158 167.173 146.755 167.235 147.322 167.413C146.756 167.595 146.158 167.657 145.567 167.596C144.978 167.658 144.382 167.596 143.819 167.413Z" fill="#E0E0E0"/>
<path d="M136.813 167.413C137.97 167.169 139.166 167.169 140.323 167.413C139.166 167.657 137.97 167.657 136.813 167.413Z" fill="#E0E0E0"/>
<path d="M129.814 167.413C130.971 167.169 132.167 167.169 133.324 167.413C132.167 167.657 130.971 167.657 129.814 167.413Z" fill="#E0E0E0"/>
<path d="M122.808 167.413C123.375 167.235 123.972 167.173 124.563 167.23C125.152 167.173 125.747 167.235 126.311 167.413C125.748 167.596 125.152 167.658 124.563 167.596C123.972 167.657 123.374 167.595 122.808 167.413Z" fill="#E0E0E0"/>
<path d="M115.83 167.413C116.987 167.169 118.183 167.169 119.34 167.413C118.183 167.657 116.987 167.657 115.83 167.413Z" fill="#E0E0E0"/>
<path d="M108.81 167.413C109.967 167.168 111.163 167.168 112.32 167.413C111.163 167.658 109.967 167.658 108.81 167.413Z" fill="#E0E0E0"/>
<path d="M101.79 167.413C102.947 167.169 104.143 167.169 105.3 167.413C104.143 167.657 102.947 167.657 101.79 167.413Z" fill="#E0E0E0"/>
<path d="M94.8052 167.413C95.9623 167.168 97.158 167.168 98.3152 167.413C97.158 167.658 95.9623 167.658 94.8052 167.413Z" fill="#E0E0E0"/>
<path d="M87.7993 167.413C88.9566 167.169 90.1521 167.169 91.3093 167.413C90.1521 167.657 88.9566 167.657 87.7993 167.413Z" fill="#E0E0E0"/>
<path d="M80.8003 167.413C81.3646 167.235 81.9593 167.173 82.5483 167.23C83.1373 167.173 83.7319 167.235 84.2963 167.413C83.7329 167.596 83.1373 167.658 82.5483 167.596C81.9593 167.658 81.3636 167.596 80.8003 167.413Z" fill="#E0E0E0"/>
<path d="M73.7944 167.413C74.3613 167.235 74.9581 167.173 75.5494 167.23C76.1384 167.173 76.7329 167.235 77.2974 167.413C76.7337 167.594 76.1384 167.657 75.5494 167.596C74.9581 167.657 74.3605 167.595 73.7944 167.413Z" fill="#E0E0E0"/>
<path d="M66.7954 167.413C67.3598 167.235 67.9544 167.173 68.5434 167.23C69.1347 167.173 69.7315 167.235 70.2984 167.413C69.7324 167.595 69.1347 167.657 68.5434 167.596C67.9544 167.658 67.3588 167.596 66.7954 167.413Z" fill="#E0E0E0"/>
<path d="M61.5379 165.672C61.7158 166.239 61.7778 166.836 61.7204 167.427L61.5379 167.244H62.2399C62.4505 167.244 62.64 167.244 62.8015 167.287C63.1174 167.287 63.3139 167.364 63.3139 167.413C63.3139 167.462 63.1174 167.511 62.8015 167.546L62.2399 167.581H61.9099H61.5589L61.3764 167.399C61.3159 166.818 61.3708 166.231 61.5379 165.672Z" fill="#E0E0E0"/>
<path d="M61.5375 158.764C61.7809 159.9 61.7809 161.075 61.5375 162.211C61.2941 161.075 61.2941 159.9 61.5375 158.764Z" fill="#E0E0E0"/>
<path d="M61.5375 151.878C61.7809 153.014 61.7809 154.188 61.5375 155.324C61.2941 154.188 61.2941 153.014 61.5375 151.878Z" fill="#E0E0E0"/>
<path d="M61.5375 144.984C61.7809 146.12 61.7809 147.295 61.5375 148.431C61.2941 147.295 61.2941 146.12 61.5375 144.984Z" fill="#E0E0E0"/>
<path d="M61.5375 138.09C61.7809 139.226 61.7809 140.401 61.5375 141.537C61.2941 140.401 61.2941 139.226 61.5375 138.09Z" fill="#E0E0E0"/>
<path d="M61.5375 131.197C61.7809 132.333 61.7809 133.508 61.5375 134.644C61.2941 133.508 61.2941 132.333 61.5375 131.197Z" fill="#E0E0E0"/>
<path d="M61.5376 124.31C61.781 125.444 61.781 126.616 61.5376 127.75C61.2941 126.616 61.2941 125.444 61.5376 124.31Z" fill="#E0E0E0"/>
<path d="M61.5375 117.417C61.7809 118.553 61.7809 119.727 61.5375 120.863C61.2941 119.727 61.2941 118.553 61.5375 117.417Z" fill="#E0E0E0"/>
<path d="M61.5375 110.523C61.7809 111.659 61.7809 112.834 61.5375 113.97C61.2941 112.834 61.2941 111.659 61.5375 110.523Z" fill="#E0E0E0"/>
<path d="M61.5375 103.629C61.7809 104.765 61.7809 105.94 61.5375 107.076C61.2941 105.94 61.2941 104.765 61.5375 103.629Z" fill="#E0E0E0"/>
<path d="M63.2927 98.4273C62.7277 98.6138 62.1296 98.6784 61.5377 98.6169C61.9028 98.2448 61.636 98.5116 61.7203 98.4344V98.7783C61.7203 98.8836 61.7203 98.9889 61.7203 99.1083C61.7203 99.2276 61.7203 99.5084 61.6781 99.6629C61.6781 99.9788 61.6009 100.175 61.5518 100.175C61.5026 100.175 61.4535 99.9788 61.4254 99.6629C61.4254 99.5084 61.4254 99.3189 61.3833 99.1083V98.4063C61.4675 98.322 61.2008 98.5818 61.5658 98.2167C62.1497 98.1721 62.7367 98.2437 63.2927 98.4273Z" fill="#E0E0E0"/>
<path d="M70.2984 98.4274C69.7333 98.6138 69.1352 98.6784 68.5434 98.6169C67.9539 98.6787 67.358 98.6141 66.7954 98.4274C67.3598 98.2491 67.9544 98.187 68.5434 98.2449C69.1347 98.1874 69.7315 98.2495 70.2984 98.4274Z" fill="#E0E0E0"/>
<path d="M77.2974 98.4274C76.7346 98.6129 76.1389 98.6774 75.5494 98.617C74.9576 98.6784 74.3595 98.6138 73.7944 98.4274C74.3613 98.2495 74.9581 98.1874 75.5494 98.2449C76.1384 98.1878 76.7329 98.2499 77.2974 98.4274Z" fill="#E0E0E0"/>
<path d="M84.2963 98.4274C83.7337 98.6141 83.1378 98.6787 82.5483 98.6169C81.9588 98.6787 81.3629 98.6141 80.8003 98.4274C81.3646 98.2491 81.9593 98.187 82.5483 98.2449C83.1373 98.187 83.7319 98.2491 84.2963 98.4274Z" fill="#E0E0E0"/>
<path d="M91.302 98.4274C90.1458 98.6812 88.9482 98.6812 87.792 98.4274C88.9492 98.183 90.1448 98.183 91.302 98.4274Z" fill="#E0E0E0"/>
<path d="M98.28 98.4273C97.1239 98.682 95.9262 98.682 94.77 98.4273C95.9272 98.1819 97.1229 98.1819 98.28 98.4273Z" fill="#E0E0E0"/>
<path d="M105.3 98.4274C104.144 98.6812 102.946 98.6812 101.79 98.4274C102.947 98.183 104.143 98.183 105.3 98.4274Z" fill="#E0E0E0"/>
<path d="M112.32 98.4273C111.164 98.682 109.966 98.682 108.81 98.4273C109.967 98.1819 111.163 98.1819 112.32 98.4273Z" fill="#E0E0E0"/>
<path d="M119.34 98.4274C118.184 98.6812 116.986 98.6812 115.83 98.4274C116.987 98.183 118.183 98.183 119.34 98.4274Z" fill="#E0E0E0"/>
<path d="M126.311 98.4274C125.749 98.6141 125.153 98.6787 124.563 98.6169C123.971 98.6784 123.373 98.6138 122.808 98.4274C123.375 98.2495 123.972 98.1874 124.563 98.2449C125.152 98.187 125.747 98.2491 126.311 98.4274Z" fill="#E0E0E0"/>
<path d="M133.317 98.4274C132.161 98.6812 130.963 98.6812 129.807 98.4274C130.964 98.183 132.16 98.183 133.317 98.4274Z" fill="#E0E0E0"/>
<path d="M140.316 98.4274C139.16 98.6812 137.962 98.6812 136.806 98.4274C137.963 98.183 139.159 98.183 140.316 98.4274Z" fill="#E0E0E0"/>
<path d="M147.322 98.4274C146.757 98.6138 146.159 98.6784 145.567 98.6169C144.977 98.6787 144.381 98.6141 143.819 98.4274C144.383 98.2491 144.978 98.187 145.567 98.2449C146.158 98.1874 146.755 98.2495 147.322 98.4274Z" fill="#E0E0E0"/>
<path d="M154.321 98.4274C153.164 98.6812 151.967 98.6812 150.811 98.4274C151.968 98.183 153.163 98.183 154.321 98.4274Z" fill="#E0E0E0"/>
<path d="M161.32 98.4273C160.163 98.682 158.966 98.682 157.81 98.4273C158.967 98.1819 160.162 98.1819 161.32 98.4273Z" fill="#E0E0E0"/>
<path d="M168.326 98.4274C167.17 98.6812 165.972 98.6812 164.816 98.4274C165.973 98.183 167.169 98.183 168.326 98.4274Z" fill="#E0E0E0"/>
<path d="M173.584 100.182C173.401 99.6165 173.339 99.0187 173.401 98.4274C173.766 98.7924 173.499 98.5327 173.584 98.6169H173.226H172.896H172.341C172.025 98.5818 171.829 98.5397 171.829 98.4835C171.829 98.4274 172.025 98.3923 172.341 98.3572L172.896 98.3151H173.598C173.675 98.3993 173.415 98.1325 173.78 98.4976C173.825 99.0666 173.758 99.6388 173.584 100.182Z" fill="#E0E0E0"/>
<path d="M173.584 107.076C173.341 105.94 173.341 104.765 173.584 103.629C173.827 104.765 173.827 105.94 173.584 107.076Z" fill="#E0E0E0"/>
<path d="M173.584 113.97C173.341 112.834 173.341 111.659 173.584 110.523C173.827 111.659 173.827 112.834 173.584 113.97Z" fill="#E0E0E0"/>
<path d="M173.584 120.863C173.341 119.727 173.341 118.553 173.584 117.417C173.827 118.553 173.827 119.727 173.584 120.863Z" fill="#E0E0E0"/>
<path d="M173.584 127.764C173.341 126.63 173.341 125.458 173.584 124.324C173.827 125.458 173.827 126.63 173.584 127.764Z" fill="#E0E0E0"/>
<path d="M173.584 134.644C173.341 133.508 173.341 132.333 173.584 131.197C173.827 132.333 173.827 133.508 173.584 134.644Z" fill="#E0E0E0"/>
<path d="M173.584 141.537C173.341 140.401 173.341 139.226 173.584 138.09C173.827 139.226 173.827 140.401 173.584 141.537Z" fill="#E0E0E0"/>
<path d="M173.584 148.431C173.341 147.295 173.341 146.12 173.584 144.984C173.827 146.12 173.827 147.295 173.584 148.431Z" fill="#E0E0E0"/>
<path d="M173.584 155.324C173.402 154.768 173.34 154.18 173.401 153.598C173.339 153.018 173.401 152.432 173.584 151.878C173.763 152.432 173.825 153.018 173.766 153.598C173.824 154.18 173.762 154.767 173.584 155.324Z" fill="#E0E0E0"/>
<path d="M173.584 162.211C173.341 161.075 173.341 159.9 173.584 158.764C173.827 159.9 173.827 161.075 173.584 162.211Z" fill="#E0E0E0"/>
<path d="M165.496 166.872L56.6093 172.846C56.2141 172.868 55.8266 172.732 55.5309 172.469C55.2352 172.206 55.0551 171.837 55.0298 171.442L51.4215 105.553C51.3985 105.157 51.5334 104.769 51.7966 104.472C52.0599 104.176 52.4299 103.997 52.8255 103.973L161.706 97.9992C162.101 97.9781 162.488 98.1137 162.784 98.3765C163.08 98.6394 163.26 99.0083 163.285 99.4032L166.9 165.286C166.913 165.482 166.886 165.679 166.822 165.865C166.758 166.052 166.658 166.223 166.528 166.371C166.397 166.518 166.239 166.638 166.062 166.724C165.885 166.811 165.693 166.861 165.496 166.872Z" fill="#2C4BFF"/>
<path d="M109.954 128.424L119.403 132.86L110.909 139.15L102.408 145.44L101.453 134.714L100.499 123.987L109.954 128.424Z" fill="white"/>
<path d="M158.533 160.358C158.533 160.456 137.115 161.713 110.684 163.166C84.254 164.619 62.822 165.707 62.8149 165.609C62.8079 165.51 84.233 164.247 110.67 162.801C137.108 161.355 158.526 160.252 158.533 160.358Z" fill="white"/>
<path d="M64.4856 165.518C64.4977 165.756 64.439 165.993 64.3167 166.198C64.1944 166.403 64.0142 166.567 63.7987 166.669C63.5832 166.772 63.3421 166.808 63.1059 166.774C62.8698 166.74 62.6491 166.636 62.4717 166.476C62.2943 166.317 62.1683 166.108 62.1095 165.877C62.0507 165.645 62.0617 165.402 62.1413 165.177C62.2208 164.952 62.3653 164.755 62.5564 164.612C62.7475 164.469 62.9766 164.386 63.215 164.373C63.3736 164.365 63.5323 164.388 63.6821 164.441C63.8318 164.494 63.9697 164.575 64.0877 164.682C64.2057 164.788 64.3017 164.917 64.3699 165.06C64.4382 165.203 64.4775 165.359 64.4856 165.518Z" fill="white"/>
<g opacity="0.3">
<path d="M155.9 98.4134C154.159 101.755 152.39 105.567 153.569 109.14C154.124 110.776 155.247 112.152 156.097 113.654C158.708 118.266 158.617 123.861 158.462 129.154C158.413 130.656 158.287 132.341 157.157 133.324C156.223 134.124 154.896 134.215 153.647 134.257L138.834 134.826V160.905L166.311 154.826L165.026 115.83L164.324 109.252L161.551 98.0203L155.9 98.4134Z" fill="black"/>
</g>
<path d="M132.348 309.287L133.289 331.288L145.167 331.021L144.275 308.978L132.348 309.287Z" fill="#2C4BFF"/>
<path d="M139.122 330.326C139.221 330.326 139.031 325.503 138.708 319.564C138.385 313.626 138.006 308.817 137.936 308.824C137.866 308.831 138.02 313.647 138.35 319.586C138.68 325.524 138.996 330.333 139.122 330.326Z" fill="black"/>
<path d="M133.219 329.772L145.104 329.47L145.167 331.021L133.289 331.288L133.219 329.772Z" fill="#E0E0E0"/>
<path d="M144.879 323.98C144.879 323.98 144.788 323.791 144.556 323.51C143.713 322.524 142.657 321.744 141.467 321.228C140.583 320.843 139.622 320.67 138.659 320.723C137.79 320.758 136.938 320.975 136.157 321.358C135.377 321.741 134.684 322.283 134.124 322.948C133.792 323.349 133.52 323.796 133.317 324.275C133.227 324.445 133.17 324.631 133.148 324.822C133.491 324.221 133.88 323.649 134.314 323.11C135.444 321.883 137.014 321.154 138.68 321.081C140.346 321.053 141.97 321.601 143.278 322.632C144.317 323.39 144.837 324.022 144.879 323.98Z" fill="black"/>
<g opacity="0.3">
<path d="M144.528 315.254L144.626 317.676L132.72 317.887L132.636 316.061L144.528 315.254Z" fill="black"/>
</g>
<path d="M103.615 309.863L104.212 323.622C104.212 323.622 90.4177 328.852 90.2773 331.407L117.009 331.211L116.96 309.722L103.615 309.863Z" fill="#2C4BFF"/>
<path d="M112.32 322.457C112.579 322.535 112.8 322.705 112.941 322.936C113.082 323.166 113.133 323.44 113.086 323.706C113.019 323.968 112.854 324.194 112.626 324.338C112.397 324.481 112.122 324.532 111.857 324.478C111.581 324.398 111.345 324.217 111.196 323.972C111.047 323.726 110.995 323.434 111.05 323.152C111.147 322.885 111.344 322.666 111.6 322.543C111.856 322.42 112.15 322.401 112.419 322.492" fill="#E0E0E0"/>
<path d="M117.009 331.211V329.055L91.1407 330.038C91.1407 330.038 89.9473 330.565 90.0877 331.407L117.009 331.211Z" fill="#E0E0E0"/>
<path d="M103.967 323.713C103.967 323.847 104.669 323.903 105.279 324.317C105.89 324.731 106.276 325.286 106.402 325.237C106.529 325.187 106.318 324.422 105.525 323.931C104.732 323.44 103.938 323.622 103.967 323.713Z" fill="black"/>
<path d="M101.151 324.9C101.151 325.033 101.692 325.251 102.141 325.805C102.59 326.36 102.731 326.942 102.843 326.935C102.956 326.928 103.054 326.184 102.478 325.531C101.903 324.879 101.151 324.78 101.151 324.9Z" fill="black"/>
<path d="M99.5719 328.297C99.6912 328.297 99.8737 327.665 99.5297 326.942C99.1858 326.219 98.568 325.946 98.5118 326.058C98.4557 326.17 98.8418 326.549 99.1156 327.139C99.3893 327.729 99.4455 328.283 99.5719 328.297Z" fill="black"/>
<path d="M104.184 320.54C104.24 320.66 104.837 320.47 105.588 320.54C106.339 320.61 106.915 320.814 106.992 320.702C107.069 320.589 106.501 320.126 105.623 320.084C104.746 320.042 104.114 320.435 104.184 320.54Z" fill="black"/>
<path d="M103.679 317.578C104.119 317.703 104.586 317.703 105.027 317.578C105.511 317.49 105.983 317.342 106.431 317.135C106.697 317.015 106.955 316.877 107.203 316.721C107.352 316.634 107.487 316.526 107.603 316.398C107.691 316.305 107.744 316.185 107.755 316.057C107.765 315.93 107.731 315.802 107.659 315.696C107.595 315.603 107.508 315.527 107.408 315.475C107.308 315.422 107.197 315.395 107.083 315.395C106.912 315.399 106.742 315.425 106.578 315.472C106.291 315.543 106.011 315.642 105.743 315.767C105.288 315.974 104.869 316.252 104.5 316.588C103.882 317.171 103.672 317.669 103.721 317.69C103.77 317.711 104.079 317.318 104.711 316.841C105.076 316.552 105.48 316.316 105.911 316.139C106.168 316.037 106.434 315.957 106.704 315.9C106.985 315.823 107.231 315.816 107.301 315.942C107.371 316.068 107.301 316.012 107.301 316.097C107.216 316.189 107.116 316.267 107.006 316.328C106.781 316.48 106.546 316.618 106.304 316.742C105.888 316.952 105.453 317.124 105.005 317.255C104.556 317.33 104.112 317.438 103.679 317.578Z" fill="black"/>
<path d="M103.854 317.767C104.101 317.378 104.221 316.922 104.198 316.462C104.219 315.963 104.153 315.464 104.002 314.987C103.915 314.702 103.797 314.426 103.651 314.166C103.581 313.983 103.465 313.822 103.313 313.699C103.162 313.576 102.98 313.495 102.787 313.464C102.667 313.468 102.551 313.506 102.452 313.573C102.353 313.64 102.274 313.734 102.226 313.843C102.162 314.004 102.117 314.171 102.092 314.342C102.05 314.642 102.05 314.947 102.092 315.247C102.169 315.757 102.371 316.24 102.682 316.651C103.208 317.353 103.763 317.501 103.77 317.451C103.777 317.402 103.356 317.136 102.949 316.469C102.702 316.085 102.546 315.651 102.492 315.198C102.457 314.939 102.457 314.677 102.492 314.419C102.535 314.131 102.64 313.899 102.745 313.927C102.85 313.956 103.11 314.138 103.222 314.37C103.357 314.592 103.47 314.827 103.559 315.072C103.716 315.503 103.808 315.955 103.833 316.413C103.896 317.255 103.784 317.746 103.854 317.767Z" fill="black"/>
<g opacity="0.3">
<path d="M117.016 317.978L116.988 321.032H104.1V319.354L117.016 317.978Z" fill="black"/>
</g>
<path d="M157.038 100.554C156.736 100.554 155.957 103.601 155.57 105.131C155.432 105.692 155.512 106.285 155.795 106.788L158.891 112.271C159.47 113.284 160.308 114.125 161.32 114.707L162.871 115.584L163.075 118.842L171.787 118.982L169.133 108.81L168.024 102.611C167.876 102.307 167.657 102.043 167.386 101.842C167.115 101.64 166.799 101.507 166.465 101.453L165.644 101.334L165.335 100.547C165.246 100.324 165.101 100.128 164.914 99.9764C164.728 99.8252 164.505 99.7245 164.268 99.684L163.756 99.6208L163.054 97.8588C162.939 97.5793 162.745 97.3398 162.495 97.17C162.246 97.0002 161.952 96.9077 161.65 96.9041L157.438 96.9602C157.438 96.9602 156.511 98.2098 158.638 98.7995C159.227 98.9663 159.838 99.0421 160.449 99.0241L161.432 102.822C161.432 102.822 162.134 106.809 160.26 106.809C158.617 106.809 158.463 104.661 158.463 104.661C158.463 104.661 159.186 100.316 157.038 100.554Z" fill="#FFBE9D"/>
<path d="M165.672 104.359C165.636 104.092 165.582 103.827 165.511 103.566C165.289 102.948 164.873 102.418 164.324 102.057C164.032 101.455 163.813 100.822 163.671 100.168C163.592 99.9022 163.561 99.6241 163.58 99.347C163.58 99.347 163.636 99.6559 163.77 100.14C163.943 100.765 164.166 101.376 164.436 101.966L164.865 102.317C164.995 102.44 165.113 102.577 165.216 102.724C165.393 102.97 165.526 103.246 165.609 103.538C165.664 103.732 165.693 103.933 165.693 104.135C165.7 104.21 165.692 104.286 165.672 104.359Z" fill="#EB996E"/>
<path d="M167.013 103.622C166.994 103.485 166.951 103.352 166.886 103.229C166.805 103.082 166.689 102.958 166.548 102.866C166.407 102.774 166.246 102.718 166.079 102.703H166.03V102.661L165.981 102.527C165.772 102.015 165.606 101.487 165.482 100.948C165.742 101.435 165.955 101.945 166.121 102.471L166.17 102.611L166.107 102.562C166.297 102.58 166.479 102.648 166.635 102.759C166.79 102.87 166.913 103.02 166.992 103.194C167.076 103.447 167.034 103.636 167.013 103.622Z" fill="#EB996E"/>
<path d="M160.358 99.0381C160.323 99.0381 160.162 98.8486 160.204 98.5538C160.246 98.2589 160.386 98.0764 160.421 98.0975C160.456 98.1185 160.379 98.3151 160.351 98.5678C160.323 98.8205 160.393 99.0171 160.358 99.0381Z" fill="#EB996E"/>
<path d="M115.732 138.533L131.527 138.336L129.765 124.879C129.765 124.879 130.846 124.647 130.916 118.8C130.987 112.952 131.26 102.998 131.26 102.998C127.932 101.569 124.284 101.054 120.69 101.505C117.097 101.957 113.689 103.359 110.818 105.567L109.955 106.269L115.732 138.533Z" fill="#FFBE9D"/>
<path d="M111.787 113.436C111.689 113.394 107.764 112.243 107.891 116.244C108.017 120.246 112.011 119.291 112.011 119.179C112.011 119.066 111.787 113.436 111.787 113.436Z" fill="#FFBE9D"/>
<path d="M130.572 112.601C130.67 112.559 134.237 111.597 134.082 115.598C133.928 119.6 129.961 118.645 129.961 118.526C129.961 118.406 130.572 112.601 130.572 112.601Z" fill="#FFBE9D"/>
<path d="M135.072 101.039C135.112 100.676 135.06 100.308 134.92 99.9708C134.78 99.6334 134.557 99.3367 134.272 99.1083C133.978 98.8917 133.616 98.7875 133.251 98.8145C132.887 98.8416 132.544 98.9981 132.285 99.2557C132.34 99.0112 132.343 98.7578 132.293 98.5121C132.244 98.2664 132.144 98.0338 131.999 97.8293C131.854 97.6248 131.668 97.453 131.452 97.3251C131.237 97.1971 130.997 97.1159 130.748 97.0866C129.793 97.0304 128.979 97.7465 128.059 97.9992C127.139 98.1968 126.179 98.0858 125.328 97.6833C124.458 97.3393 123.651 96.8549 122.773 96.539C120.92 95.8593 118.874 95.9399 117.08 96.7631C115.286 97.5863 113.891 99.0855 113.198 100.934C112.546 100.776 111.863 100.819 111.236 101.057C110.61 101.295 110.07 101.717 109.688 102.267C108.944 103.4 108.646 104.768 108.852 106.107C108.991 107.005 109.227 107.885 109.554 108.733C109.554 108.81 109.554 108.88 109.554 108.957C109.611 112.173 111.288 122.345 112.664 122.366C115.058 122.401 113.177 111.506 113.177 111.506C116.111 110.368 115.016 105.967 115.753 105.3C116.49 104.633 118.021 103.082 124.177 106.227C126.465 107.248 129.017 107.523 131.471 107.013H131.625H131.66C131.66 107.013 131.695 107.013 131.717 107.013C132.274 106.862 132.805 106.625 133.289 106.311C133.864 105.982 134.32 105.478 134.588 104.872C134.716 104.567 134.753 104.231 134.693 103.905C134.633 103.58 134.479 103.279 134.251 103.04C134.713 102.467 134.999 101.771 135.072 101.039Z" fill="black"/>
<path d="M110.488 113.022C111.084 116.378 110.965 118.14 111.52 120.379C112.397 123.889 114.159 126.641 117.346 128.41C120.533 130.179 124.858 130.144 127.603 127.708C129.505 126.037 130.853 124.149 131.113 121.629C131.372 119.108 131.681 114.658 131.702 112.123C131.702 107.553 132.039 103.187 132.039 103.187L118.982 100.821L111.555 105.237L110.488 113.022Z" fill="black"/>
<path d="M123.952 130.396C123.222 130.67 122.43 130.738 121.664 130.593C120.883 130.567 120.124 130.324 119.474 129.891C119.516 129.793 120.477 130.095 121.706 130.228C122.934 130.361 123.938 130.284 123.952 130.396Z" fill="black"/>
<path d="M127.343 100.232C127.144 100.303 126.936 100.341 126.725 100.344C126.144 100.349 125.571 100.214 125.054 99.9508C124.304 99.5595 123.598 99.0888 122.948 98.5468C122.158 97.8856 121.205 97.447 120.189 97.2761C119.17 97.1372 118.132 97.3188 117.22 97.7956C116.479 98.1949 115.854 98.7804 115.409 99.4944C115.002 100.156 114.736 100.894 114.629 101.664C114.631 101.454 114.652 101.245 114.693 101.039C114.808 100.473 115.019 99.9321 115.317 99.4383C115.765 98.6995 116.399 98.0918 117.157 97.6763C118.092 97.1783 119.161 96.9891 120.21 97.1357C121.249 97.3035 122.221 97.7554 123.018 98.4414C123.673 98.9762 124.379 99.4464 125.124 99.8454C125.625 100.11 126.18 100.257 126.746 100.274C127.125 100.288 127.343 100.21 127.343 100.232Z" fill="#455A64"/>
<path d="M114.805 101.874C114.506 101.728 114.193 101.61 113.871 101.523C113.083 101.346 112.257 101.477 111.562 101.888C110.883 102.324 110.4 103.006 110.214 103.791C110.149 104.119 110.113 104.453 110.109 104.788C110.08 104.701 110.066 104.611 110.066 104.521C110.045 104.269 110.061 104.016 110.116 103.77C110.192 103.358 110.353 102.967 110.589 102.621C110.824 102.276 111.13 101.983 111.486 101.762C111.841 101.541 112.239 101.397 112.653 101.339C113.068 101.281 113.49 101.31 113.892 101.425C114.138 101.489 114.374 101.586 114.594 101.713C114.673 101.754 114.745 101.809 114.805 101.874Z" fill="#455A64"/>
<path d="M114.426 116.146C113.591 114.848 112.965 113.427 112.573 111.934C113.408 113.232 114.033 114.653 114.426 116.146Z" fill="#455A64"/>
<path d="M117.845 118.441C117.068 118.013 116.426 117.376 115.992 116.602C115.458 115.893 115.13 115.05 115.044 114.166C115.149 114.166 115.528 115.226 116.301 116.399C117.073 117.571 117.936 118.364 117.845 118.441Z" fill="#455A64"/>
<path d="M121.214 119.186C120.621 119.005 120.084 118.673 119.656 118.224C118.884 117.522 118.413 116.869 118.491 116.82C118.568 116.771 119.151 117.311 119.895 117.957C120.639 118.603 121.271 119.094 121.214 119.186Z" fill="#455A64"/>
<path d="M127.174 113.759C127.264 114.444 127.142 115.14 126.823 115.753C126.613 116.411 126.21 116.991 125.665 117.417C125.902 116.799 126.177 116.197 126.486 115.612C126.682 114.983 126.912 114.364 127.174 113.759Z" fill="#455A64"/>
<path d="M129.168 110.6C129.324 111.422 129.244 112.272 128.937 113.05C128.758 113.863 128.352 114.608 127.764 115.198C127.68 115.135 128.242 114.208 128.635 112.945C129.028 111.681 129.091 110.6 129.168 110.6Z" fill="#455A64"/>
<path d="M130.748 102.492C130.596 102.651 130.421 102.786 130.228 102.892C129.703 103.197 129.115 103.38 128.508 103.426C127.609 103.488 126.708 103.349 125.869 103.019C124.859 102.608 123.883 102.12 122.949 101.558C122.018 101.007 121.02 100.578 119.979 100.281C119.127 100.046 118.227 100.046 117.375 100.281C116.803 100.442 116.28 100.741 115.851 101.151C115.557 101.453 115.444 101.664 115.43 101.65C115.528 101.453 115.656 101.273 115.809 101.116C116.23 100.675 116.761 100.353 117.347 100.182C118.212 99.9217 119.133 99.9047 120.007 100.133C121.064 100.424 122.078 100.856 123.019 101.418C123.948 101.975 124.917 102.463 125.918 102.878C126.737 103.211 127.619 103.357 128.501 103.306C129.315 103.268 130.099 102.984 130.748 102.492Z" fill="#455A64"/>
<path d="M131.906 104.409C131.842 104.465 131.772 104.512 131.695 104.549C131.494 104.664 131.285 104.768 131.071 104.858C129.649 105.458 128.077 105.6 126.571 105.265C126.333 105.219 126.099 105.158 125.869 105.082C125.714 105.026 125.63 104.991 125.637 104.977C125.644 104.963 125.988 105.061 126.557 105.167C127.3 105.298 128.058 105.331 128.81 105.265C129.559 105.192 130.295 105.022 131 104.76C131.576 104.556 131.899 104.387 131.906 104.409Z" fill="#455A64"/>
<path d="M124.633 225.356L128.473 262.394L131.232 318.174H145.953L146.353 199.459L104.205 202.464L95.4722 264.752L103.04 319.27H119.193L115.409 267.427L124.633 225.356Z" fill="black"/>
<path d="M124.633 225.342C123.767 226.365 122.809 227.305 121.769 228.15C120.811 229.094 119.771 229.949 118.659 230.705C119.528 229.686 120.487 228.746 121.523 227.897C122.479 226.952 123.52 226.097 124.633 225.342Z" fill="#455A64"/>
<path d="M124.591 224.64C124.528 223.056 124.554 221.469 124.668 219.887C124.669 218.302 124.76 216.717 124.942 215.142C125.13 216.722 125.161 218.316 125.033 219.902C125.038 221.492 124.89 223.078 124.591 224.64Z" fill="#455A64"/>
<path d="M129.456 210.79C129.535 210.781 129.615 210.781 129.695 210.79L130.397 210.747L133.205 210.614L143.187 210.193H143.356V210.368C143.356 213.478 143.356 217.002 143.356 220.73V221.053L143.236 221.095L136.75 223.699H136.687H136.624L130.888 221.706H130.797V221.614C130.376 218.378 130.032 215.682 129.779 213.752C129.667 212.853 129.582 212.13 129.512 211.59C129.442 211.049 129.435 210.846 129.442 210.853C129.463 210.922 129.48 210.992 129.491 211.063C129.491 211.225 129.547 211.414 129.59 211.646C129.674 212.194 129.793 212.924 129.933 213.836C130.221 215.739 130.635 218.385 131.099 221.558L131.001 221.432L136.75 223.383H136.631L143.117 220.765L143.005 220.933V220.737C143.005 217.009 143.005 213.485 143.005 210.375L143.173 210.537L133.303 210.783L130.495 210.832H129.456V210.79Z" fill="#455A64"/>
<path d="M108.206 210.972C108.279 210.963 108.352 210.963 108.424 210.972H109.077L111.604 210.888L120.73 210.677H120.899V210.846C120.8 213.921 120.688 217.466 120.569 221.235V221.334L120.491 221.383L119.438 222.085L114.103 225.595L114.012 225.658L113.914 225.595L107.862 221.832L107.785 221.783V221.699C107.897 218.469 107.996 215.781 108.059 213.85C108.101 212.952 108.136 212.229 108.157 211.695C108.16 211.449 108.176 211.203 108.206 210.958C108.217 211.028 108.217 211.099 108.206 211.169V211.751C108.206 212.299 108.206 213.029 108.206 213.949C108.206 215.851 108.136 218.512 108.094 221.671L108.017 221.537L114.054 225.153H113.864L119.2 221.643L120.253 220.941L120.168 221.088C120.309 217.311 120.435 213.766 120.548 210.691L120.709 210.86L111.702 210.909H108.459L108.206 210.972Z" fill="#455A64"/>
<path d="M141.804 227.75C141.139 227.793 140.471 227.772 139.81 227.687C138.582 227.595 136.89 227.427 135.023 227.188C133.155 226.95 131.478 226.676 130.27 226.451C129.609 226.367 128.957 226.217 128.326 226.002C128.99 226.01 129.652 226.073 130.305 226.191L135.072 226.823L139.838 227.427C140.502 227.48 141.159 227.588 141.804 227.75Z" fill="#455A64"/>
<path d="M141.46 269.034C141.46 269.034 141.404 269.252 141.116 269.505C140.688 269.846 140.154 270.027 139.607 270.017C138.801 269.991 138.027 269.694 137.41 269.175C136.681 268.563 136.011 267.883 135.409 267.146C134.284 265.839 133.285 264.429 132.425 262.934C132.042 262.336 131.729 261.695 131.492 261.025C131.909 261.594 132.293 262.187 132.643 262.801C133.561 264.233 134.577 265.6 135.683 266.893C136.273 267.612 136.921 268.281 137.62 268.894C138.174 269.387 138.875 269.685 139.614 269.744C140.109 269.773 140.6 269.646 141.018 269.378C141.32 269.189 141.439 269.02 141.46 269.034Z" fill="#455A64"/>
<path d="M112.391 270.34C112.391 270.34 112.391 270.53 112.194 270.811C111.934 271.208 111.586 271.539 111.176 271.779C110.563 272.136 109.864 272.318 109.154 272.306C108.289 272.275 107.449 272.008 106.726 271.534C105.451 270.649 104.44 269.436 103.798 268.024C103.494 267.477 103.258 266.894 103.096 266.29C103.455 266.803 103.774 267.343 104.051 267.904C104.739 269.219 105.73 270.35 106.943 271.204C107.616 271.646 108.393 271.903 109.197 271.948C109.849 271.972 110.496 271.829 111.078 271.534C111.594 271.231 112.041 270.825 112.391 270.34Z" fill="#455A64"/>
<path d="M113.331 264.752C112.978 265.062 112.568 265.301 112.123 265.454C111.074 265.882 109.957 266.119 108.824 266.156C107.687 266.207 106.55 266.053 105.469 265.7C105.013 265.587 104.585 265.381 104.212 265.096C105.696 265.569 107.245 265.806 108.803 265.798C110.357 265.682 111.884 265.329 113.331 264.752Z" fill="#455A64"/>
<path d="M161.235 134.026H139.775C139.775 134.026 136.855 132.348 135.451 132.622C134.417 132.951 133.5 133.573 132.812 134.412L135.655 158.055L142.604 152.917L168.48 150.228C169.589 150.216 170.684 149.981 171.7 149.535C172.715 149.09 173.631 148.445 174.391 147.638C175.216 146.761 175.84 145.714 176.217 144.57C176.594 143.426 176.716 142.214 176.574 141.018L171.787 115.584L161.959 115.914L161.565 122.366L161.235 134.026Z" fill="#455A64"/>
<path d="M102.155 139.986C99.8494 141.413 98.0402 143.516 96.9741 146.009C95.7246 149.014 87.1461 164.022 82.6674 171.871C81.8708 173.261 81.5449 174.871 81.7385 176.461C81.9321 178.051 82.6347 179.537 83.7414 180.695C86.4792 183.552 91.0703 184.338 95.0647 183.039C96.8548 182.457 104.022 176.637 104.022 176.637L102.155 139.986Z" fill="#455A64"/>
<path d="M105.89 193.612L100.969 151.274L102.155 139.986L114.686 134.651L130.909 133.584L146.36 135.289L142.745 178.715L146.697 203.208L103.426 205.16L105.89 193.612Z" fill="#455A64"/>
<path d="M105.869 193.429C105.771 193.429 104.591 184.015 103.236 172.369C101.882 160.723 100.871 151.309 100.969 151.267C101.067 151.225 102.247 160.688 103.602 172.327C104.956 183.966 106.002 193.415 105.869 193.429Z" fill="black"/>
<path d="M146.016 144.787C146.036 144.915 146.036 145.046 146.016 145.174C146.016 145.461 145.96 145.819 145.918 146.262C145.813 147.251 145.679 148.606 145.511 150.249C145.167 153.668 144.703 158.301 144.191 163.426C143.678 168.55 143.299 173.254 143.047 176.609C142.927 178.259 142.829 179.614 142.759 180.611C142.759 181.053 142.696 181.411 142.675 181.699C142.671 181.827 142.652 181.954 142.618 182.078C142.6 181.952 142.6 181.824 142.618 181.699C142.618 181.404 142.618 181.046 142.618 180.604C142.618 179.656 142.703 178.287 142.787 176.595C142.976 173.211 143.334 168.536 143.826 163.39C144.317 158.245 144.844 153.562 145.23 150.221C145.44 148.543 145.616 147.181 145.756 146.241C145.82 145.805 145.876 145.447 145.918 145.16C145.933 145.032 145.966 144.906 146.016 144.787Z" fill="black"/>
<path d="M138.596 186.943C138.384 187.239 138.149 187.518 137.894 187.778C137.621 188.103 137.328 188.41 137.016 188.698C136.651 189.035 136.258 189.442 135.767 189.821C135.249 190.264 134.705 190.677 134.138 191.056C133.498 191.507 132.835 191.924 132.152 192.306C129.003 194.057 125.51 195.099 121.916 195.36C121.088 195.36 120.309 195.451 119.572 195.409C118.891 195.401 118.211 195.354 117.536 195.268C116.977 195.21 116.422 195.123 115.872 195.009C115.452 194.94 115.037 194.844 114.63 194.721C114.277 194.643 113.932 194.535 113.598 194.398C113.598 194.314 115.1 194.777 117.557 195.009C118.229 195.076 118.904 195.108 119.579 195.107C120.281 195.107 121.074 195.065 121.888 195.023C125.423 194.726 128.857 193.7 131.976 192.011C132.678 191.597 133.38 191.232 133.956 190.811C134.531 190.389 135.1 190.003 135.591 189.624C137.55 188.08 138.533 186.886 138.596 186.943Z" fill="black"/>
<g opacity="0.3">
<path d="M115.718 194.847C113.612 194.243 113.493 192.257 114.314 191.407C115.135 190.558 116.42 190.446 117.62 190.614C118.77 190.896 119.947 191.054 121.13 191.084C123.054 190.958 124.64 189.617 126.002 188.227C127.364 186.837 128.607 185.279 130.362 184.479C132.117 183.678 134.574 183.966 135.486 185.658C135.75 186.213 135.869 186.826 135.832 187.44C135.796 188.054 135.604 188.648 135.276 189.168C134.613 190.207 133.723 191.081 132.671 191.723C130.222 193.394 127.451 194.535 124.535 195.073C121.619 195.611 118.623 195.534 115.739 194.847" fill="black"/>
</g>
<g opacity="0.2">
<path d="M102.745 166.816C102.366 167.35 98.7083 172.348 98.7083 172.348C98.61 172.853 95.0649 177.424 95.0649 177.424C95.0649 177.424 98.2169 175.676 100.639 174.426C101.662 173.819 102.632 173.127 103.538 172.355C103.538 172.355 102.991 168.915 102.752 167.631C102.211 164.752 101.846 158.259 101.846 158.259" fill="black"/>
</g>
<path d="M141.306 134.889C142.462 135.308 143.448 136.095 144.114 137.129C144.884 138.089 145.321 139.275 145.356 140.505C144.698 138.219 143.263 136.233 141.299 134.889H141.306Z" fill="black"/>
<path d="M102.745 166.816C102.448 167.42 102.093 167.994 101.685 168.529C100.983 169.554 100.014 170.958 98.9122 172.495C96.7009 175.556 94.8125 178.006 94.7002 177.866L95.8304 176.23L98.6384 172.285C99.7406 170.747 100.744 169.365 101.496 168.382C101.864 167.823 102.282 167.299 102.745 166.816Z" fill="black"/>
</svg>
