<svg width="108" height="72" viewBox="0 0 108 72" fill="none" xmlns="http://www.w3.org/2000/svg">
<path d="M36 72H46.9301L43.7481 68.818C42.9043 67.9741 41.7596 67.5 40.5662 67.5H36C18.603 67.5 4.5 53.397 4.5 36C4.5 18.603 18.603 4.50002 36 4.5H72C89.397 4.5 103.5 18.603 103.5 36C103.5 53.397 89.397 67.5 72 67.5H58.5331C56.7428 67.5 55.026 66.7888 53.7601 65.5231L50.0323 61.7951C47.9225 59.6853 45.0608 58.5 42.0772 58.5H36C23.5735 58.5 13.5 48.4265 13.5 36C13.5 23.5735 23.5735 13.5 36 13.5H72C84.4265 13.5 94.5 23.5735 94.5 36C94.5 48.4265 84.4265 58.5 72 58.5H63.353C61.5627 58.5 59.8459 57.7888 58.5799 56.5231L54.8519 52.7951C52.7422 50.6853 49.8807 49.5 46.897 49.5H36C28.5442 49.5 22.5 43.4558 22.5 36C22.5 28.5442 28.5442 22.5 36 22.5H72C79.4558 22.5 85.5 28.5442 85.5 36C85.5 43.3649 79.6023 49.3524 72.2722 49.4973L72.2707 49.5H68.978C67.1877 49.5 65.4709 48.7888 64.2049 47.5231L60.4769 43.7951C58.7459 42.0638 56.5087 40.9552 54.113 40.613L54 40.5H36C33.5147 40.5 31.5 38.4853 31.5 36C31.5 33.5147 33.5147 31.5 36 31.5H72C74.4853 31.5 76.5 33.5147 76.5 36C76.5 38.4853 74.4853 40.5 72 40.5H63L66.182 43.682C67.0259 44.5259 68.1705 45 69.3639 45H72C76.9705 45 81 40.9705 81 36C81 31.0295 76.9705 27 72 27H36C31.0295 27 27 31.0295 27 36C27 40.9705 31.0295 45 36 45H52.522C54.3123 45 56.0291 45.7112 57.2951 46.9769L61.0231 50.7049C63.1328 52.8147 65.9943 54 68.978 54H73.125V53.9654C82.5421 53.3848 90 45.5632 90 36C90 26.059 81.941 18 72 18H36C26.059 18 18 26.059 18 36C18 45.9412 26.059 54 36 54H46.897C48.6873 54 50.4041 54.7112 51.6701 55.9769L55.3981 59.7049C57.5078 61.8147 60.3693 63 63.353 63H72C86.9117 63 99 50.9117 99 36C99 21.0883 86.9117 9 72 9H36C21.0883 9 9 21.0883 9 36C9 50.9117 21.0883 63 36 63H42.0772C43.8674 63 45.5843 63.7112 46.8502 64.9769L50.5782 68.7049C52.688 70.8147 55.5494 72 58.5331 72H72C91.8823 72 108 55.8823 108 36C108 16.1177 91.8823 -1.73816e-06 72 0L36 7.43875e-06C16.1177 9.17692e-06 -1.73816e-06 16.1178 0 36C1.73816e-06 55.8823 16.1178 72 36 72Z" fill="#5670FF"/>
</svg>
