<svg width="20" height="19" viewBox="0 0 20 19" fill="none" xmlns="http://www.w3.org/2000/svg">
<path fill-rule="evenodd" clip-rule="evenodd" d="M9.74219 0.549805C4.60059 0.549805 0.464111 4.66652 0.464111 9.78357C0.464111 13.8618 3.13156 17.3245 6.80413 18.5556C7.26803 18.6326 7.42267 18.3633 7.42267 18.094C7.42267 17.8631 7.42267 17.286 7.42267 16.5165C4.83254 17.0936 4.29132 15.2854 4.29132 15.2854C3.86607 14.2081 3.24753 13.9388 3.24753 13.9388C2.39704 13.3617 3.32485 13.3617 3.32485 13.3617C4.25266 13.4386 4.75522 14.3235 4.75522 14.3235C5.56705 15.747 6.92011 15.3238 7.46133 15.093C7.53864 14.4774 7.7706 14.0927 8.04121 13.8618C5.9923 13.631 3.82741 12.823 3.82741 9.28341C3.82741 8.28308 4.17534 7.43665 4.79388 6.82107C4.71656 6.59023 4.36863 5.66685 4.8712 4.35873C4.8712 4.35873 5.64437 4.12789 7.42267 5.32058C8.15718 5.12821 8.96902 5.01279 9.74219 5.01279C10.5154 5.01279 11.3272 5.12821 12.0617 5.32058C13.84 4.12789 14.6132 4.35873 14.6132 4.35873C15.1157 5.62838 14.8065 6.55175 14.6905 6.82107C15.2704 7.47513 15.657 8.28308 15.657 9.28341C15.657 12.823 13.4921 13.5925 11.4045 13.8233C11.7524 14.0927 12.023 14.6698 12.023 15.5162C12.023 16.7474 12.023 17.7477 12.023 18.0555C12.023 18.2863 12.1777 18.5941 12.6802 18.5172C16.3528 17.3245 19.0203 13.8618 19.0203 9.78357C19.0203 4.66652 14.8838 0.549805 9.74219 0.549805Z" fill="black"/>
</svg>
