<svg width="21" height="20" viewBox="0 0 21 20" fill="none" xmlns="http://www.w3.org/2000/svg">
<path d="M10.4272 2.28921C13.0169 2.28921 13.3236 2.29886 14.3467 2.34529C14.9618 2.35278 15.5711 2.46519 16.148 2.67763C16.5664 2.83821 16.9464 3.08421 17.2635 3.39978C17.5805 3.71535 17.8277 4.0935 17.9891 4.50989C18.2025 5.08407 18.3155 5.69043 18.323 6.30261C18.3692 7.32079 18.3794 7.62601 18.3794 10.2034C18.3794 12.7808 18.3697 13.086 18.323 14.1042C18.3155 14.7164 18.2025 15.3227 17.9891 15.8969C17.8277 16.3133 17.5805 16.6915 17.2635 17.007C16.9464 17.3226 16.5664 17.5686 16.148 17.7292C15.5711 17.9416 14.9618 18.054 14.3467 18.0615C13.3241 18.1075 13.0174 18.1176 10.4272 18.1176C7.83696 18.1176 7.53028 18.1079 6.50768 18.0615C5.89256 18.054 5.28329 17.9416 4.70635 17.7292C4.28796 17.5686 3.90799 17.3226 3.59091 17.007C3.27383 16.6915 3.02665 16.3133 2.8653 15.8969C2.65184 15.3227 2.53889 14.7164 2.53136 14.1042C2.48517 13.086 2.47501 12.7808 2.47501 10.2034C2.47501 7.62601 2.48471 7.32079 2.53136 6.30261C2.53889 5.69043 2.65184 5.08407 2.8653 4.50989C3.02665 4.0935 3.27383 3.71535 3.59091 3.39978C3.90799 3.08421 4.28796 2.83821 4.70635 2.67763C5.28329 2.46519 5.89256 2.35278 6.50768 2.34529C7.53074 2.29932 7.83743 2.28921 10.4272 2.28921ZM10.4272 0.549805C7.79447 0.549805 7.46284 0.560837 6.42823 0.607723C5.6232 0.623659 4.82671 0.775357 4.07265 1.05636C3.42579 1.29892 2.83989 1.67902 2.35585 2.17015C1.86191 2.65206 1.47966 3.23549 1.23579 3.87968C0.953433 4.63014 0.801008 5.42282 0.784995 6.22401C0.738807 7.25276 0.727722 7.5828 0.727722 10.2029C0.727722 12.8231 0.738807 13.1531 0.785919 14.1828C0.801931 14.984 0.954357 15.7767 1.23671 16.5271C1.48031 17.1712 1.86225 17.7546 2.35585 18.2366C2.84016 18.7279 3.42638 19.108 4.07357 19.3504C4.82764 19.6314 5.62412 19.7831 6.42916 19.7991C7.46377 19.845 7.79401 19.857 10.4281 19.857C13.0622 19.857 13.3924 19.846 14.4271 19.7991C15.2321 19.7831 16.0286 19.6314 16.7826 19.3504C17.4268 19.1019 18.0117 18.7224 18.5 18.2361C18.9883 17.7498 19.3693 17.1674 19.6186 16.5262C19.9009 15.7757 20.0534 14.9831 20.0694 14.1819C20.1156 13.1531 20.1266 12.8231 20.1266 10.2029C20.1266 7.5828 20.1156 7.25276 20.0684 6.22309C20.0524 5.4219 19.9 4.62922 19.6177 3.87876C19.3741 3.23465 18.9921 2.65123 18.4985 2.16923C18.0142 1.67799 17.428 1.29788 16.7808 1.05545C16.0267 0.774438 15.2302 0.62274 14.4252 0.606804C13.3915 0.560837 13.0599 0.549805 10.4272 0.549805Z" fill="black"/>
<path d="M10.4254 5.24609C9.4403 5.24609 8.47729 5.53682 7.65818 6.08152C6.83908 6.62621 6.20066 7.40041 5.82367 8.3062C5.44668 9.212 5.34804 10.2087 5.54023 11.1703C5.73242 12.1319 6.2068 13.0152 6.90339 13.7084C7.59999 14.4017 8.4875 14.8738 9.4537 15.0651C10.4199 15.2563 11.4214 15.1582 12.3315 14.783C13.2417 14.4078 14.0196 13.7724 14.5669 12.9572C15.1142 12.142 15.4063 11.1836 15.4063 10.2032C15.4063 8.8885 14.8816 7.62764 13.9475 6.698C13.0134 5.76836 11.7464 5.24609 10.4254 5.24609ZM10.4254 13.4209C9.78597 13.4209 9.16087 13.2322 8.62918 12.8786C8.09749 12.5251 7.68309 12.0225 7.43838 11.4346C7.19367 10.8466 7.12964 10.1996 7.2544 9.57546C7.37915 8.95129 7.68708 8.37795 8.13924 7.92794C8.59141 7.47794 9.1675 7.17148 9.79467 7.04732C10.4218 6.92317 11.0719 6.98689 11.6627 7.23043C12.2535 7.47397 12.7584 7.88639 13.1137 8.41554C13.469 8.94469 13.6586 9.56681 13.6586 10.2032C13.6586 11.0566 13.3179 11.875 12.7116 12.4785C12.1053 13.0819 11.2829 13.4209 10.4254 13.4209Z" fill="black"/>
<path d="M15.6038 6.20835C16.2466 6.20835 16.7678 5.68973 16.7678 5.04998C16.7678 4.41022 16.2466 3.8916 15.6038 3.8916C14.961 3.8916 14.4399 4.41022 14.4399 5.04998C14.4399 5.68973 14.961 6.20835 15.6038 6.20835Z" fill="black"/>
</svg>
