<svg width="16" height="14" viewBox="0 0 16 14" fill="none" xmlns="http://www.w3.org/2000/svg">
<path d="M15.9991 1.90389C15.3991 2.16926 14.7658 2.33513 14.0992 2.43464C14.7658 2.03657 15.2991 1.4063 15.5325 0.643339C14.8992 1.00823 14.1992 1.27361 13.4326 1.43947C12.8326 0.8092 11.966 0.411133 11.0327 0.411133C9.23282 0.411133 7.76623 1.87071 7.76623 3.66202C7.76623 3.9274 7.79957 4.1596 7.86623 4.39181C5.16638 4.25912 2.73318 2.9654 1.09994 0.975062C0.833287 1.47265 0.666629 2.0034 0.666629 2.6005C0.666629 3.72836 1.23326 4.72353 2.13321 5.32063C1.59991 5.28746 1.09994 5.15477 0.633298 4.92256V4.95574C0.633298 6.54801 1.76657 7.8749 3.26648 8.17345C2.99983 8.23979 2.69985 8.27296 2.39987 8.27296C2.19988 8.27296 1.96656 8.23979 1.76657 8.20662C2.19988 9.50034 3.39981 10.4623 4.83306 10.4623C3.69979 11.3248 2.29987 11.8556 0.766624 11.8556C0.499972 11.8556 0.23332 11.8556 0 11.8224C1.46658 12.7512 3.16649 13.282 5.03305 13.282C11.066 13.282 14.3659 8.30614 14.3659 3.99374C14.3659 3.86105 14.3659 3.69519 14.3659 3.5625C14.9992 3.13126 15.5658 2.56733 15.9991 1.90389Z" fill="black"/>
</svg>
