<svg width="168" height="40" viewBox="0 0 168 40" fill="none" xmlns="http://www.w3.org/2000/svg">
<path fill-rule="evenodd" clip-rule="evenodd" d="M8.55273 3.59787C7.12207 4.59823 5.82837 5.78098 4.70532 7.1124C9.29462 6.68633 15.1252 7.38204 21.8944 10.7667C29.123 14.3809 34.9438 14.5031 38.9948 13.7217C38.6272 12.6088 38.1644 11.5392 37.6163 10.5224C32.979 11.0115 27.034 10.3641 20.1056 6.89998C15.706 4.70018 11.8278 3.79401 8.55273 3.59787ZM34.9074 6.66665C31.2453 2.575 25.9234 0 20 0C18.2605 0 16.5727 0.222107 14.9637 0.63948C17.1429 1.23409 19.4579 2.10399 21.8944 3.32227C26.967 5.85853 31.3464 6.67516 34.9074 6.66665ZM39.8609 17.6281C34.9669 18.5945 28.2088 18.396 20.1056 14.3444C12.53 10.5566 6.50043 10.6043 2.4339 11.508C2.224 11.5546 2.01904 11.6036 1.81903 11.6546C1.28662 12.8125 0.861634 14.0301 0.556702 15.2945C0.882386 15.2075 1.21893 15.1248 1.56616 15.0476C6.49957 13.9513 13.4701 13.9989 21.8944 18.2111C29.4701 21.9989 35.4996 21.9512 39.5662 21.0475C39.7055 21.0166 39.8428 20.9846 39.9778 20.9516C39.9926 20.6363 40 20.319 40 20C40 19.1975 39.9528 18.406 39.8609 17.6281ZM39.3248 25.1723C34.4783 26.0196 27.917 25.6944 20.1056 21.7888C12.53 18.001 6.50043 18.0487 2.4339 18.9524C1.53125 19.1529 0.719239 19.3972 0.00293 19.6551C0.000977 19.7698 0 19.8848 0 20C0 31.0457 8.95429 40 20 40C29.2571 40 37.0453 33.7109 39.3248 25.1723Z" fill="#2C4BFF"/>
<path d="M42 28.58H53.952V24.98H46.248V11.42H42V28.58Z" fill="black"/>
<path d="M62.504 23.72C60.8 23.72 59.912 22.232 59.912 20C59.912 17.768 60.8 16.256 62.504 16.256C64.208 16.256 65.12 17.768 65.12 20C65.12 22.232 64.208 23.72 62.504 23.72ZM62.528 26.504C66.488 26.504 69.08 23.696 69.08 20C69.08 16.304 66.488 13.496 62.528 13.496C58.592 13.496 55.952 16.304 55.952 20C55.952 23.696 58.592 26.504 62.528 26.504Z" fill="black"/>
<path d="M77.344 28.448C79.168 28.448 80.776 28.04 81.856 27.08C82.84 26.192 83.488 24.848 83.488 23V11.912H79.744V13.232H79.696C78.976 12.2 77.872 11.552 76.24 11.552C73.192 11.552 71.08 14.096 71.08 17.696C71.08 21.464 73.648 23.528 76.408 23.528C77.896 23.528 78.832 22.928 79.552 22.112H79.648V23.336C79.648 24.824 78.952 25.688 77.296 25.688C76 25.688 75.352 25.136 75.136 24.488H71.344C71.728 27.056 73.96 28.448 77.344 28.448ZM77.32 20.624C75.856 20.624 74.896 19.424 74.896 17.576C74.896 15.704 75.856 14.504 77.32 14.504C78.952 14.504 79.816 15.896 79.816 17.552C79.816 19.28 79.024 20.624 77.32 20.624Z" fill="black"/>
<path d="M92.0399 23.72C90.3359 23.72 89.448 22.232 89.448 20C89.448 17.768 90.3359 16.256 92.0399 16.256C93.7439 16.256 94.6559 17.768 94.6559 20C94.6559 22.232 93.7439 23.72 92.0399 23.72ZM92.0639 26.504C96.0239 26.504 98.6162 23.696 98.6162 20C98.6162 16.304 96.0239 13.496 92.0639 13.496C88.1279 13.496 85.4879 16.304 85.4879 20C85.4879 23.696 88.1279 26.504 92.0639 26.504Z" fill="black"/>
<path d="M100.616 28.58H104.528V16.292H100.616V28.58ZM100.616 14.588H104.528V11.42H100.616V14.588Z" fill="black"/>
<path d="M106.528 28.352H110.44V23.024H110.488C111.256 24.056 112.384 24.68 113.968 24.68C117.184 24.68 119.32 22.1359 119.32 18.1519C119.32 14.4559 117.328 11.6479 114.064 11.6479C112.384 11.6479 111.184 12.392 110.344 13.496H110.272V12.0079H106.528V28.352ZM112.96 21.656C111.28 21.656 110.32 20.2879 110.32 18.2959C110.32 16.3039 111.184 14.792 112.888 14.792C114.568 14.792 115.36 16.1839 115.36 18.2959C115.36 20.384 114.448 21.656 112.96 21.656Z" fill="black"/>
<path d="M127.296 26.516C130.512 26.516 132.888 25.124 132.888 22.436C132.888 19.292 130.344 18.74 128.184 18.38C126.624 18.092 125.232 17.972 125.232 17.108C125.232 16.34 125.976 15.98 126.936 15.98C128.016 15.98 128.76 16.316 128.904 17.42H132.504C132.312 14.996 130.44 13.484 126.96 13.484C124.056 13.484 121.656 14.828 121.656 17.42C121.656 20.3 123.936 20.876 126.072 21.236C127.704 21.524 129.192 21.644 129.192 22.748C129.192 23.54 128.448 23.972 127.272 23.972C125.976 23.972 125.16 23.372 125.016 22.148H121.32C121.44 24.86 123.696 26.516 127.296 26.516Z" fill="black"/>
<path d="M139.208 26.324C140.912 26.324 141.992 25.652 142.88 24.452H142.952V25.964H146.696V13.676H142.784V20.54C142.784 22.004 141.968 23.012 140.624 23.012C139.376 23.012 138.776 22.268 138.776 20.924V13.676H134.888V21.74C134.888 24.476 136.376 26.324 139.208 26.324Z" fill="black"/>
<path d="M148.696 26.324H152.608V19.436C152.608 17.972 153.328 16.94 154.552 16.94C155.728 16.94 156.28 17.708 156.28 19.028V26.324H160.192V19.436C160.192 17.972 160.888 16.94 162.136 16.94C163.312 16.94 163.864 17.708 163.864 19.028V26.324H167.776V18.332C167.776 15.572 166.384 13.676 163.6 13.676C162.016 13.676 160.696 14.348 159.736 15.836H159.688C159.064 14.516 157.84 13.676 156.232 13.676C154.456 13.676 153.28 14.516 152.512 15.788H152.44V14.036H148.696V26.324Z" fill="black"/>
</svg>
