<svg width="100" height="48" viewBox="0 0 100 48" fill="none" xmlns="http://www.w3.org/2000/svg">
<path d="M0 41.8475C0.208856 40.0675 0.104428 38.2875 0.522141 36.6122C1.14871 34.204 1.98414 31.7957 3.23727 29.5969C10.8605 15.9851 21.9299 5.93335 36.8631 1.7451C52.1096 -2.44314 66.5207 0.907445 78.53 11.7969C84.5868 17.2416 89.1816 23.8381 92.7322 31.1675C93.3588 32.5287 93.9853 33.7852 95.134 35.984C96.4916 32.9475 97.5359 30.644 98.5802 28.2357C98.8935 28.3404 99.2067 28.3405 99.6245 28.4452C99.7289 29.1781 100.042 29.911 99.9377 30.644C99.6245 34.3087 99.2067 37.9734 98.789 41.6381C98.4757 44.0464 98.2669 46.5593 95.6562 47.6064C92.941 48.7581 90.6436 47.1876 88.8684 45.4076C86.4665 42.8946 84.2735 40.0675 82.185 37.2405C81.7672 36.6122 82.185 35.4605 82.185 34.5181C83.1248 34.5181 84.2735 34.204 84.9001 34.6228C86.7798 35.984 88.3462 37.6593 90.1215 39.3346C90.2259 39.0205 90.4348 38.8111 90.3303 38.7064C82.185 15.671 65.4764 1.95452 41.6668 4.36276C40.5181 4.46746 39.3694 4.67687 38.2207 5.0957C22.2432 10.2263 10.4428 20.1734 3.23727 35.4605C2.29742 37.4499 1.87971 39.7534 1.25314 41.9522C0.835424 41.9522 0.417713 41.8475 0 41.8475Z" fill="#8094FF"/>
</svg>
