<svg width="232" height="282" viewBox="0 0 232 282" fill="none" xmlns="http://www.w3.org/2000/svg">
<path d="M8.19486e-05 239.495C29.2523 244.548 99.0384 208.784 133.438 172.13C170.706 132.597 184.209 104.012 197.537 35.3377C200.434 38.4869 202.529 41.3139 204.826 43.5048C207.338 46.1131 210.02 48.8448 213.03 50.7692C213.878 51.3855 216.523 50.956 217.438 50.0534C218.353 49.1508 218.407 46.5781 217.807 45.6199C211.896 36.6257 205.737 27.9735 199.533 19.0271C197.438 16.2 194.657 15.7468 191.697 18.0372C180.91 27.1788 169.953 36.1972 159.211 45.6331C156.839 47.828 155.282 51.3987 152.798 54.8184C162.083 57.3828 165.705 50.6112 170.801 47.5215C176.19 44.3842 180.979 40.2885 187.362 35.7833C186.558 56.8773 182.066 75.5539 174.747 93.483C148.178 159.33 99.3823 202.243 34.0961 227.172C25.5524 230.369 16.7025 232.56 8.11331 235.463C5.89872 236.727 3.80831 237.821 8.19486e-05 239.495Z" fill="#8094FF"/>
</svg>
