<svg width="100" height="48" viewBox="0 0 100 48" fill="none" xmlns="http://www.w3.org/2000/svg">
<path d="M0 41.8475C0.208608 40.0675 0.104304 38.2875 0.52152 36.6122C1.14734 34.204 1.98178 31.7957 3.23343 29.5969C10.8476 15.9851 21.9039 5.93335 36.8193 1.7451C52.0477 -2.44314 66.4417 0.907445 78.4367 11.7969C84.4863 17.2416 89.0757 23.8381 92.622 31.1675C93.2478 32.5287 93.8737 33.7852 95.021 35.984C96.377 32.9475 97.42 30.644 98.4631 28.2357C98.776 28.3404 99.0889 28.3405 99.5061 28.4452C99.6104 29.1781 99.9233 29.911 99.819 30.644C99.5061 34.3087 99.0889 37.9734 98.6717 41.6381C98.3587 44.0464 98.1501 46.5593 95.5425 47.6064C92.8306 48.7581 90.5359 47.1876 88.7628 45.4076C86.3638 42.8946 84.1734 40.0675 82.0873 37.2405C81.6701 36.6122 82.0873 35.4605 82.0873 34.5181C83.026 34.5181 84.1734 34.204 84.7992 34.6228C86.6767 35.984 88.2412 37.6593 90.0144 39.3346C90.1187 39.0205 90.3273 38.8111 90.223 38.7064C82.0873 15.671 65.3987 1.95452 41.6173 4.36276C40.47 4.46746 39.3226 4.67687 38.1753 5.0957C22.2168 10.2263 10.4304 20.1734 3.23343 35.4605C2.29469 37.4499 1.87747 39.7534 1.25165 41.9522C0.834431 41.9522 0.417216 41.8475 0 41.8475Z" fill="#8094FF"/>
</svg>
