<svg width="100" height="48" viewBox="0 0 100 48" fill="none" xmlns="http://www.w3.org/2000/svg">
<path d="M0 6.15247C0.208856 7.93247 0.104428 9.71247 0.522141 11.3878C1.14871 13.796 1.98414 16.2043 3.23727 18.4031C10.8605 32.0149 21.9299 42.0667 36.8631 46.2549C52.1096 50.4431 66.5207 47.0926 78.53 36.2031C84.5868 30.7584 89.1816 24.1619 92.7322 16.8325C93.3588 15.4713 93.9853 14.2148 95.134 12.016C96.4916 15.0525 97.5359 17.356 98.5802 19.7643C98.8935 19.6596 99.2067 19.6595 99.6245 19.5548C99.7289 18.8219 100.042 18.089 99.9377 17.356C99.6245 13.6913 99.2067 10.0266 98.789 6.36187C98.4757 3.95363 98.2669 1.44069 95.6562 0.393627C92.941 -0.758141 90.6436 0.812443 88.8684 2.59245C86.4665 5.1054 84.2735 7.93246 82.185 10.7595C81.7672 11.3878 82.185 12.5395 82.185 13.4819C83.1248 13.4819 84.2735 13.796 84.9001 13.3772C86.7798 12.016 88.3462 10.3407 90.1215 8.66541C90.2259 8.97952 90.4348 9.18894 90.3303 9.29365C82.185 32.329 65.4764 46.0455 41.6668 43.6372C40.5181 43.5325 39.3694 43.3231 38.2207 42.9043C22.2432 37.7737 10.4428 27.8266 3.23727 12.5395C2.29742 10.5501 1.87971 8.24658 1.25314 6.04775C0.835424 6.04775 0.417713 6.15247 0 6.15247Z" fill="#8094FF"/>
</svg>
