<svg width="254" height="81" viewBox="0 0 254 81" fill="none" xmlns="http://www.w3.org/2000/svg">
<path d="M10 37.8249C24.2568 56.3978 83.8412 72.9833 123.386 70.1288C166.133 67.1395 189.249 57.7883 233.701 25.1013C233.696 28.4765 233.399 31.2355 233.559 33.7341C233.621 36.5899 233.715 39.608 234.43 42.3329C234.593 43.144 236.356 44.3095 237.369 44.2754C238.382 44.2413 239.789 42.7786 239.954 41.9021C241.337 33.5269 242.393 25.2172 243.58 16.7125C243.878 13.9535 242.508 12.2032 239.567 11.9483C228.424 11.4794 217.249 10.8482 205.975 10.5742C203.426 10.5783 200.614 11.816 197.346 12.4704C201.357 18.9221 207.078 16.9333 211.685 17.8671C216.487 18.9303 221.454 19.1171 227.564 19.9186C215.817 31.718 203.225 40.1437 189.394 46.6241C138.777 70.591 87.5385 69.375 36.3574 48.9141C29.6945 46.1987 23.392 42.7363 16.86 39.826C14.8998 39.3748 13.1031 38.8909 10 37.8249Z" fill="#8094FF"/>
</svg>
