<svg width="178" height="178" viewBox="0 0 178 178" fill="none" xmlns="http://www.w3.org/2000/svg">
<rect width="178" height="178" rx="89" fill="#EAEDFF"/>
<path d="M53.4335 96L50.3535 90.56H49.0335V96H46.2335V82.04H51.4735C52.5535 82.04 53.4735 82.2333 54.2335 82.62C54.9935 82.9933 55.5602 83.5067 55.9335 84.16C56.3202 84.8 56.5135 85.52 56.5135 86.32C56.5135 87.24 56.2468 88.0733 55.7135 88.82C55.1802 89.5533 54.3868 90.06 53.3335 90.34L56.6735 96H53.4335ZM49.0335 88.46H51.3735C52.1335 88.46 52.7002 88.28 53.0735 87.92C53.4468 87.5467 53.6335 87.0333 53.6335 86.38C53.6335 85.74 53.4468 85.2467 53.0735 84.9C52.7002 84.54 52.1335 84.36 51.3735 84.36H49.0335V88.46ZM68.346 90.22C68.346 90.62 68.3193 90.98 68.266 91.3H60.166C60.2327 92.1 60.5127 92.7267 61.006 93.18C61.4993 93.6333 62.106 93.86 62.826 93.86C63.866 93.86 64.606 93.4133 65.046 92.52H68.066C67.746 93.5867 67.1327 94.4667 66.226 95.16C65.3193 95.84 64.206 96.18 62.886 96.18C61.8193 96.18 60.8593 95.9467 60.006 95.48C59.166 95 58.506 94.3267 58.026 93.46C57.5593 92.5933 57.326 91.5933 57.326 90.46C57.326 89.3133 57.5593 88.3067 58.026 87.44C58.4927 86.5733 59.146 85.9067 59.986 85.44C60.826 84.9733 61.7927 84.74 62.886 84.74C63.9393 84.74 64.8793 84.9667 65.706 85.42C66.546 85.8733 67.1927 86.52 67.646 87.36C68.1127 88.1867 68.346 89.14 68.346 90.22ZM65.446 89.42C65.4327 88.7 65.1727 88.1267 64.666 87.7C64.1593 87.26 63.5393 87.04 62.806 87.04C62.1127 87.04 61.526 87.2533 61.046 87.68C60.5793 88.0933 60.2927 88.6733 60.186 89.42H65.446ZM73.6298 96.18C72.7231 96.18 71.9098 96.02 71.1898 95.7C70.4698 95.3667 69.8964 94.92 69.4698 94.36C69.0564 93.8 68.8298 93.18 68.7898 92.5H71.6098C71.6631 92.9267 71.8698 93.28 72.2298 93.56C72.6031 93.84 73.0631 93.98 73.6098 93.98C74.1431 93.98 74.5564 93.8733 74.8498 93.66C75.1564 93.4467 75.3098 93.1733 75.3098 92.84C75.3098 92.48 75.1231 92.2133 74.7498 92.04C74.3898 91.8533 73.8098 91.6533 73.0098 91.44C72.1831 91.24 71.5031 91.0333 70.9698 90.82C70.4498 90.6067 69.9964 90.28 69.6098 89.84C69.2364 89.4 69.0498 88.8067 69.0498 88.06C69.0498 87.4467 69.2231 86.8867 69.5698 86.38C69.9298 85.8733 70.4364 85.4733 71.0898 85.18C71.7564 84.8867 72.5364 84.74 73.4298 84.74C74.7498 84.74 75.8031 85.0733 76.5898 85.74C77.3764 86.3933 77.8098 87.28 77.8898 88.4H75.2098C75.1698 87.96 74.9831 87.6133 74.6498 87.36C74.3298 87.0933 73.8964 86.96 73.3498 86.96C72.8431 86.96 72.4498 87.0533 72.1698 87.24C71.9031 87.4267 71.7698 87.6867 71.7698 88.02C71.7698 88.3933 71.9564 88.68 72.3298 88.88C72.7031 89.0667 73.2831 89.26 74.0698 89.46C74.8698 89.66 75.5298 89.8667 76.0498 90.08C76.5698 90.2933 77.0164 90.6267 77.3898 91.08C77.7764 91.52 77.9764 92.1067 77.9898 92.84C77.9898 93.48 77.8098 94.0533 77.4498 94.56C77.1031 95.0667 76.5964 95.4667 75.9298 95.76C75.2764 96.04 74.5098 96.18 73.6298 96.18ZM89.5882 90.22C89.5882 90.62 89.5615 90.98 89.5082 91.3H81.4082C81.4749 92.1 81.7549 92.7267 82.2482 93.18C82.7415 93.6333 83.3482 93.86 84.0682 93.86C85.1082 93.86 85.8482 93.4133 86.2882 92.52H89.3082C88.9882 93.5867 88.3749 94.4667 87.4682 95.16C86.5615 95.84 85.4482 96.18 84.1282 96.18C83.0615 96.18 82.1015 95.9467 81.2482 95.48C80.4082 95 79.7482 94.3267 79.2682 93.46C78.8015 92.5933 78.5682 91.5933 78.5682 90.46C78.5682 89.3133 78.8015 88.3067 79.2682 87.44C79.7349 86.5733 80.3882 85.9067 81.2282 85.44C82.0682 84.9733 83.0349 84.74 84.1282 84.74C85.1815 84.74 86.1215 84.9667 86.9482 85.42C87.7882 85.8733 88.4349 86.52 88.8882 87.36C89.3549 88.1867 89.5882 89.14 89.5882 90.22ZM86.6882 89.42C86.6749 88.7 86.4149 88.1267 85.9082 87.7C85.4015 87.26 84.7815 87.04 84.0482 87.04C83.3549 87.04 82.7682 87.2533 82.2882 87.68C81.8215 88.0933 81.5349 88.6733 81.4282 89.42H86.6882ZM89.912 90.42C89.912 89.3 90.132 88.3067 90.572 87.44C91.0253 86.5733 91.632 85.9067 92.392 85.44C93.1653 84.9733 94.0253 84.74 94.972 84.74C95.7986 84.74 96.5186 84.9067 97.132 85.24C97.7586 85.5733 98.2586 85.9933 98.632 86.5V84.92H101.452V96H98.632V94.38C98.272 94.9 97.772 95.3333 97.132 95.68C96.5053 96.0133 95.7786 96.18 94.952 96.18C94.0186 96.18 93.1653 95.94 92.392 95.46C91.632 94.98 91.0253 94.3067 90.572 93.44C90.132 92.56 89.912 91.5533 89.912 90.42ZM98.632 90.46C98.632 89.78 98.4986 89.2 98.232 88.72C97.9653 88.2267 97.6053 87.8533 97.152 87.6C96.6986 87.3333 96.212 87.2 95.692 87.2C95.172 87.2 94.692 87.3267 94.252 87.58C93.812 87.8333 93.452 88.2067 93.172 88.7C92.9053 89.18 92.772 89.7533 92.772 90.42C92.772 91.0867 92.9053 91.6733 93.172 92.18C93.452 92.6733 93.812 93.0533 94.252 93.32C94.7053 93.5867 95.1853 93.72 95.692 93.72C96.212 93.72 96.6986 93.5933 97.152 93.34C97.6053 93.0733 97.9653 92.7 98.232 92.22C98.4986 91.7267 98.632 91.14 98.632 90.46ZM105.987 86.64C106.347 86.0533 106.813 85.5933 107.387 85.26C107.973 84.9267 108.64 84.76 109.387 84.76V87.7H108.647C107.767 87.7 107.1 87.9067 106.647 88.32C106.207 88.7333 105.987 89.4533 105.987 90.48V96H103.187V84.92H105.987V86.64ZM109.553 90.46C109.553 89.3133 109.786 88.3133 110.253 87.46C110.719 86.5933 111.366 85.9267 112.193 85.46C113.019 84.98 113.966 84.74 115.033 84.74C116.406 84.74 117.539 85.0867 118.433 85.78C119.339 86.46 119.946 87.42 120.253 88.66H117.233C117.073 88.18 116.799 87.8067 116.413 87.54C116.039 87.26 115.573 87.12 115.013 87.12C114.213 87.12 113.579 87.4133 113.113 88C112.646 88.5733 112.413 89.3933 112.413 90.46C112.413 91.5133 112.646 92.3333 113.113 92.92C113.579 93.4933 114.213 93.78 115.013 93.78C116.146 93.78 116.886 93.2733 117.233 92.26H120.253C119.946 93.46 119.339 94.4133 118.433 95.12C117.526 95.8267 116.393 96.18 115.033 96.18C113.966 96.18 113.019 95.9467 112.193 95.48C111.366 95 110.719 94.3333 110.253 93.48C109.786 92.6133 109.553 91.6067 109.553 90.46ZM127.544 84.76C128.384 84.76 129.13 84.9467 129.784 85.32C130.437 85.68 130.944 86.22 131.304 86.94C131.677 87.6467 131.864 88.5 131.864 89.5V96H129.064V89.88C129.064 89 128.844 88.3267 128.404 87.86C127.964 87.38 127.364 87.14 126.604 87.14C125.83 87.14 125.217 87.38 124.764 87.86C124.324 88.3267 124.104 89 124.104 89.88V96H121.304V81.2H124.104V86.3C124.464 85.82 124.944 85.4467 125.544 85.18C126.144 84.9 126.81 84.76 127.544 84.76Z" fill="#5670FF"/>
</svg>
