<svg width="400" height="400" viewBox="0 0 400 400" fill="none" xmlns="http://www.w3.org/2000/svg">
<path d="M224.328 373.744C239.993 373.357 255.345 369.27 269.128 361.816C354.728 316.016 416.408 205.256 373.32 111.272C353.384 67.8321 313.488 22.0801 262.632 19.0081C221.384 16.5201 181.368 37.0001 146.464 56.6081C124.52 68.9681 103.264 83.8641 79.9521 93.5441C49.6801 106.144 12.8001 125.288 12.0001 162.848C10.8881 214.048 43.1521 259.304 75.1361 296.296C109.832 336.432 156.528 370.064 211.064 373.512C215.472 373.792 219.904 373.872 224.328 373.744Z" fill="#EAEDFF"/>
<path opacity="0.7" d="M224.328 373.744C239.993 373.357 255.345 369.27 269.128 361.816C354.728 316.016 416.408 205.256 373.32 111.272C353.384 67.8321 313.488 22.0801 262.632 19.0081C221.384 16.5201 181.368 37.0001 146.464 56.6081C124.52 68.9681 103.264 83.8641 79.9521 93.5441C49.6801 106.144 12.8001 125.288 12.0001 162.848C10.8881 214.048 43.1521 259.304 75.1361 296.296C109.832 336.432 156.528 370.064 211.064 373.512C215.472 373.792 219.904 373.872 224.328 373.744Z" fill="#EAEDFF"/>
<path d="M20.1201 372H381.72" stroke="black" stroke-linecap="round" stroke-linejoin="round"/>
<g opacity="0.3">
<path d="M132.936 22.4C132.936 22.4 131.632 12.944 123.152 11.312C114.672 9.68001 111.736 15.224 110.76 20.44C109.784 25.656 105.864 24.032 101.96 22.728C98.056 21.424 92.832 24.328 90.544 29.248C88.256 34.168 88.264 34.792 81.744 34.144C75.224 33.496 73.264 33.816 71.344 37.728C69.424 41.64 69.544 41.152 69.544 41.152H152.344C152.344 41.152 152.8 32.536 148.92 29.6C145.04 26.664 139.464 29.928 136.528 28.296C133.592 26.664 132.936 22.4 132.936 22.4Z" stroke="black" stroke-miterlimit="10"/>
</g>
<g opacity="0.3">
<path d="M298.64 47.2001C298.64 47.2001 297.976 42.3521 293.624 41.5201C289.272 40.6881 287.776 43.5281 287.272 46.2001C286.768 48.8721 284.8 48.0001 282.76 47.3361C280.72 46.6721 278.08 48.1361 276.912 50.6801C275.744 53.2241 275.744 53.5201 272.4 53.1841C269.056 52.8481 268.048 53.0241 267.048 55.0241C266.048 57.0241 266.128 56.7841 266.128 56.7841H308.584C308.584 56.7841 308.84 52.3521 306.832 50.8481C304.824 49.3441 301.984 51.0161 300.48 50.1761C298.976 49.3361 298.64 47.2001 298.64 47.2001Z" stroke="black" stroke-miterlimit="10"/>
</g>
<g opacity="0.3">
<path d="M132.68 112.992C132.68 112.992 132.016 108.144 127.672 107.304C123.328 106.464 121.816 109.312 121.32 111.992C120.824 114.672 118.808 113.824 116.8 113.16C114.792 112.496 112.12 113.96 110.952 116.504C109.784 119.048 109.784 119.344 106.44 119.008C103.096 118.672 102.096 118.84 101.088 120.848C100.08 122.856 100.168 122.6 100.168 122.6H142.632C142.632 122.6 142.88 118.176 140.872 116.672C138.864 115.168 136.024 116.832 134.52 116C133.016 115.168 132.68 112.992 132.68 112.992Z" stroke="black" stroke-miterlimit="10"/>
</g>
<g opacity="0.3">
<path d="M357.376 159.2C357.376 159.2 356.704 154.352 352.36 153.512C348.016 152.672 346.512 155.52 346.008 158.192C345.504 160.864 343.504 160.032 341.496 159.36C339.488 158.688 336.816 160.2 335.648 162.704C334.48 165.208 334.472 165.552 331.128 165.216C327.784 164.88 326.784 165.048 325.784 167.056C324.784 169.064 324.864 168.808 324.864 168.808H367.32C367.32 168.808 367.576 164.376 365.568 162.872C363.56 161.368 360.72 163.04 359.216 162.208C357.712 161.376 357.376 159.2 357.376 159.2Z" stroke="black" stroke-miterlimit="10"/>
</g>
<g opacity="0.3">
<path d="M74.2879 164.096C74.2879 164.096 73.0559 155.2 65.0559 153.6C57.0559 152 54.2799 157.296 53.3519 162.216C52.4239 167.136 48.7359 165.608 45.0399 164.376C41.3439 163.144 36.4159 165.912 34.2639 170.536C32.1119 175.16 32.1039 175.768 25.9519 175.152C19.7999 174.536 17.9519 174.84 16.0959 178.536C14.2399 182.232 14.3999 181.736 14.3999 181.736H92.6079C92.6079 181.736 93.0719 173.576 89.4079 170.808C85.7439 168.04 80.4799 171.12 77.7119 169.576C74.9439 168.032 74.2879 164.096 74.2879 164.096Z" stroke="black" stroke-miterlimit="10"/>
</g>
<g opacity="0.3">
<path d="M351.648 98.2559H306.184V145.176H351.648V98.2559Z" stroke="black" stroke-linecap="round" stroke-linejoin="round"/>
<path d="M347.776 105.512H310.048V111.32H347.776V105.512Z" stroke="black" stroke-linecap="round" stroke-linejoin="round"/>
<path d="M316.64 120H310.048V126.592H316.64V120Z" stroke="black" stroke-linecap="round" stroke-linejoin="round"/>
<path d="M327.184 120H320.592V126.592H327.184V120Z" stroke="black" stroke-linecap="round" stroke-linejoin="round"/>
<path d="M337.728 120H331.136V126.592H337.728V120Z" stroke="black" stroke-linecap="round" stroke-linejoin="round"/>
<path d="M348.264 120H341.672V126.592H348.264V120Z" stroke="black" stroke-linecap="round" stroke-linejoin="round"/>
<path d="M316.64 131.608H310.048V138.2H316.64V131.608Z" stroke="black" stroke-linecap="round" stroke-linejoin="round"/>
<path d="M327.184 131.608H320.592V138.2H327.184V131.608Z" stroke="black" stroke-linecap="round" stroke-linejoin="round"/>
<path d="M337.728 131.608H331.136V138.2H337.728V131.608Z" stroke="black" stroke-linecap="round" stroke-linejoin="round"/>
<path d="M348.264 131.608H341.672V138.2H348.264V131.608Z" stroke="black" stroke-linecap="round" stroke-linejoin="round"/>
<path d="M312.448 98.2559V90.8479H316.512V98.0159" stroke="black" stroke-linecap="round" stroke-linejoin="round"/>
<path d="M342.568 98.2559V90.8479H346.632V98.0159" stroke="black" stroke-linecap="round" stroke-linejoin="round"/>
<path d="M326.552 98.2559V90.8479H330.616V98.0159" stroke="black" stroke-linecap="round" stroke-linejoin="round"/>
</g>
<g opacity="0.3">
<path d="M32.488 109.464H22.344V135.832H32.488V109.464Z" stroke="black" stroke-miterlimit="10"/>
<path d="M45.3039 111.488H35.1599V135.832H45.3039V111.488Z" stroke="black" stroke-miterlimit="10"/>
<path d="M58.1201 105.408H47.9761V135.84H58.1201V105.408Z" stroke="black" stroke-miterlimit="10"/>
<path d="M70.936 89.176H60.792V135.832H70.936V89.176Z" stroke="black" stroke-miterlimit="10"/>
</g>
<g opacity="0.3">
<path d="M205.817 215.252C216.105 212.797 222.456 202.466 220.001 192.178C217.546 181.889 207.215 175.539 196.927 177.994C186.638 180.449 180.288 190.779 182.743 201.068C185.197 211.356 195.528 217.707 205.817 215.252Z" stroke="black" stroke-miterlimit="10"/>
<path d="M218.056 206.024C219.703 203.11 220.558 199.814 220.535 196.467C220.511 193.119 219.611 189.836 217.923 186.945C216.236 184.054 213.82 181.656 210.917 179.989C208.013 178.323 204.724 177.447 201.376 177.448V196.608L218.056 206.024Z" stroke="black" stroke-miterlimit="10"/>
<path d="M214.304 185.576L224.368 176.384H239.248" stroke="black" stroke-miterlimit="10"/>
<path d="M229.624 181.2H238.376" stroke="black" stroke-miterlimit="10"/>
<path d="M229.624 183.824H238.376" stroke="black" stroke-miterlimit="10"/>
<path d="M229.624 186.448H238.376" stroke="black" stroke-miterlimit="10"/>
</g>
<path d="M180.368 81.0081H167.52V107.376H180.368V81.0081Z" fill="#2C4BFF" stroke="black" stroke-linecap="round" stroke-linejoin="round"/>
<path d="M196.6 83.04H183.752V107.384H196.6V83.04Z" fill="#2C4BFF" stroke="black" stroke-linecap="round" stroke-linejoin="round"/>
<path d="M212.824 76.9521H199.976V107.384H212.824V76.9521Z" fill="#2C4BFF" stroke="black" stroke-linecap="round" stroke-linejoin="round"/>
<path d="M229.056 60.7202H216.208V107.376H229.056V60.7202Z" fill="#2C4BFF" stroke="black" stroke-linecap="round" stroke-linejoin="round"/>
<path d="M170.904 73.568L189.16 78.056L206.744 69.816L221.616 45.176" stroke="black" stroke-width="5" stroke-linecap="round" stroke-linejoin="round"/>
<path d="M214.184 46.7362L223.744 41.7922L223.416 51.3522" stroke="black" stroke-width="5" stroke-linecap="round" stroke-linejoin="round"/>
<path d="M189.16 79.9281C190.194 79.9281 191.032 79.09 191.032 78.0561C191.032 77.0222 190.194 76.1841 189.16 76.1841C188.126 76.1841 187.288 77.0222 187.288 78.0561C187.288 79.09 188.126 79.9281 189.16 79.9281Z" fill="#2C4BFF" stroke="black" stroke-linecap="round" stroke-linejoin="round"/>
<path d="M208.424 69.4802C208.424 69.1099 208.314 68.748 208.108 68.4401C207.903 68.1323 207.61 67.8923 207.268 67.7507C206.926 67.609 206.55 67.5719 206.187 67.6441C205.824 67.7164 205.49 67.8946 205.228 68.1565C204.966 68.4183 204.788 68.7518 204.716 69.1149C204.644 69.4781 204.681 69.8545 204.822 70.1965C204.964 70.5386 205.204 70.831 205.512 71.0367C205.82 71.2424 206.182 71.3522 206.552 71.3522C207.048 71.3522 207.525 71.1549 207.876 70.8039C208.227 70.4528 208.424 69.9766 208.424 69.4802Z" fill="#2C4BFF" stroke="black" stroke-linecap="round" stroke-linejoin="round"/>
<path d="M176.232 74.128C176.233 73.7558 176.125 73.3916 175.919 73.0814C175.713 72.7711 175.42 72.5289 175.077 72.3854C174.734 72.2419 174.355 72.2035 173.99 72.2751C173.625 72.3468 173.289 72.5252 173.025 72.7878C172.762 73.0504 172.582 73.3854 172.509 73.7503C172.435 74.1152 172.472 74.4936 172.614 74.8376C172.756 75.1816 172.997 75.4757 173.307 75.6826C173.616 75.8895 173.98 76 174.352 76C174.849 76 175.326 75.803 175.678 75.4522C176.031 75.1013 176.23 74.6252 176.232 74.128Z" fill="#2C4BFF" stroke="black" stroke-linecap="round" stroke-linejoin="round"/>
<path d="M225.072 42.4001C225.064 42.0317 224.948 41.6738 224.737 41.3712C224.527 41.0687 224.232 40.835 223.889 40.6994C223.546 40.5638 223.171 40.5324 222.811 40.6091C222.45 40.6858 222.121 40.8672 221.863 41.1305C221.605 41.3938 221.431 41.7274 221.362 42.0894C221.292 42.4514 221.332 42.8257 221.475 43.1654C221.617 43.5052 221.857 43.7952 222.164 43.9992C222.471 44.2032 222.831 44.312 223.2 44.3121C223.449 44.3122 223.696 44.2625 223.926 44.1659C224.155 44.0693 224.364 43.9278 224.538 43.7498C224.712 43.5717 224.849 43.3605 224.941 43.1288C225.033 42.897 225.077 42.6493 225.072 42.4001Z" fill="#2C4BFF" stroke="black" stroke-linecap="round" stroke-linejoin="round"/>
<path d="M23.0559 308.72C25.1919 309.648 30.4079 309.52 30.4159 309.52C30.4239 309.52 29.2879 306.104 29.1919 305.904C28.0479 303.504 24.3919 299.552 21.4799 299.952C20.9928 300.032 20.528 300.213 20.1158 300.485C19.7036 300.756 19.3532 301.111 19.0875 301.527C18.8218 301.943 18.6468 302.41 18.5738 302.898C18.5008 303.387 18.5315 303.885 18.6639 304.36C19.1519 306.4 21.2399 307.92 23.0559 308.72Z" fill="black"/>
<path d="M24.8558 323.824C27.0718 324.152 31.7278 322.8 32.0558 322.688C32.8237 325.353 33.7671 327.964 34.8798 330.504C35.5198 331.984 36.2158 333.456 36.9278 334.928C36.4958 334.304 36.1278 333.752 36.0558 333.68C34.3198 331.672 29.7838 328.816 27.0478 329.976C26.5986 330.182 26.1977 330.48 25.8712 330.851C25.5448 331.221 25.3 331.657 25.1528 332.128C25.0057 332.6 24.9595 333.097 25.0172 333.588C25.0749 334.079 25.2352 334.552 25.4878 334.976C26.4958 336.816 28.9198 337.72 30.8798 338.008C32.8398 338.296 36.8638 337.208 37.9118 336.928C38.1918 337.488 38.4638 338.056 38.7118 338.616C40.0638 341.296 41.4158 343.968 42.7118 346.616C43.1518 347.552 43.5118 348.496 43.9518 349.432C43.5758 348.88 43.2558 348.424 43.1998 348.352C41.4638 346.344 36.9278 343.488 34.1918 344.648C33.7392 344.85 33.3343 345.145 33.0037 345.514C32.673 345.883 32.424 346.318 32.273 346.79C32.122 347.262 32.0723 347.761 32.1272 348.253C32.1822 348.746 32.3405 349.221 32.5918 349.648C33.5998 351.488 36.0238 352.4 37.9838 352.68C39.9438 352.96 43.5838 352 44.8318 351.656C45.2158 352.632 45.6318 353.608 45.9278 354.568C46.1358 355.224 46.3838 355.848 46.5598 356.528L47.1118 358.504C47.4158 359.776 47.7358 361.08 48.0078 362.328C48.1998 363.192 48.3598 364.024 48.5358 364.856C48.1038 363.92 47.2238 362.096 47.1358 361.952C45.7278 359.704 41.6718 356.192 38.7918 356.928C38.3172 357.064 37.8764 357.298 37.4981 357.615C37.1198 357.932 36.8123 358.325 36.5958 358.769C36.3793 359.212 36.2585 359.696 36.2413 360.19C36.224 360.683 36.3108 361.175 36.4958 361.632C37.2158 363.6 39.4718 364.832 41.3678 365.448C43.4558 366.08 48.0718 365.504 48.6478 365.448C48.9278 366.832 49.1838 368.176 49.4478 369.448C49.6158 370.392 49.7678 371.296 49.9038 372.168H51.7518C51.5758 371.2 51.3918 370.184 51.1758 369.128C50.9038 367.72 50.5758 366.232 50.2318 364.696C51.6237 364.141 52.9808 363.503 54.2958 362.784C55.8158 364.432 59.7198 366.36 60.2238 366.608C59.6878 367.912 59.1598 369.176 58.6238 370.36L57.8238 372.168H59.7838C59.9358 371.792 60.0958 371.432 60.2478 371.048C60.7918 369.72 61.3518 368.296 61.9038 366.832C62.4638 366.944 67.0398 367.88 69.1758 367.392C71.1038 366.96 73.4478 365.864 74.3118 363.952C74.5306 363.51 74.6537 363.026 74.673 362.533C74.6924 362.04 74.6076 361.548 74.4242 361.09C74.2408 360.632 73.9628 360.218 73.6085 359.874C73.2542 359.53 72.8314 359.265 72.3678 359.096C69.5518 358.144 65.2558 361.344 63.6798 363.48C63.5838 363.608 62.7278 365.08 62.2078 366.032C62.4318 365.424 62.6558 364.848 62.8798 364.224C63.3278 363 63.7358 361.76 64.1838 360.432C64.3838 359.784 64.5758 359.128 64.7758 358.472C64.9758 357.816 65.1278 357.096 65.3038 356.408C65.6878 354.808 65.9998 353.152 66.2718 351.488C67.3518 351.872 71.1838 353.208 73.1678 353.088C75.1518 352.968 77.6238 352.224 78.7678 350.464C79.0519 350.06 79.2477 349.6 79.3425 349.116C79.4372 348.631 79.4289 348.131 79.318 347.65C79.2071 347.169 78.996 346.716 78.6986 346.321C78.4012 345.927 78.0241 345.599 77.5918 345.36C74.9438 344 70.2158 346.512 68.3278 348.384C68.2158 348.504 67.0158 349.984 66.3758 350.832C66.5278 349.824 66.6958 348.824 66.8158 347.8C67.1838 344.856 67.4638 341.864 67.7518 338.88C67.8398 337.96 67.9438 337.048 68.0398 336.144C68.4158 336.28 72.9438 337.968 75.1678 337.808C77.1438 337.672 79.6238 336.944 80.7678 335.184C81.0505 334.78 81.2452 334.321 81.3392 333.837C81.4332 333.353 81.4245 332.855 81.3137 332.375C81.2028 331.894 80.9922 331.442 80.6956 331.048C80.399 330.655 80.0229 330.327 79.5918 330.088C76.9438 328.728 72.2078 331.24 70.3278 333.112C70.1918 333.248 68.4638 335.408 68.0558 335.976C68.2718 333.968 68.4958 331.976 68.8078 330.008C69.2043 327.357 69.7762 324.735 70.5198 322.16C70.6958 322.224 75.4078 324 77.7198 323.84C79.6958 323.704 82.1758 322.976 83.3198 321.224C83.6036 320.819 83.7989 320.36 83.8931 319.874C83.9873 319.389 83.9783 318.89 83.8666 318.408C83.7549 317.927 83.543 317.474 83.2448 317.08C82.9466 316.686 82.5688 316.359 82.1358 316.12C79.4958 314.76 74.7598 317.272 72.8798 319.144C72.7358 319.288 70.8798 321.608 70.5758 322.048C70.6238 321.904 70.6478 321.744 70.6958 321.592C71.5114 319.03 72.5529 316.546 73.8078 314.168C74.4798 312.848 75.1998 311.616 75.9278 310.44C76.7758 310.864 80.6478 312.744 82.7198 312.84C84.7918 312.936 87.2398 312.464 88.5758 310.848C88.912 310.479 89.1658 310.042 89.3204 309.568C89.4749 309.093 89.5266 308.591 89.4722 308.094C89.4177 307.598 89.2582 307.119 89.0044 306.689C88.7505 306.259 88.4081 305.888 87.9998 305.6C85.5198 303.952 80.5438 305.928 78.4638 307.584C78.3518 307.672 77.3038 308.712 76.5518 309.488C76.8958 308.96 77.2318 308.408 77.5598 307.888C78.8078 306.016 80.0558 304.376 81.1838 302.936C81.8238 302.136 82.4238 301.4 82.9918 300.728C84.0318 300.728 88.2398 300.576 90.0798 299.72C91.9198 298.864 93.9278 297.32 94.3598 295.248C94.4776 294.769 94.4933 294.27 94.4058 293.784C94.3183 293.298 94.1296 292.836 93.852 292.428C93.5744 292.02 93.214 291.675 92.7943 291.415C92.3746 291.155 91.9049 290.987 91.4158 290.92C88.4638 290.6 84.9518 294.648 83.8718 297.072C83.7838 297.288 82.6958 300.728 82.7518 300.728H82.8158C82.2558 301.36 81.6638 302.048 81.0318 302.816C79.8718 304.232 78.5838 305.848 77.2958 307.704C75.8832 309.683 74.5876 311.742 73.4158 313.872C72.0978 316.257 70.9896 318.752 70.1038 321.328V321.424C70.1038 320.552 70.1038 318.12 70.0558 317.928C69.7198 315.296 67.5118 310.416 64.5838 309.872C64.0958 309.796 63.5973 309.824 63.1207 309.954C62.6441 310.083 62.2001 310.312 61.8175 310.624C61.435 310.936 61.1224 311.326 60.9002 311.767C60.678 312.208 60.5512 312.691 60.5278 313.184C60.3598 315.272 61.8718 317.368 63.3518 318.688C65.0238 320.176 69.6478 321.616 70.0158 321.728C69.1655 324.385 68.4921 327.095 67.9998 329.84C67.7118 331.44 67.4798 333.04 67.2638 334.64C67.2638 333.888 67.2638 333.208 67.2638 333.12C66.9198 330.488 64.7198 325.6 61.7918 325.064C61.3042 324.987 60.8059 325.014 60.3293 325.142C59.8527 325.271 59.4086 325.499 59.0259 325.81C58.6431 326.122 58.3304 326.511 58.1082 326.952C57.8859 327.392 57.759 327.875 57.7358 328.368C57.5678 330.456 59.0798 332.552 60.5598 333.872C62.0398 335.192 65.9838 336.52 67.0238 336.856C66.9438 337.472 66.8638 338.096 66.7918 338.72C66.4318 341.696 66.0878 344.68 65.6638 347.584C65.5118 348.616 65.3278 349.616 65.1518 350.624C65.1518 349.952 65.1518 349.392 65.1518 349.304C64.8078 346.672 62.6078 341.792 59.6798 341.248C59.1918 341.172 58.6933 341.2 58.2167 341.33C57.7401 341.459 57.2961 341.688 56.9135 342C56.531 342.312 56.2184 342.702 55.9962 343.143C55.774 343.584 55.6471 344.067 55.6238 344.56C55.4558 346.648 56.9678 348.744 58.4478 350.064C59.9278 351.384 63.4878 352.584 64.7278 352.984C64.5118 354.008 64.2958 355.032 64.0398 356.016C63.8478 356.68 63.7118 357.336 63.4798 358C63.2478 358.664 63.0558 359.304 62.8478 359.952C62.4078 361.176 61.9518 362.448 61.4878 363.632C61.1678 364.432 60.8478 365.232 60.5358 366.032C60.6958 365.016 60.9678 363.016 60.9678 362.832C60.9353 360.499 60.3045 358.212 59.1358 356.192C59.1455 355.925 59.1295 355.657 59.0878 355.392C59.0269 354.902 58.8635 354.431 58.6082 354.009C58.3529 353.586 58.0115 353.222 57.6062 352.941C57.2008 352.659 56.7407 352.466 56.2558 352.375C55.7708 352.283 55.272 352.294 54.7918 352.408C51.9198 353.168 50.0958 358.208 49.9918 360.864C49.9918 361.016 50.0878 362.72 50.1678 363.8C50.0238 363.176 49.8878 362.568 49.7358 361.928C49.4318 360.656 49.0958 359.4 48.7358 358.04C48.5438 357.392 48.3438 356.736 48.1438 356.072C47.9438 355.408 47.6798 354.744 47.4478 354.064C46.8798 352.512 46.2318 350.968 45.5358 349.424C46.6478 349.16 50.5838 348.152 52.1598 346.944C53.7358 345.736 55.4078 343.744 55.3598 341.664C55.3726 341.171 55.2815 340.68 55.0923 340.224C54.9032 339.768 54.6202 339.357 54.2619 339.018C53.9035 338.678 53.4777 338.418 53.0122 338.254C52.5467 338.089 52.0519 338.025 51.5598 338.064C48.6078 338.384 46.0398 343.088 45.5038 345.688C45.5038 345.856 45.2958 347.76 45.2158 348.808C44.7998 347.888 44.4158 346.96 43.9198 346.04C42.5998 343.384 41.1838 340.728 39.7758 338.08C39.3438 337.28 38.9278 336.48 38.5038 335.64C38.9038 335.552 43.5998 334.456 45.3758 333.104C46.9758 331.896 48.5758 329.904 48.5758 327.824C48.5886 327.331 48.4975 326.84 48.3083 326.384C48.1192 325.928 47.8362 325.517 47.4779 325.178C47.1195 324.838 46.6937 324.578 46.2282 324.414C45.7627 324.249 45.2679 324.185 44.7758 324.224C41.8238 324.544 39.2558 329.248 38.7198 331.848C38.6798 332.04 38.4318 334.792 38.3998 335.488C37.4718 333.696 36.5598 331.904 35.7358 330.104C34.6001 327.689 33.6195 325.204 32.7998 322.664C32.9918 322.624 37.9038 321.504 39.7118 320.12C41.3118 318.912 42.9118 316.92 42.9118 314.84C42.9259 314.346 42.8356 313.855 42.6469 313.399C42.4581 312.942 42.1752 312.53 41.8166 312.191C41.458 311.851 41.0317 311.591 40.5656 311.427C40.0995 311.263 39.6041 311.199 39.1118 311.24C36.1598 311.56 33.5998 316.264 33.0638 318.864C33.0158 319.072 32.7518 322.024 32.7438 322.56C32.6958 322.416 32.6318 322.264 32.5918 322.112C31.8568 319.527 31.3535 316.882 31.0878 314.208C30.9198 312.728 30.8478 311.312 30.7998 309.928C31.7358 309.808 36.0078 309.24 37.7838 308.176C39.5598 307.112 41.3518 305.368 41.5678 303.28C41.6354 302.791 41.5992 302.292 41.4614 301.818C41.3236 301.343 41.0874 300.903 40.7682 300.525C40.449 300.148 40.0539 299.842 39.6086 299.627C39.1633 299.413 38.6779 299.295 38.1838 299.28C35.2158 299.28 32.1518 303.672 31.3278 306.2C31.3278 306.336 30.9838 307.8 30.7838 308.84C30.7838 308.216 30.7838 307.568 30.7838 306.968C30.7838 304.72 30.9278 302.664 31.0638 300.84C31.1598 299.808 31.2558 298.872 31.3598 298C32.2238 297.408 35.6558 294.984 36.7118 293.248C37.7678 291.512 38.5918 289.112 37.8238 287.16C37.6575 286.695 37.3952 286.27 37.0538 285.913C36.7124 285.555 36.2996 285.274 35.8423 285.087C35.385 284.9 34.8934 284.811 34.3996 284.826C33.9057 284.842 33.4206 284.961 32.9758 285.176C30.3358 286.536 29.6398 291.856 30.0798 294.472C30.0798 294.696 31.1118 298.168 31.1598 298.136C31.2078 298.104 31.1998 298.136 31.2158 298.136C31.0958 298.936 30.9838 299.872 30.8798 300.856C30.6958 302.68 30.5038 304.736 30.4558 306.992C30.3702 309.423 30.429 311.856 30.6318 314.28C30.8482 316.988 31.306 319.67 31.9998 322.296C31.9998 322.296 31.9998 322.352 31.9998 322.384C31.5358 321.648 30.1598 319.64 30.0318 319.496C28.2958 317.496 23.7598 314.632 21.0238 315.8C20.5744 316.006 20.1734 316.304 19.8471 316.675C19.5207 317.046 19.2763 317.481 19.1298 317.953C18.9833 318.425 18.9381 318.923 18.997 319.413C19.0559 319.904 19.2177 320.376 19.4718 320.8C20.4798 322.632 22.8958 323.544 24.8558 323.824Z" fill="black"/>
<path d="M75.8238 309.864C75.8718 309.864 76.7758 306.4 76.8078 306.168C77.1678 303.544 76.3358 298.248 73.6558 296.952C73.2046 296.748 72.7154 296.641 72.2202 296.639C71.7249 296.636 71.2348 296.739 70.7817 296.939C70.3287 297.139 69.923 297.432 69.5911 297.8C69.2592 298.168 69.0086 298.601 68.8558 299.072C68.1358 301.048 69.0478 303.464 70.1278 305.128C71.4078 307.08 75.8238 309.864 75.8238 309.864Z" fill="black"/>
<path d="M304.296 308.72C306.424 309.648 311.64 309.52 311.648 309.52C311.656 309.52 310.528 306.104 310.424 305.904C309.28 303.504 305.664 299.552 302.72 299.952C302.233 300.032 301.768 300.213 301.355 300.485C300.943 300.756 300.592 301.111 300.326 301.527C300.059 301.942 299.883 302.41 299.809 302.898C299.735 303.386 299.765 303.884 299.896 304.36C300.384 306.4 302.48 307.92 304.296 308.72Z" fill="black"/>
<path d="M306.096 323.824C308.304 324.152 312.96 322.8 313.336 322.688C314.097 325.355 315.04 327.967 316.16 330.504C316.8 331.984 317.488 333.456 318.2 334.928C317.776 334.304 317.4 333.752 317.328 333.68C315.592 331.672 311.056 328.816 308.32 329.976C307.872 330.183 307.472 330.481 307.146 330.852C306.82 331.223 306.576 331.658 306.429 332.129C306.282 332.601 306.235 333.098 306.292 333.588C306.349 334.078 306.509 334.551 306.76 334.976C307.776 336.816 310.192 337.72 312.152 338.008C314.112 338.296 318.136 337.208 319.192 336.928C319.472 337.488 319.744 338.056 319.992 338.616C321.336 341.296 322.696 343.968 323.944 346.616C324.384 347.552 324.744 348.496 325.192 349.432C324.816 348.88 324.488 348.424 324.432 348.352C322.696 346.344 318.16 343.488 315.424 344.648C314.976 344.855 314.576 345.153 314.25 345.524C313.924 345.895 313.68 346.33 313.533 346.801C313.386 347.273 313.339 347.77 313.396 348.26C313.453 348.75 313.613 349.223 313.864 349.648C314.88 351.488 317.296 352.4 319.256 352.68C321.216 352.96 324.856 352 326.104 351.656C326.488 352.632 326.904 353.608 327.208 354.568C327.416 355.224 327.664 355.848 327.832 356.528C328 357.208 328.208 357.848 328.384 358.504C328.688 359.776 329.016 361.08 329.28 362.328C329.472 363.192 329.64 364.024 329.808 364.856C329.376 363.92 328.504 362.096 328.416 361.952C327 359.704 322.952 356.192 320.072 356.928C319.597 357.063 319.155 357.296 318.776 357.613C318.397 357.93 318.089 358.323 317.872 358.767C317.656 359.211 317.535 359.695 317.518 360.189C317.502 360.683 317.59 361.175 317.776 361.632C318.496 363.6 320.744 364.832 322.64 365.448C324.728 366.08 329.352 365.504 329.928 365.448C330.2 366.832 330.464 368.176 330.68 369.448C330.848 370.392 331 371.296 331.136 372.168H332.992C332.816 371.2 332.624 370.184 332.416 369.128C332.136 367.72 331.816 366.232 331.472 364.696C332.862 364.138 334.219 363.499 335.536 362.784C337.056 364.432 340.952 366.36 341.456 366.608C340.928 367.912 340.4 369.176 339.856 370.36C339.584 370.984 339.32 371.576 339.056 372.168H341.008L341.48 371.048C342.024 369.72 342.576 368.296 343.136 366.832C343.696 366.944 348.264 367.88 350.4 367.392C352.336 366.96 354.672 365.864 355.536 363.952C355.756 363.51 355.881 363.027 355.901 362.534C355.922 362.041 355.838 361.549 355.655 361.091C355.472 360.632 355.195 360.218 354.841 359.874C354.486 359.53 354.064 359.265 353.6 359.096C350.784 358.144 346.48 361.344 344.904 363.48C344.816 363.608 343.96 365.08 343.432 366.032C343.656 365.424 343.88 364.848 344.104 364.224C344.552 363 344.968 361.76 345.416 360.432C345.608 359.784 345.808 359.128 346 358.472C346.192 357.816 346.352 357.096 346.536 356.408C346.912 354.808 347.224 353.152 347.504 351.488C348.576 351.872 352.408 353.208 354.392 353.088C356.376 352.968 358.856 352.224 359.992 350.464C360.276 350.059 360.471 349.599 360.565 349.114C360.659 348.629 360.65 348.129 360.539 347.648C360.427 347.166 360.215 346.714 359.917 346.32C359.619 345.926 359.241 345.599 358.808 345.36C356.168 344 351.432 346.512 349.552 348.384C349.432 348.504 348.232 349.984 347.592 350.832C347.752 349.824 347.912 348.824 348.04 347.8C348.408 344.856 348.68 341.864 348.976 338.88C349.064 337.96 349.16 337.048 349.256 336.144C349.64 336.28 354.16 337.968 356.384 337.808C358.36 337.672 360.848 336.944 361.984 335.184C362.268 334.78 362.463 334.321 362.557 333.836C362.651 333.352 362.642 332.853 362.53 332.372C362.419 331.891 362.207 331.439 361.909 331.045C361.61 330.652 361.233 330.326 360.8 330.088C358.16 328.728 353.424 331.24 351.544 333.112C351.4 333.248 349.68 335.408 349.264 335.976C349.48 333.968 349.712 331.976 350.016 330.008C350.416 327.358 350.988 324.736 351.728 322.16C351.904 322.224 356.616 324 358.928 323.84C360.904 323.704 363.384 322.976 364.528 321.224C364.812 320.819 365.007 320.359 365.101 319.874C365.195 319.389 365.186 318.889 365.075 318.408C364.963 317.926 364.751 317.474 364.453 317.08C364.155 316.686 363.777 316.359 363.344 316.12C360.704 314.76 355.968 317.272 354.088 319.144C353.936 319.288 352.088 321.608 351.784 322.048C351.784 321.904 351.856 321.744 351.896 321.592C352.712 319.03 353.753 316.546 355.008 314.168C355.688 312.848 356.408 311.616 357.128 310.44C357.976 310.864 361.856 312.744 363.92 312.84C365.984 312.936 368.448 312.464 369.776 310.848C370.102 310.477 370.346 310.042 370.493 309.57C370.639 309.098 370.685 308.601 370.627 308.111C370.569 307.62 370.408 307.148 370.156 306.723C369.903 306.299 369.564 305.933 369.16 305.648C366.688 304 361.704 305.976 359.632 307.632C359.512 307.72 358.472 308.76 357.72 309.536C358.056 309.008 358.392 308.456 358.728 307.936C359.968 306.064 361.224 304.424 362.344 302.984C362.992 302.184 363.584 301.448 364.152 300.776C365.2 300.776 369.408 300.624 371.24 299.768C373.072 298.912 375.088 297.368 375.52 295.296C375.639 294.817 375.656 294.319 375.57 293.833C375.483 293.347 375.295 292.885 375.018 292.477C374.741 292.068 374.381 291.723 373.962 291.463C373.542 291.203 373.073 291.034 372.584 290.968C369.624 290.648 366.112 294.696 365.032 297.12C364.944 297.336 363.864 300.776 363.912 300.776H364C363.44 301.408 362.848 302.096 362.216 302.864C361.064 304.28 359.768 305.896 358.48 307.752C357.067 309.729 355.774 311.789 354.608 313.92C353.283 316.302 352.175 318.797 351.296 321.376C351.299 321.408 351.299 321.44 351.296 321.472C351.296 320.6 351.296 318.168 351.256 317.976C350.912 315.344 348.704 310.464 345.784 309.92C345.296 309.844 344.797 309.872 344.321 310.002C343.844 310.131 343.4 310.36 343.018 310.672C342.635 310.984 342.323 311.374 342.1 311.815C341.878 312.256 341.751 312.739 341.728 313.232C341.552 315.32 343.072 317.416 344.552 318.736C346.216 320.224 350.848 321.664 351.216 321.776C350.383 324.42 349.728 327.117 349.256 329.848C348.976 331.448 348.736 333.048 348.52 334.648C348.52 333.896 348.52 333.216 348.48 333.128C348.144 330.496 345.936 325.608 343.016 325.072C342.528 324.994 342.029 325.02 341.552 325.148C341.075 325.276 340.63 325.503 340.247 325.815C339.864 326.127 339.552 326.517 339.33 326.958C339.108 327.399 338.982 327.883 338.96 328.376C338.784 330.464 340.304 332.56 341.776 333.88C343.248 335.2 347.2 336.528 348.24 336.864C348.168 337.48 348.08 338.104 348.008 338.728C347.648 341.704 347.312 344.688 346.88 347.592C346.736 348.624 346.552 349.624 346.368 350.632C346.368 349.96 346.368 349.4 346.328 349.312C345.992 346.68 343.784 341.8 340.864 341.256C340.376 341.18 339.877 341.208 339.401 341.338C338.924 341.467 338.48 341.696 338.098 342.008C337.715 342.32 337.403 342.71 337.18 343.151C336.958 343.592 336.831 344.075 336.808 344.568C336.632 346.656 338.152 348.752 339.632 350.072C341.112 351.392 344.672 352.592 345.904 352.992C345.688 354.016 345.472 355.04 345.216 356.024C345.024 356.688 344.888 357.344 344.664 358.008C344.44 358.672 344.24 359.312 344.032 359.96C343.584 361.184 343.128 362.456 342.664 363.64C342.352 364.44 342.032 365.24 341.712 366.04C341.872 365.024 342.144 363.024 342.152 362.84C342.116 360.507 341.485 358.222 340.32 356.2C340.33 355.933 340.314 355.665 340.272 355.4C340.21 354.91 340.046 354.438 339.79 354.016C339.533 353.594 339.191 353.23 338.785 352.948C338.379 352.667 337.919 352.474 337.433 352.382C336.948 352.291 336.449 352.302 335.968 352.416C333.096 353.176 331.272 358.216 331.168 360.872C331.168 361.024 331.264 362.728 331.344 363.808C331.2 363.184 331.072 362.576 330.912 361.936C330.616 360.664 330.272 359.408 329.912 358.048C329.72 357.4 329.52 356.744 329.32 356.08C329.12 355.416 328.856 354.752 328.624 354.072C328.056 352.52 327.408 350.976 326.72 349.432C327.832 349.168 331.76 348.16 333.344 346.952C334.928 345.744 336.584 343.752 336.544 341.672C336.557 341.179 336.466 340.688 336.276 340.232C336.087 339.776 335.804 339.365 335.446 339.026C335.088 338.686 334.662 338.426 334.196 338.261C333.731 338.097 333.236 338.033 332.744 338.072C329.792 338.392 327.224 343.096 326.688 345.696C326.688 345.864 326.48 347.768 326.408 348.816C325.984 347.896 325.568 346.968 325.112 346.048C323.792 343.392 322.368 340.736 320.968 338.088C320.536 337.288 320.112 336.488 319.696 335.648C320.088 335.56 324.792 334.464 326.56 333.112C328.16 331.904 329.8 329.912 329.76 327.832C329.773 327.339 329.682 326.848 329.492 326.392C329.303 325.936 329.02 325.525 328.662 325.186C328.304 324.846 327.878 324.586 327.412 324.421C326.947 324.257 326.452 324.193 325.96 324.232C323.008 324.552 320.448 329.256 319.904 331.856C319.864 332.048 319.616 334.8 319.592 335.496C318.664 333.704 317.752 331.912 316.92 330.112C315.799 327.676 314.832 325.173 314.024 322.616C314.208 322.576 319.12 321.456 320.928 320.072C322.528 318.864 324.176 316.872 324.128 314.792C324.141 314.299 324.05 313.808 323.86 313.352C323.671 312.896 323.388 312.485 323.03 312.146C322.672 311.806 322.246 311.546 321.78 311.381C321.315 311.217 320.82 311.153 320.328 311.192C317.376 311.512 314.808 316.216 314.272 318.816C314.232 319.024 313.968 321.976 313.952 322.512C313.912 322.368 313.848 322.216 313.8 322.064C313.065 319.479 312.562 316.834 312.296 314.16C312.128 312.68 312.056 311.264 312.016 309.88C312.952 309.76 317.224 309.192 318.992 308.128C320.76 307.064 322.56 305.32 322.776 303.232C322.844 302.743 322.807 302.245 322.67 301.771C322.533 301.297 322.297 300.857 321.979 300.48C321.661 300.103 321.267 299.797 320.822 299.582C320.378 299.367 319.893 299.248 319.4 299.232C316.424 299.232 313.36 303.624 312.544 306.152C312.496 306.288 312.2 307.752 312 308.792C312 308.168 312 307.52 312 306.92C312 304.672 312.144 302.616 312.288 300.792C312.376 299.76 312.472 298.824 312.576 297.952C313.44 297.36 316.88 294.936 317.936 293.2C318.992 291.464 319.808 289.064 319.04 287.112C318.875 286.647 318.613 286.222 318.272 285.865C317.932 285.508 317.52 285.226 317.063 285.039C316.606 284.852 316.115 284.763 315.622 284.779C315.129 284.794 314.644 284.913 314.2 285.128C311.56 286.488 310.864 291.808 311.296 294.424C311.336 294.648 312.336 298.12 312.376 298.088H312.432C312.312 298.888 312.2 299.824 312.096 300.808C311.912 302.632 311.728 304.688 311.672 306.944C311.59 309.375 311.649 311.808 311.848 314.232C312.057 316.95 312.51 319.643 313.2 322.28V322.368C312.736 321.632 311.36 319.624 311.24 319.48C309.504 317.48 304.968 314.616 302.232 315.784C301.782 315.988 301.38 316.285 301.053 316.654C300.726 317.024 300.481 317.459 300.334 317.931C300.186 318.402 300.14 318.899 300.199 319.39C300.257 319.88 300.418 320.352 300.672 320.776C301.712 322.632 304.136 323.544 306.096 323.824Z" fill="black"/>
<path d="M357.056 309.864C357.104 309.864 358.008 306.4 358.04 306.168C358.408 303.544 357.568 298.248 354.888 296.952C354.437 296.748 353.948 296.641 353.452 296.639C352.957 296.636 352.467 296.739 352.014 296.939C351.561 297.139 351.155 297.432 350.823 297.8C350.491 298.168 350.241 298.601 350.088 299.072C349.376 301.048 350.28 303.464 351.36 305.128C352.64 307.08 357.056 309.864 357.056 309.864Z" fill="black"/>
<path d="M144.192 253.184H332.552C333.67 253.184 334.743 253.628 335.533 254.419C336.324 255.21 336.768 256.282 336.768 257.4V367.12C336.768 368.304 336.298 369.439 335.461 370.277C334.623 371.114 333.488 371.584 332.304 371.584H144.44C143.26 371.578 142.131 371.105 141.299 370.268C140.467 369.432 140 368.3 140 367.12V257.408C139.998 256.293 140.438 255.222 141.224 254.43C142.009 253.639 143.077 253.19 144.192 253.184Z" fill="white" stroke="black" stroke-linecap="round" stroke-linejoin="round"/>
<path d="M259.344 234.808H217.4C216.747 234.808 216.1 234.937 215.496 235.187C214.892 235.437 214.344 235.803 213.882 236.266C213.419 236.728 213.053 237.276 212.803 237.88C212.553 238.484 212.424 239.131 212.424 239.784V256.128H218.224C217.882 255.397 217.704 254.599 217.704 253.792V246.032C217.704 244.564 218.287 243.156 219.326 242.118C220.364 241.079 221.772 240.496 223.24 240.496H253.504C254.972 240.496 256.38 241.079 257.419 242.118C258.457 243.156 259.04 244.564 259.04 246.032V253.792C259.04 254.599 258.862 255.397 258.52 256.128H264.32V239.784C264.32 239.131 264.191 238.484 263.941 237.88C263.691 237.276 263.325 236.728 262.863 236.266C262.401 235.803 261.852 235.437 261.248 235.187C260.645 234.937 259.998 234.808 259.344 234.808Z" fill="black" stroke="black" stroke-linecap="round" stroke-linejoin="round"/>
<path d="M140 281.808L238.4 312.384L336.8 282.784V257.408C336.798 256.288 336.352 255.215 335.561 254.424C334.769 253.632 333.696 253.186 332.576 253.184H144.192C143.073 253.186 142.001 253.632 141.21 254.424C140.42 255.216 139.976 256.289 139.976 257.408L140 281.808Z" fill="white" stroke="black" stroke-linecap="round" stroke-linejoin="round"/>
<path d="M298.776 290.736L333.96 280.2V257.184" stroke="black" stroke-linecap="round" stroke-linejoin="round"/>
<path d="M246.504 306.4L294.816 291.928" stroke="black" stroke-linecap="round" stroke-linejoin="round"/>
<path d="M203.752 298.408L153.032 282.672" stroke="black" stroke-linecap="round" stroke-linejoin="round"/>
<path d="M229.512 306.4L208.128 299.768" stroke="black" stroke-linecap="round" stroke-linejoin="round"/>
<path d="M244.776 303.584H231.976V321.184H244.776V303.584Z" fill="black" stroke="black" stroke-linecap="round" stroke-linejoin="round"/>
<path d="M305.28 368.36H298.552" stroke="black" stroke-linecap="round" stroke-linejoin="round"/>
<path d="M332.896 309.232V363.2C332.897 363.874 332.765 364.542 332.508 365.165C332.251 365.788 331.873 366.354 331.397 366.831C330.921 367.308 330.355 367.687 329.732 367.945C329.11 368.203 328.442 368.336 327.768 368.336H308.464" stroke="black" stroke-linecap="round" stroke-linejoin="round"/>
<path d="M332.896 296.48V303.568" stroke="black" stroke-linecap="round" stroke-linejoin="round"/>
<path d="M265.84 302.4C265.84 302.4 268.376 322.072 270.064 329.224C271.752 336.376 277.992 362.088 278.064 364.56C278.136 367.032 272.16 372.384 269.536 373.912C266.912 375.44 270.24 376.568 272.912 376.264C275.584 375.96 279.84 374.376 280.44 373.744C281.011 373.23 281.639 372.785 282.312 372.416L282.648 372.224L282.496 373.672L285.56 372.944C285.701 370.541 285.618 368.131 285.312 365.744C284.808 363.08 284.512 360.824 284.512 360.824C284.512 360.824 283.712 319.68 283.584 316.184C283.456 312.688 283.312 308.184 283.312 308.184L265.84 302.4Z" fill="white" stroke="black" stroke-linecap="round" stroke-linejoin="round"/>
<path d="M272.928 376.264C275.592 375.968 279.856 374.376 280.456 373.744C281.027 373.23 281.655 372.785 282.328 372.416L282.664 372.224L282.512 373.672L285.576 372.944C285.717 370.541 285.634 368.131 285.328 365.744C283.152 368.496 277.328 371.784 275.664 372.048C275.235 372.146 274.79 372.149 274.36 372.057C273.93 371.964 273.526 371.778 273.176 371.512L272.84 371.44C271.814 372.351 270.715 373.175 269.552 373.904C266.928 375.448 270.256 376.568 272.928 376.264Z" fill="black" stroke="black" stroke-linecap="round" stroke-linejoin="round"/>
<path d="M288.456 307.584C288.456 307.584 289.808 328.744 291.856 334.44C293.904 340.136 296.16 363.52 296.16 363.52C295.496 366.262 294.695 368.969 293.76 371.632C292.12 375.872 293.408 379.264 295.872 378.976C298.336 378.688 301.472 374.04 301.552 370.544C301.66 367.913 301.911 365.291 302.304 362.688C302.304 362.688 304.824 340.168 305.384 332.528C305.944 324.888 304.384 315.68 304.36 314.856C304.336 314.032 305.024 304.336 305.024 304.336L288.224 306.56L288.456 307.584Z" fill="white" stroke="black" stroke-linecap="round" stroke-linejoin="round"/>
<path d="M301.68 368.136C300.448 370.256 298.544 372.936 296.688 372.976C295.048 373.032 294.52 371.376 294.384 369.88C294.176 370.504 293.968 371.104 293.76 371.632C292.12 375.872 293.408 379.264 295.872 378.976C298.336 378.688 301.472 374.04 301.552 370.544C301.6 369.76 301.6 368.944 301.68 368.136Z" fill="black" stroke="black" stroke-linecap="round" stroke-linejoin="round"/>
<path d="M264.368 236.528C260.737 243.66 258.217 251.306 256.896 259.2C254.728 272.248 264.032 303.664 264.032 303.664C264.032 303.664 271.464 310.2 284.832 310.352C298.2 310.504 305.336 307.792 305.336 307.792C305.336 307.792 311.816 274.408 310.312 259.872C309.256 250.925 305.5 242.511 299.544 235.752L265.68 234.288L264.368 236.528Z" fill="black" stroke="black" stroke-linecap="round" stroke-linejoin="round"/>
<path d="M241.256 236.424C241.256 236.424 234.344 238.024 233.176 238.416C232.008 238.808 229.496 240.368 228.992 241.352C228.488 242.336 226.44 245.192 226.52 247.544C226.6 249.896 226.64 250.864 227.32 250.848C228 250.832 228.752 248.864 229.392 248.632C230.032 248.4 234.896 246.72 235.752 246.696C237.264 246.684 238.755 246.34 240.12 245.688C241.625 244.84 243.027 243.82 244.296 242.648L242.368 236.248L241.256 236.424Z" fill="white" stroke="black" stroke-linecap="round" stroke-linejoin="round"/>
<path d="M235.248 239.312C234.073 239.94 232.95 240.66 231.888 241.464C231.584 241.904 227.288 247.864 228.568 247.8C229.848 247.736 233.472 243.872 233.472 243.872L238.184 243.712C239.472 243.672 240.704 242.112 240.704 242.112" fill="white"/>
<path d="M235.248 239.312C234.073 239.94 232.95 240.66 231.888 241.464C231.584 241.904 227.288 247.864 228.568 247.8C229.848 247.736 233.472 243.872 233.472 243.872L238.184 243.712C239.472 243.672 240.704 242.112 240.704 242.112" stroke="black" stroke-linecap="round" stroke-linejoin="round"/>
<path d="M283.856 177.672C283.856 177.672 264.976 184.36 264.296 186.648C263.616 188.936 257.312 224.608 257.312 224.608L241.112 236L243.928 244.704L262.032 237.504L256.664 256.8C256.664 256.8 267.16 261.968 278.744 262.576C290.328 263.184 303.272 259.216 305.016 258.648C306.76 258.08 311.72 256.152 311.72 256.152L305.736 221.408C305.736 221.408 312.816 193.504 312.992 191.232C313.168 188.96 313.96 182.896 313.936 182.144C313.912 181.392 297.936 177.816 297.936 177.816L283.856 177.672Z" fill="#2C4BFF" stroke="black" stroke-linecap="round" stroke-linejoin="round"/>
<path d="M272.36 254.04L271.552 258.312" stroke="black" stroke-linecap="round" stroke-linejoin="round"/>
<path d="M275.968 181.824L276.344 207.6L272.04 214.04L275.384 238.064L272.928 251.064" stroke="black" stroke-linecap="round" stroke-linejoin="round"/>
<path d="M274.4 212.8C274.4 212.8 293.016 195.2 298.616 189.728C301.628 186.865 304.38 183.741 306.84 180.392" stroke="black" stroke-linecap="round" stroke-linejoin="round"/>
<path d="M267.8 193.312C267.8 193.312 263.232 206.8 264.352 210.032C265.472 213.264 266.6 224.032 266.6 224.032L262.032 237.52" stroke="black" stroke-linecap="round" stroke-linejoin="round"/>
<path d="M284.984 150.512C284.984 150.512 281.456 152.736 280.912 154.408C280.368 156.08 280.112 157.736 278.96 158.528C277.808 159.32 275.216 158.952 275.408 160C275.6 161.048 277.168 163.24 277.168 163.24C277.168 163.24 276.368 170.32 276.416 171.816C276.464 173.312 278.752 174.288 279.8 174.216C280.704 174.145 281.602 174.014 282.488 173.824L282.968 179.056L277.608 206.256L297.936 177.792L296.616 174.536L297.072 170.168C298.127 166.792 298.21 163.188 297.312 159.768C296.807 157.738 295.908 155.827 294.664 154.146C293.42 152.464 291.857 151.044 290.064 149.968C289.287 149.452 288.353 149.224 287.426 149.323C286.498 149.422 285.634 149.843 284.984 150.512Z" fill="white" stroke="black" stroke-linecap="round" stroke-linejoin="round"/>
<path d="M282.488 173.864L285.736 172.568L282.968 177.92L282.488 173.864Z" fill="black" stroke="black" stroke-linecap="round" stroke-linejoin="round"/>
<path d="M281.48 158.6C281.296 159.24 280.92 159.688 280.64 159.608C280.36 159.528 280.288 158.944 280.48 158.304C280.672 157.664 281.04 157.224 281.28 157.304C281.52 157.384 281.672 157.968 281.48 158.6Z" fill="black"/>
<path d="M281.104 155.448C281.104 155.448 282.56 154.2 282.784 156.296" stroke="black" stroke-linecap="round" stroke-linejoin="round"/>
<path d="M277.424 166.4C277.821 166.41 278.216 166.327 278.575 166.157C278.935 165.988 279.25 165.737 279.496 165.424" stroke="black" stroke-linecap="round" stroke-linejoin="round"/>
<path d="M281.104 188.568L277.608 206.296L289.672 189.4L281.104 188.568Z" stroke="black" stroke-linecap="round" stroke-linejoin="round"/>
<path d="M298.512 141.704C298.512 141.704 295.752 136 289.96 136C284.168 136 280.28 141.048 280.416 144.896C280.552 148.744 285.336 150.944 286.216 151.552C287.096 152.16 283.736 154.208 285.344 157.368C286.335 159.296 287.793 160.946 289.584 162.168C289.584 162.168 292.264 159.072 294.48 161.368C296.696 163.664 294.648 166.08 292.96 166.968C292.052 167.493 291.043 167.82 290 167.928C291.442 168.884 292.782 169.986 294 171.216C295.776 173.08 299.36 171.464 300.6 170.128C301.84 168.792 302.44 167.496 304.776 166.992C307.112 166.488 312.144 163.088 312.36 157.088C312.576 151.088 310.52 147.08 306.136 144.232C301.752 141.384 298.512 141.704 298.512 141.704Z" fill="black" stroke="black" stroke-linecap="round" stroke-linejoin="round"/>
<path d="M305.72 243.416L302.952 247.048C302.952 247.048 298.216 249.448 298.24 250.32C298.264 251.192 296.232 254.144 296.136 254.464C296.289 256.052 296.595 257.622 297.048 259.152C297.272 259.576 297.048 261.408 298.648 261.776C300.248 262.144 301.296 260.936 301.728 260.92C302.16 260.904 304.528 261.256 305.896 260.56C307.264 259.864 308.592 251.68 308.776 250.816C308.96 249.952 311.416 246.544 311.416 246.544L305.72 243.416Z" fill="white" stroke="black" stroke-linecap="round" stroke-linejoin="round"/>
<path d="M296.688 254.88C296.688 254.88 296.904 254.976 297.264 256.04C297.624 257.104 297.048 259.152 297.048 259.152" stroke="black" stroke-linecap="round" stroke-linejoin="round"/>
<path d="M306.4 197.008C306.4 197.008 303.952 202.736 304.232 203.48C304.512 204.224 313.216 219.656 313.216 219.656L305 243.832L312.2 248.36C312.2 248.36 326.232 217.696 326.704 216.928C327.176 216.16 316.368 186.592 316.368 186.592C316.368 186.592 315.704 182.352 313.968 182.16C312.346 181.903 310.742 181.54 309.168 181.072" fill="#2C4BFF"/>
<path d="M306.4 197.008C306.4 197.008 303.952 202.736 304.232 203.48C304.512 204.224 313.216 219.656 313.216 219.656L305 243.832L312.2 248.36C312.2 248.36 326.232 217.696 326.704 216.928C327.176 216.16 316.368 186.592 316.368 186.592C316.368 186.592 315.704 182.352 313.968 182.16C312.346 181.903 310.742 181.54 309.168 181.072" stroke="black" stroke-linecap="round" stroke-linejoin="round"/>
<path d="M176.216 369.664C176.216 369.664 183.592 373.816 185.896 374.464C188.471 375.155 191.091 375.668 193.736 376C194.808 376 195.576 376.456 195.576 377.536C195.474 378.596 194.981 379.58 194.192 380.296C193.736 380.608 182.52 382.912 179.6 382.912C176.68 382.912 167.152 386.288 164.696 385.984C162.24 385.68 161.32 384.912 161.008 383.68C160.696 382.448 161.472 376.92 161.472 376.92L176.216 369.664Z" fill="white" stroke="black" stroke-linecap="round" stroke-linejoin="round"/>
<path d="M194.192 380.264C194.981 379.548 195.474 378.564 195.576 377.504C195.593 377.259 195.543 377.015 195.432 376.796C195.32 376.578 195.152 376.394 194.944 376.264C194.144 377.48 193.008 379 192.048 379.192C190.504 379.496 174.992 382.264 170.992 382.568L160.96 383.368C160.96 383.48 160.976 383.576 161.008 383.656C161.32 384.888 162.24 385.656 164.696 385.96C167.152 386.264 176.696 382.888 179.6 382.888C182.504 382.888 193.736 380.576 194.192 380.264Z" fill="white" stroke="black" stroke-linecap="round" stroke-linejoin="round"/>
<path d="M103.24 374.88C103.182 376.129 103.339 377.38 103.704 378.576C104.32 380.728 106.904 384.264 106.776 386.104C106.648 387.944 105.856 388.56 100.936 388.256C96.0161 387.952 90.8001 387.952 88.9361 384.256C87.0721 380.56 91.4001 373.96 91.4001 373.96L103.24 374.88Z" fill="white" stroke="black" stroke-linecap="round" stroke-linejoin="round"/>
<path d="M106.776 386.104C106.792 385.721 106.738 385.339 106.616 384.976C105.885 385.887 104.852 386.505 103.704 386.72C101.088 387.184 95.704 387.184 92.336 385.488C91.0135 384.81 89.7597 384.007 88.592 383.088C88.6572 383.489 88.7784 383.88 88.952 384.248C90.8 387.936 96.024 387.936 100.952 388.248C105.88 388.56 106.624 387.952 106.776 386.104Z" fill="white" stroke="black" stroke-linecap="round" stroke-linejoin="round"/>
<path d="M95.648 252.728L101.928 320.216L92.8 363.632L90.968 368.08V374.096C90.968 374.096 91.488 373.832 94.368 375.144C97.248 376.456 102.216 375.144 102.216 375.144L103.264 374.88L105.88 367.296L106.4 361.8C106.4 361.8 122.352 317.336 123.136 313.936C123.92 310.536 125.6 281.6 125.6 281.6L125.248 274.288L149.248 317.584L159.448 366.752L157.848 369.632L161.248 378L176.68 369.896L175.632 364.664L173.28 360.216C173.28 360.216 168.048 306.072 167.264 305.016C166.48 303.96 144.248 252.704 144.248 252.704L141.368 241.192L95.648 252.728Z" fill="black" stroke="black" stroke-linecap="round" stroke-linejoin="round"/>
<path d="M141.152 176.68L147.552 194.4L123.288 180L131.824 208C131.824 208 162.488 209.6 163.288 207.464C163.864 205.928 154.36 185.152 149.008 173.664L141.152 176.68Z" fill="white" stroke="black" stroke-linecap="round" stroke-linejoin="round"/>
<path d="M143.016 180.856L150.976 178.16" stroke="black" stroke-linecap="round" stroke-linejoin="round"/>
<path d="M83.7921 186.4L64.3201 204.536L90.1921 241.6C90.1921 241.6 91.5201 250.664 93.3921 252.536C93.8735 253.114 94.4912 253.563 95.1896 253.842C95.8879 254.122 96.6449 254.223 97.3921 254.136C98.1921 254.136 138.192 245.064 141.12 244C144.048 242.936 144.856 240.8 144.32 238.664C143.784 236.528 137.92 228.536 137.92 228.536L123.256 180H105.392L89.6561 183.736L83.7921 186.4Z" fill="white" stroke="black" stroke-linecap="round" stroke-linejoin="round"/>
<path d="M96.9199 193.6L103.92 198.8L108.52 244.2L117.52 250.4L121.12 240.4L106.12 198.2L105.12 187.2L100.12 185.4L96.9199 193.6Z" fill="#2C4BFF" stroke="black" stroke-linecap="round" stroke-linejoin="round"/>
<path d="M86.2402 176.8C84.8658 178.02 83.9253 179.654 83.5602 181.456C83.0002 184.416 82.7122 187.24 82.7122 187.24L92.0002 200.456C92.0002 200.456 97.3602 193.4 97.7762 192.976C98.2302 192.651 98.7485 192.428 99.2962 192.32C100.596 191.526 101.827 190.624 102.976 189.624C103.56 188.888 104.688 187.616 108.352 188.464C112.016 189.312 114.704 190.16 114.704 190.16C114.704 190.16 110.328 181.272 107.936 178.736C105.544 176.2 101.584 175.632 99.7522 175.632C97.9202 175.632 89.8802 177.328 89.8802 177.328L86.2402 176.8Z" fill="white" stroke="black" stroke-linecap="round" stroke-linejoin="round"/>
<path d="M94.1761 146.272C94.1761 146.272 101.528 154.848 102.976 154.848C104.424 154.848 108.12 154.352 108.12 156.072C108.15 156.993 107.981 157.91 107.624 158.76C107.624 158.76 110.824 167.824 111.544 170.52C112.264 173.216 105.664 174.688 105.664 174.688L102.464 175.664C102.464 175.664 103.936 187.424 102.96 189.624C101.984 191.824 99.2801 192.32 99.2801 192.32L86.5841 178.4L86.3441 175.2C86.3441 175.2 72.8721 163.2 73.1121 161.48C73.3521 159.76 94.1761 146.272 94.1761 146.272Z" fill="white" stroke="black" stroke-linecap="round" stroke-linejoin="round"/>
<path d="M98.8961 155.936C99.3601 156.552 99.5201 157.216 99.2641 157.408C99.0081 157.6 98.4641 157.248 97.9601 156.608C97.4561 155.968 97.3361 155.336 97.5921 155.144C97.8481 154.952 98.4401 155.32 98.8961 155.936Z" fill="black"/>
<path d="M94.8401 154.624C95.3287 154.077 95.9461 153.661 96.6363 153.414C97.3265 153.167 98.0675 153.096 98.7921 153.208" fill="black"/>
<path d="M94.8401 154.624C95.3287 154.077 95.9461 153.661 96.6363 153.414C97.3265 153.167 98.0675 153.096 98.7921 153.208" stroke="black" stroke-width="2" stroke-linecap="round" stroke-linejoin="round"/>
<path d="M109.224 164.632L107.112 165.624" stroke="black" stroke-linecap="round" stroke-linejoin="round"/>
<path d="M107.648 158.76C107.648 158.76 101.608 163.08 101.328 164.632C101.048 166.184 101.896 170.416 101.896 170.416C101.896 170.416 96.6722 169.712 95.2642 169.712C93.8562 169.712 87.0882 162.376 87.7922 161.528C88.4962 160.68 91.1762 158.008 90.7522 156.592C90.3282 155.176 86.5202 154.624 89.2002 152.224C91.8802 149.824 103.728 145.592 104.288 143.056C104.848 140.52 96.3922 140.096 94.8402 141.648C94.0825 142.451 93.2311 143.16 92.3042 143.76C92.3042 143.76 93.1522 138.16 87.9282 140.376C81.8176 143.091 76.8701 147.888 73.9682 153.912C71.0082 160.4 69.0322 160.824 72.5602 164.208C76.0882 167.592 83.8402 175.072 85.3602 175.352C86.8802 175.632 87.7602 176.76 87.7602 175.632C87.7602 174.504 84.6562 170.416 85.3602 168.72C86.0642 167.024 86.6322 166.184 88.0402 168.016C89.4482 169.848 91.7042 173.944 94.2482 175.216C96.7922 176.488 103.272 175.496 103.272 175.496C103.272 175.496 111.728 173.528 112.872 171.552C114.016 169.576 112.16 166.472 111.456 166.048C110.752 165.624 110.192 165.768 109.904 167.04C109.616 168.312 107.504 169.576 106.944 168.168C106.384 166.76 105.256 164.216 106.096 163.792C106.936 163.368 108.92 162.808 108.92 161.112C108.92 159.416 108.616 158.536 107.648 158.76Z" fill="black" stroke="black" stroke-linecap="round" stroke-linejoin="round"/>
<path d="M89.3441 167.88C89.3441 167.88 86.3841 164.776 84.2641 164.912C82.1441 165.048 81.3041 166.888 83.7041 169.848C86.1041 172.808 89.0561 172.952 89.9041 171.968C90.7521 170.984 89.9041 169.144 89.9041 169.144" fill="white"/>
<path d="M89.3441 167.88C89.3441 167.88 86.3841 164.776 84.2641 164.912C82.1441 165.048 81.3041 166.888 83.7041 169.848C86.1041 172.808 89.0561 172.952 89.9041 171.968C90.7521 170.984 89.9041 169.144 89.9041 169.144" stroke="black" stroke-linecap="round" stroke-linejoin="round"/>
<path d="M131.776 174.8L64.616 268.312" stroke="black" stroke-width="14" stroke-linecap="round" stroke-linejoin="round"/>
<path d="M167.368 125.256L131.776 174.8" stroke="black" stroke-width="8" stroke-linecap="round" stroke-linejoin="round"/>
<path d="M201.12 22.3999C189.57 22.3999 178.279 25.825 168.675 32.2421C159.071 38.6592 151.586 47.78 147.165 58.4512C142.745 69.1224 141.589 80.8647 143.842 92.1932C146.096 103.522 151.658 113.928 159.825 122.095C167.992 130.262 178.398 135.824 189.727 138.078C201.055 140.331 212.798 139.175 223.469 134.754C234.14 130.334 243.261 122.849 249.678 113.245C256.095 103.641 259.52 92.3503 259.52 80.7999C259.52 65.3113 253.367 50.457 242.415 39.5049C231.463 28.5527 216.609 22.3999 201.12 22.3999ZM201.12 131.2C191.152 131.2 181.408 128.244 173.119 122.706C164.831 117.168 158.371 109.297 154.556 100.087C150.742 90.8778 149.744 80.744 151.688 70.9674C153.633 61.1907 158.433 52.2103 165.482 45.1617C172.53 38.1132 181.511 33.313 191.287 31.3683C201.064 29.4236 211.198 30.4217 220.407 34.2364C229.617 38.051 237.488 44.5109 243.026 52.7992C248.564 61.0874 251.52 70.8317 251.52 80.7999C251.52 94.1668 246.21 106.986 236.758 116.438C227.306 125.89 214.487 131.2 201.12 131.2Z" fill="black" stroke="black" stroke-linecap="round" stroke-linejoin="round"/>
<path d="M141.152 176.68L148.976 173.664C146.896 169.216 145.448 166.16 145.448 166.16C145.448 166.16 152.592 158.16 152.592 156.56C152.592 154.96 150.192 150.16 148.32 149.088C146.448 148.016 143.792 152.288 143.256 153.624C142.72 154.96 144.056 161.088 144.056 161.088L138.456 169.152L141.152 176.68Z" fill="white" stroke="black" stroke-linecap="round" stroke-linejoin="round"/>
<path d="M144.096 152.672L146.528 160.088" stroke="black" stroke-linecap="round" stroke-linejoin="round"/>
<path d="M145.712 150.104L149.088 158.2" stroke="black" stroke-linecap="round" stroke-linejoin="round"/>
<path d="M147.736 148.888L151.384 156.984" stroke="black" stroke-linecap="round" stroke-linejoin="round"/>
<path d="M64.376 204.408C64.376 204.408 68.272 259.816 70.048 260.816C71.824 261.816 77.6 257.88 77.6 257.88L82.856 230.992L64.376 204.408Z" fill="white" stroke="black" stroke-linecap="round" stroke-linejoin="round"/>
<path d="M70.92 245.352L94.696 224.064L94.568 217.88L100.168 213.128C100.168 213.128 101.344 209.768 101.992 211.176C102.64 212.584 103.088 213.448 102.44 214.448C101.792 215.448 99.944 217.648 99.944 217.648L107.896 216.096C107.896 216.096 109.896 217.392 109.256 218.392C108.607 219.173 107.807 219.815 106.904 220.28L105.848 222.584C105.848 222.584 105.264 225.464 104.328 226.704C103.392 227.944 98.68 229.312 98.68 229.312C98.68 229.312 81.36 255.328 79.128 258.568C76.896 261.808 73.256 265.712 70.608 265.424C67.96 265.136 68 250.4 68 250.4" fill="white"/>
<path d="M70.92 245.352L94.696 224.064L94.568 217.88L100.168 213.128C100.168 213.128 101.344 209.768 101.992 211.176C102.64 212.584 103.088 213.448 102.44 214.448C101.792 215.448 99.944 217.648 99.944 217.648L107.896 216.096C107.896 216.096 109.896 217.392 109.256 218.392C108.607 219.173 107.807 219.815 106.904 220.28L105.848 222.584C105.848 222.584 105.264 225.464 104.328 226.704C103.392 227.944 98.68 229.312 98.68 229.312C98.68 229.312 81.36 255.328 79.128 258.568C76.896 261.808 73.256 265.712 70.608 265.424C67.96 265.136 68 250.4 68 250.4" stroke="black" stroke-linecap="round" stroke-linejoin="round"/>
<path d="M107.904 216.112L99.952 217.664C99.952 217.664 101.8 215.448 102.448 214.464C103.096 213.48 102.648 212.608 102 211.192C101.352 209.776 100.176 213.144 100.176 213.144L94.576 217.896L94.704 224.08L91.272 227.16L96.872 232.112L98.72 229.344C98.72 229.344 103.424 227.976 104.368 226.736C105.312 225.496 105.888 222.616 105.888 222.616L106.944 220.312C107.847 219.847 108.647 219.205 109.296 218.424C109.904 217.408 107.904 216.112 107.904 216.112Z" fill="white" stroke="black" stroke-linecap="round" stroke-linejoin="round"/>
<path d="M88.4561 229.92L94.6241 235.128" stroke="black" stroke-linecap="round" stroke-linejoin="round"/>
</svg>
