<svg width="400" height="400" viewBox="0 0 400 400" fill="none" xmlns="http://www.w3.org/2000/svg">
<path d="M374.8 227.328C363.024 258.872 338.96 293.016 305.096 303.128C253.896 318.408 247.816 359.648 156.168 355.824C142.786 355.33 129.497 353.383 116.536 350.016C110.201 348.344 103.978 346.273 97.9039 343.816C44.3599 322.128 16.4319 274.4 14.1119 224.464C11.0559 158.776 56.8799 127.472 86.6639 109.144C116.448 90.816 152.344 19.784 242.472 22.832C256.232 23.2508 269.898 25.2533 283.2 28.8C313.528 37.008 344.352 55.2 362.272 81.696C363.616 83.696 364.901 85.736 366.128 87.816C390.104 128.472 390.864 184.32 374.8 227.328Z" fill="#EAEDFF"/>
<path opacity="0.7" d="M374.8 227.328C363.024 258.872 338.96 293.016 305.096 303.128C253.896 318.408 247.816 359.648 156.168 355.824C142.786 355.33 129.497 353.383 116.536 350.016C110.201 348.344 103.978 346.273 97.9039 343.816C44.3599 322.128 16.4319 274.4 14.1119 224.464C11.0559 158.776 56.8799 127.472 86.6639 109.144C116.448 90.816 152.344 19.784 242.472 22.832C256.232 23.2508 269.898 25.2533 283.2 28.8C313.528 37.008 344.352 55.2 362.272 81.696C363.616 83.696 364.901 85.736 366.128 87.816C390.104 128.472 390.864 184.32 374.8 227.328Z" fill="#EAEDFF"/>
<path d="M304.872 260.512L305 252.736H306.472L307.576 258.128L308.728 252.736H310.152L310.296 260.512H309.24L309.12 255.112L308 260.512H307.2L306.072 255.096L305.968 260.512H304.872Z" fill="black"/>
<path d="M311.048 260.512L312.608 252.736H314.12L315.72 260.512H314.4L314.096 258.72H312.744L312.424 260.512H311.048ZM312.848 257.816H313.904L313.376 254.552L312.848 257.816Z" fill="black"/>
<path d="M316.416 260.512V252.736H318.28C318.73 252.725 319.179 252.79 319.608 252.928C319.942 253.039 320.226 253.266 320.408 253.568C320.619 253.94 320.719 254.365 320.696 254.792C320.698 255.077 320.668 255.362 320.608 255.64C320.561 255.874 320.459 256.093 320.312 256.28C320.163 256.465 319.967 256.606 319.744 256.688L320.832 260.512H319.408L318.472 256.952H317.816V260.512H316.416ZM317.84 256.064H318.28C318.505 256.074 318.729 256.033 318.936 255.944C319.099 255.866 319.225 255.729 319.288 255.56C319.366 255.342 319.401 255.111 319.392 254.88C319.413 254.571 319.338 254.264 319.176 254C319.073 253.894 318.948 253.813 318.809 253.764C318.671 253.714 318.522 253.696 318.376 253.712H317.856L317.84 256.064Z" fill="black"/>
<path d="M321.784 260.512V252.736H323.2V256.16L324.736 252.736H326.088L324.6 256.216L326.24 260.512H324.832L323.52 256.976L323.2 257.568V260.512H321.784Z" fill="black"/>
<path d="M326.808 260.512V252.736H330.072V253.736H328.224V256H329.672V256.992H328.224V259.56H330.088V260.536L326.808 260.512Z" fill="black"/>
<path d="M331.688 260.512V253.784H330.456V252.736H334.328V253.784H333.112V260.512H331.688Z" fill="black"/>
<path d="M337 260.624C336.593 260.637 336.189 260.54 335.832 260.344C335.513 260.163 335.263 259.882 335.12 259.544C334.948 259.133 334.856 258.693 334.848 258.248L336.072 258.008C336.078 258.278 336.113 258.546 336.176 258.808C336.222 259.005 336.319 259.187 336.456 259.336C336.521 259.4 336.598 259.451 336.684 259.484C336.769 259.517 336.86 259.532 336.952 259.528C337.044 259.537 337.137 259.523 337.223 259.486C337.308 259.45 337.383 259.393 337.44 259.32C337.541 259.166 337.591 258.984 337.584 258.8C337.6 258.502 337.518 258.207 337.352 257.96C337.178 257.719 336.973 257.501 336.744 257.312L335.76 256.448C335.497 256.221 335.275 255.95 335.104 255.648C334.932 255.314 334.847 254.943 334.856 254.568C334.84 254.306 334.88 254.043 334.974 253.797C335.068 253.552 335.213 253.329 335.4 253.144C335.804 252.793 336.33 252.615 336.864 252.648C337.176 252.637 337.488 252.695 337.776 252.816C338.009 252.916 338.21 253.076 338.36 253.28C338.506 253.486 338.614 253.716 338.68 253.96C338.752 254.221 338.797 254.489 338.816 254.76L337.608 254.968C337.598 254.747 337.568 254.528 337.52 254.312C337.489 254.146 337.415 253.991 337.304 253.864C337.241 253.808 337.167 253.765 337.088 253.738C337.008 253.71 336.924 253.699 336.84 253.704C336.749 253.697 336.657 253.712 336.572 253.747C336.488 253.781 336.412 253.835 336.352 253.904C336.237 254.052 336.177 254.236 336.184 254.424C336.177 254.651 336.232 254.875 336.344 255.072C336.478 255.265 336.637 255.44 336.816 255.592L337.784 256.448C338.099 256.718 338.369 257.037 338.584 257.392C338.82 257.788 338.939 258.243 338.928 258.704C338.931 259.048 338.846 259.387 338.68 259.688C338.522 259.974 338.286 260.21 338 260.368C337.693 260.535 337.349 260.623 337 260.624Z" fill="black"/>
<path d="M346.112 206.128H314.72V244.16H346.112V206.128Z" fill="black" stroke="black" stroke-linecap="round" stroke-linejoin="round"/>
<path d="M333.56 206.128H302.168V244.16H333.56V206.128Z" fill="white" stroke="black" stroke-linecap="round" stroke-linejoin="round"/>
<path d="M346.112 235.088H314.72V244.16H346.112V235.088Z" fill="white" stroke="black" stroke-linecap="round" stroke-linejoin="round"/>
<path d="M333.56 235.088H302.168V244.16H333.56V235.088Z" fill="white" stroke="black" stroke-linecap="round" stroke-linejoin="round"/>
<path d="M322.376 228.152H313.36V244.168H322.376V228.152Z" fill="white" stroke="black" stroke-linecap="round" stroke-linejoin="round"/>
<path d="M302.696 222.184H295.896L300.816 206.128H307.616L302.696 222.184Z" fill="white" stroke="black" stroke-linecap="round" stroke-linejoin="round"/>
<path d="M295.896 221.488H302.696V224.592C302.696 225.466 302.349 226.305 301.731 226.923C301.112 227.541 300.274 227.888 299.4 227.888H299.2C298.326 227.888 297.488 227.541 296.869 226.923C296.251 226.305 295.904 225.466 295.904 224.592V221.488H295.896Z" fill="white" stroke="black" stroke-linecap="round" stroke-linejoin="round"/>
<path d="M309.28 222.184H302.48L307.4 206.128H314.2L309.28 222.184Z" fill="black" stroke="black" stroke-linecap="round" stroke-linejoin="round"/>
<path d="M302.48 221.488H309.28V224.592C309.28 225.466 308.933 226.305 308.315 226.923C307.696 227.541 306.858 227.888 305.984 227.888H305.768C304.894 227.888 304.055 227.541 303.437 226.923C302.819 226.305 302.472 225.466 302.472 224.592V221.488H302.48Z" fill="black" stroke="black" stroke-linecap="round" stroke-linejoin="round"/>
<path d="M315.864 222.184H309.056L313.976 206.128H320.784L315.864 222.184Z" fill="white" stroke="black" stroke-linecap="round" stroke-linejoin="round"/>
<path d="M309.056 221.488H315.856V224.592C315.856 225.025 315.771 225.453 315.605 225.853C315.44 226.253 315.197 226.617 314.891 226.923C314.585 227.229 314.221 227.472 313.821 227.637C313.422 227.803 312.993 227.888 312.56 227.888H312.344C311.47 227.888 310.632 227.541 310.013 226.923C309.395 226.305 309.048 225.466 309.048 224.592V221.488H309.056Z" fill="white" stroke="black" stroke-linecap="round" stroke-linejoin="round"/>
<path d="M322.44 222.184H315.64L320.56 206.128H327.36L322.44 222.184Z" fill="black" stroke="black" stroke-linecap="round" stroke-linejoin="round"/>
<path d="M315.64 221.488H322.44V224.592C322.44 225.466 322.093 226.305 321.475 226.923C320.857 227.541 320.018 227.888 319.144 227.888H318.928C318.054 227.888 317.216 227.541 316.597 226.923C315.979 226.305 315.632 225.466 315.632 224.592V221.488H315.64Z" fill="black" stroke="black" stroke-linecap="round" stroke-linejoin="round"/>
<path d="M329.024 222.184H322.224L327.144 206.128H333.944L329.024 222.184Z" fill="white" stroke="black" stroke-linecap="round" stroke-linejoin="round"/>
<path d="M322.224 221.488H329.024V224.592C329.024 225.466 328.677 226.305 328.059 226.923C327.441 227.541 326.602 227.888 325.728 227.888H325.512C324.638 227.888 323.8 227.541 323.181 226.923C322.563 226.305 322.216 225.466 322.216 224.592V221.488H322.224Z" fill="white" stroke="black" stroke-linecap="round" stroke-linejoin="round"/>
<path d="M293.408 208.784L311.552 192.752L326.984 198.8L345.432 186.096" stroke="black" stroke-linecap="round" stroke-linejoin="round"/>
<path d="M345.432 187.608C346.267 187.608 346.944 186.931 346.944 186.096C346.944 185.261 346.267 184.584 345.432 184.584C344.597 184.584 343.92 185.261 343.92 186.096C343.92 186.931 344.597 187.608 345.432 187.608Z" fill="black" stroke="black" stroke-linecap="round" stroke-linejoin="round"/>
<path d="M327.28 200.312C328.115 200.312 328.792 199.635 328.792 198.8C328.792 197.965 328.115 197.288 327.28 197.288C326.445 197.288 325.768 197.965 325.768 198.8C325.768 199.635 326.445 200.312 327.28 200.312Z" fill="black" stroke="black" stroke-linecap="round" stroke-linejoin="round"/>
<path d="M311.552 194.264C312.387 194.264 313.064 193.587 313.064 192.752C313.064 191.917 312.387 191.24 311.552 191.24C310.717 191.24 310.04 191.917 310.04 192.752C310.04 193.587 310.717 194.264 311.552 194.264Z" fill="black" stroke="black" stroke-linecap="round" stroke-linejoin="round"/>
<path d="M293.408 210.296C294.243 210.296 294.92 209.619 294.92 208.784C294.92 207.949 294.243 207.272 293.408 207.272C292.573 207.272 291.896 207.949 291.896 208.784C291.896 209.619 292.573 210.296 293.408 210.296Z" fill="black" stroke="black" stroke-linecap="round" stroke-linejoin="round"/>
<path d="M310.976 168.68C310.504 168.705 310.036 168.588 309.632 168.344C309.314 168.122 309.077 167.802 308.96 167.432C308.825 166.997 308.76 166.543 308.768 166.088V163.32C308.759 162.851 308.823 162.384 308.96 161.936C309.071 161.565 309.309 161.245 309.632 161.032C310.041 160.801 310.507 160.69 310.976 160.712C311.415 160.69 311.851 160.787 312.24 160.992C312.545 161.173 312.775 161.456 312.888 161.792C313.022 162.172 313.087 162.573 313.08 162.976V163.632H311.712V162.96C311.725 162.76 311.725 162.56 311.712 162.36C311.7 162.202 311.635 162.053 311.528 161.936C311.458 161.876 311.376 161.832 311.288 161.804C311.2 161.777 311.108 161.767 311.016 161.776C310.822 161.76 310.63 161.82 310.48 161.944C310.362 162.067 310.287 162.224 310.264 162.392C310.231 162.604 310.215 162.818 310.216 163.032V166.4C310.211 166.634 310.235 166.868 310.288 167.096C310.32 167.255 310.404 167.399 310.528 167.504C310.669 167.607 310.842 167.658 311.016 167.648C311.107 167.658 311.199 167.648 311.286 167.619C311.373 167.59 311.453 167.542 311.52 167.48C311.624 167.352 311.688 167.196 311.704 167.032C311.735 166.825 311.748 166.617 311.744 166.408V165.704H313.112V166.328C313.118 166.743 313.056 167.157 312.928 167.552C312.808 167.882 312.583 168.163 312.288 168.352C311.893 168.59 311.436 168.704 310.976 168.68Z" fill="black"/>
<path d="M316.2 168.68C315.731 168.707 315.265 168.598 314.856 168.368C314.533 168.157 314.297 167.836 314.192 167.464C314.062 167.009 314 166.537 314.008 166.064V160.8H315.392V166.224C315.391 166.454 315.407 166.684 315.44 166.912C315.461 167.104 315.539 167.285 315.664 167.432C315.735 167.5 315.819 167.552 315.911 167.585C316.004 167.618 316.102 167.632 316.2 167.624C316.298 167.633 316.397 167.621 316.489 167.588C316.582 167.554 316.666 167.501 316.736 167.432C316.858 167.283 316.935 167.103 316.96 166.912C316.996 166.684 317.015 166.454 317.016 166.224V160.8H318.4V166.064C318.412 166.537 318.35 167.01 318.216 167.464C318.113 167.834 317.88 168.155 317.56 168.368C317.148 168.604 316.674 168.713 316.2 168.68Z" fill="black"/>
<path d="M321.456 168.68C321.049 168.696 320.646 168.602 320.288 168.408C319.972 168.223 319.723 167.943 319.576 167.608C319.404 167.197 319.312 166.757 319.304 166.312L320.528 166.072C320.533 166.342 320.57 166.611 320.64 166.872C320.682 167.069 320.776 167.251 320.912 167.4C320.977 167.464 321.055 167.514 321.14 167.547C321.225 167.58 321.317 167.595 321.408 167.592C321.5 167.601 321.593 167.587 321.679 167.551C321.764 167.514 321.839 167.457 321.896 167.384C321.998 167.227 322.048 167.043 322.04 166.856C322.047 166.573 321.969 166.294 321.816 166.056C321.635 165.816 321.428 165.596 321.2 165.4L320.216 164.536C319.952 164.31 319.73 164.039 319.56 163.736C319.389 163.402 319.307 163.031 319.32 162.656C319.303 162.395 319.342 162.134 319.434 161.89C319.527 161.646 319.67 161.424 319.856 161.24C320.26 160.888 320.785 160.708 321.32 160.736C321.633 160.725 321.944 160.783 322.232 160.904C322.465 161.007 322.667 161.17 322.816 161.376C322.962 161.579 323.07 161.807 323.136 162.048C323.21 162.309 323.256 162.577 323.272 162.848L322.064 163.064C322.053 162.844 322.026 162.625 321.984 162.408C321.951 162.241 321.874 162.086 321.76 161.96C321.699 161.901 321.626 161.856 321.546 161.827C321.466 161.798 321.381 161.786 321.296 161.792C321.204 161.786 321.112 161.802 321.027 161.838C320.943 161.874 320.868 161.93 320.808 162C320.694 162.146 320.635 162.327 320.64 162.512C320.63 162.74 320.689 162.966 320.808 163.16C320.937 163.357 321.093 163.535 321.272 163.688L322.248 164.544C322.564 164.814 322.834 165.132 323.048 165.488C323.286 165.883 323.406 166.339 323.392 166.8C323.399 167.144 323.314 167.484 323.144 167.784C322.983 168.068 322.748 168.304 322.464 168.464C322.151 168.619 321.805 168.694 321.456 168.68Z" fill="black"/>
<path d="M325.016 168.576V161.848H323.784V160.8H327.656V161.848H326.44V168.576H325.016Z" fill="black"/>
<path d="M330.44 168.68C329.983 168.706 329.527 168.601 329.128 168.376C328.801 168.17 328.553 167.86 328.424 167.496C328.278 167.055 328.207 166.593 328.216 166.128V163.2C328.207 162.741 328.278 162.283 328.424 161.848C328.549 161.488 328.799 161.184 329.128 160.992C329.529 160.773 329.983 160.668 330.44 160.688C330.905 160.665 331.367 160.77 331.776 160.992C332.099 161.19 332.345 161.492 332.472 161.848C332.626 162.282 332.699 162.74 332.688 163.2V166.112C332.698 166.572 332.625 167.03 332.472 167.464C332.343 167.826 332.099 168.135 331.776 168.344C331.372 168.581 330.908 168.697 330.44 168.68ZM330.44 167.64C330.616 167.663 330.794 167.615 330.935 167.507C331.076 167.399 331.168 167.24 331.192 167.064C331.232 166.869 331.251 166.671 331.248 166.472V162.896C331.252 162.7 331.233 162.504 331.192 162.312C331.164 162.155 331.085 162.012 330.968 161.904C330.816 161.793 330.628 161.739 330.44 161.752C330.259 161.737 330.079 161.792 329.936 161.904C329.814 162.009 329.732 162.153 329.704 162.312C329.663 162.504 329.645 162.7 329.648 162.896V166.472C329.647 166.67 329.663 166.869 329.696 167.064C329.723 167.225 329.805 167.372 329.928 167.48C330.073 167.595 330.255 167.652 330.44 167.64Z" fill="black"/>
<path d="M333.72 168.576L333.848 160.8H335.32L336.424 166.184L337.6 160.8H339.024L339.168 168.576H338.112L337.992 163.176L336.888 168.576H336L334.88 163.152L334.776 168.576H333.72Z" fill="black"/>
<path d="M340.232 168.576V160.8H343.496V161.8H341.656V164.04H343.104V165.024H341.656V167.6H343.52V168.576H340.232Z" fill="black"/>
<path d="M344.344 168.576V160.8H346.208C346.658 160.789 347.107 160.854 347.536 160.992C347.868 161.103 348.151 161.327 348.336 161.624C348.546 161.999 348.646 162.426 348.624 162.856C348.625 163.141 348.596 163.425 348.536 163.704C348.485 163.934 348.384 164.15 348.24 164.336C348.091 164.521 347.895 164.662 347.672 164.744L348.752 168.576H347.36L346.4 165.016H345.752V168.576H344.344ZM345.768 164.12H346.208C346.433 164.13 346.657 164.089 346.864 164C347.025 163.92 347.151 163.784 347.216 163.616C347.293 163.401 347.328 163.173 347.32 162.944C347.342 162.635 347.267 162.327 347.104 162.064C347.002 161.957 346.877 161.875 346.738 161.824C346.599 161.773 346.451 161.754 346.304 161.768H345.792L345.768 164.12Z" fill="black"/>
<path d="M351.672 168.68C351.263 168.696 350.857 168.602 350.496 168.408C350.18 168.223 349.931 167.943 349.784 167.608C349.612 167.198 349.522 166.757 349.52 166.312L350.736 166.072C350.745 166.342 350.782 166.61 350.848 166.872C350.893 167.07 350.989 167.252 351.128 167.4C351.192 167.465 351.27 167.516 351.355 167.549C351.441 167.582 351.532 167.597 351.624 167.592C351.716 167.6 351.809 167.585 351.894 167.548C351.979 167.512 352.054 167.456 352.112 167.384C352.214 167.227 352.264 167.043 352.256 166.856C352.261 166.572 352.18 166.293 352.024 166.056C351.845 165.814 351.638 165.594 351.408 165.4L350.4 164.504C350.131 164.283 349.908 164.011 349.744 163.704C349.567 163.372 349.481 163 349.496 162.624C349.479 162.363 349.518 162.102 349.61 161.858C349.703 161.613 349.846 161.392 350.032 161.208C350.438 160.854 350.966 160.674 351.504 160.704C351.816 160.695 352.127 160.752 352.416 160.872C352.646 160.977 352.844 161.139 352.992 161.344C353.141 161.547 353.252 161.774 353.32 162.016C353.388 162.278 353.431 162.546 353.448 162.816L352.24 163.032C352.229 162.812 352.202 162.593 352.16 162.376C352.135 162.207 352.057 162.049 351.936 161.928C351.875 161.869 351.802 161.823 351.722 161.794C351.642 161.765 351.557 161.753 351.472 161.76C351.381 161.754 351.29 161.77 351.207 161.806C351.124 161.842 351.05 161.898 350.992 161.968C350.878 162.114 350.819 162.295 350.824 162.48C350.812 162.707 350.867 162.933 350.984 163.128C351.116 163.325 351.275 163.503 351.456 163.656L352.424 164.512C352.737 164.784 353.007 165.102 353.224 165.456C353.457 165.853 353.574 166.308 353.56 166.768C353.566 167.111 353.483 167.45 353.32 167.752C353.157 168.037 352.919 168.272 352.632 168.432C352.337 168.591 352.007 168.676 351.672 168.68Z" fill="black"/>
<path d="M338.816 113.104H319.912V131.528H338.816V113.104Z" fill="black" stroke="black" stroke-linecap="round" stroke-linejoin="round"/>
<path d="M349.6 152.432C349.495 147.145 347.321 142.111 343.545 138.409C339.769 134.707 334.692 132.634 329.404 132.634C324.116 132.634 319.039 134.707 315.263 138.409C311.487 142.111 309.313 147.145 309.208 152.432H349.6Z" fill="white" stroke="black" stroke-linecap="round" stroke-linejoin="round"/>
<path d="M335.92 133.392L329.864 135.344L323.192 133.392V125.256H335.92V133.392Z" fill="white" stroke="black" stroke-linecap="round" stroke-linejoin="round"/>
<path d="M339.2 115.04C339.2 115.36 339.2 115.656 339.2 115.96C338.96 126.048 334.688 130.144 329.408 130.144C324.128 130.144 319.808 126.8 319.632 115.928C319.632 115.648 319.632 115.344 319.632 115.04C319.632 108.824 324.024 103.792 329.416 103.792C334.808 103.792 339.2 108.8 339.2 115.04Z" fill="white" stroke="black" stroke-linecap="round" stroke-linejoin="round"/>
<path d="M339.2 115.04C339.2 115.36 339.2 115.656 339.2 115.96C336.809 115.278 334.672 113.905 333.058 112.014C331.445 110.123 330.425 107.797 330.128 105.328C330.128 105.328 326.544 114.288 319.632 115.928C319.632 115.648 319.632 115.344 319.632 115.04C319.632 108.824 324.024 103.792 329.416 103.792C334.808 103.792 339.2 108.8 339.2 115.04Z" fill="black" stroke="black" stroke-linecap="round" stroke-linejoin="round"/>
<path d="M235.272 96.072V88.296H237.104C237.613 88.2699 238.121 88.3573 238.592 88.552C238.935 88.716 239.206 89.0009 239.352 89.352C239.517 89.7858 239.593 90.2483 239.576 90.712V93.552C239.592 94.0313 239.516 94.5092 239.352 94.96C239.208 95.3102 238.941 95.5951 238.6 95.76C238.152 95.967 237.661 96.0631 237.168 96.04L235.272 96.072ZM236.696 95.08H237.128C237.376 95.103 237.624 95.0409 237.832 94.904C237.976 94.7728 238.067 94.5936 238.088 94.4C238.123 94.1348 238.139 93.8675 238.136 93.6V90.624C238.145 90.3554 238.121 90.0867 238.064 89.824C238.033 89.6525 237.935 89.5002 237.792 89.4C237.578 89.2981 237.341 89.254 237.104 89.272H236.696V95.08Z" fill="black"/>
<path d="M240.664 96.0721V88.2961H242.064V96.0721H240.664Z" fill="black"/>
<path d="M245.224 96.176C244.815 96.187 244.41 96.0934 244.048 95.904C243.733 95.7178 243.485 95.4381 243.336 95.104C243.164 94.6936 243.074 94.2531 243.072 93.808L244.288 93.568C244.297 93.8379 244.334 94.1061 244.4 94.368C244.445 94.568 244.542 94.7528 244.68 94.904C244.745 94.9656 244.822 95.0137 244.905 95.0453C244.989 95.0769 245.079 95.0914 245.168 95.088C245.261 95.097 245.356 95.0827 245.442 95.0464C245.529 95.0101 245.605 94.9529 245.664 94.88C245.765 94.7258 245.815 94.5441 245.808 94.36C245.811 94.0763 245.73 93.7982 245.576 93.56C245.399 93.3188 245.192 93.1011 244.96 92.912L244 92C243.735 91.775 243.513 91.504 243.344 91.2C243.169 90.8677 243.083 90.4954 243.096 90.12C243.079 89.8582 243.118 89.5958 243.211 89.3503C243.303 89.1047 243.447 88.8817 243.632 88.696C244.041 88.349 244.568 88.1715 245.104 88.2C245.416 88.1908 245.727 88.2481 246.016 88.368C246.245 88.4699 246.444 88.6298 246.592 88.832C246.741 89.0361 246.85 89.2669 246.912 89.512C246.987 89.7727 247.033 90.0411 247.048 90.312L245.84 90.52C245.828 90.3024 245.801 90.0859 245.76 89.872C245.732 89.7013 245.654 89.5427 245.536 89.416C245.474 89.3593 245.4 89.316 245.32 89.2885C245.241 89.2609 245.156 89.2499 245.072 89.256C244.98 89.2497 244.888 89.2652 244.803 89.3014C244.718 89.3375 244.643 89.3933 244.584 89.464C244.471 89.6101 244.411 89.791 244.416 89.976C244.406 90.2039 244.465 90.4296 244.584 90.624C244.714 90.8205 244.873 90.9959 245.056 91.144L246.024 92C246.335 92.2738 246.605 92.5919 246.824 92.944C247.058 93.3409 247.174 93.7957 247.16 94.256C247.166 94.6017 247.083 94.9432 246.92 95.248C246.759 95.5323 246.52 95.7652 246.232 95.92C245.925 96.0931 245.577 96.1814 245.224 96.176Z" fill="black"/>
<path d="M248.8 96.0721V89.3361H247.56V88.2961H251.44V89.3361H250.216V96.0721H248.8Z" fill="black"/>
<path d="M252.136 96.0722V88.2962H253.992C254.444 88.283 254.896 88.3451 255.328 88.4802C255.66 88.5962 255.942 88.822 256.128 89.1202C256.332 89.4948 256.429 89.9182 256.408 90.3442C256.41 90.6292 256.381 90.9136 256.32 91.1922C256.273 91.4242 256.174 91.6428 256.032 91.8322C255.88 92.0171 255.681 92.1579 255.456 92.2402L256.544 96.0722H255.12L254.184 92.5042H253.528V96.0722H252.136ZM253.552 91.6162H253.992C254.217 91.6266 254.441 91.5856 254.648 91.4962C254.73 91.4592 254.803 91.4061 254.863 91.3401C254.924 91.2741 254.97 91.1966 255 91.1122C255.078 90.8942 255.113 90.6634 255.104 90.4322C255.124 90.1247 255.051 89.8184 254.896 89.5522C254.792 89.4483 254.666 89.3687 254.528 89.3189C254.39 89.2691 254.242 89.2504 254.096 89.2642H253.576L253.552 91.6162Z" fill="black"/>
<path d="M257.536 96.0721V88.2961H258.936V96.0721H257.536Z" fill="black"/>
<path d="M260.136 96.0721V88.2961H262.048C262.363 88.293 262.677 88.3252 262.984 88.3921C263.244 88.4458 263.49 88.5549 263.704 88.7121C263.911 88.8687 264.072 89.0789 264.168 89.3201C264.29 89.6277 264.347 89.9573 264.336 90.2881C264.34 90.5609 264.294 90.8321 264.2 91.0881C264.127 91.2984 263.997 91.484 263.824 91.6241C263.639 91.7594 263.426 91.8498 263.2 91.8881C263.491 91.9196 263.768 92.0303 264 92.2081C264.203 92.378 264.358 92.5989 264.448 92.8481C264.554 93.1513 264.606 93.4709 264.6 93.7921C264.606 94.1258 264.558 94.4582 264.456 94.7761C264.378 95.044 264.235 95.2886 264.04 95.4881C263.852 95.6859 263.619 95.8343 263.36 95.9201C263.053 96.0213 262.731 96.07 262.408 96.0641L260.136 96.0721ZM261.56 91.4721H262.04C262.263 91.4854 262.486 91.4413 262.688 91.3441C262.765 91.3049 262.834 91.2508 262.89 91.1849C262.947 91.119 262.989 91.0426 263.016 90.9601C263.079 90.75 263.108 90.5314 263.104 90.3121C263.115 90.0906 263.068 89.8699 262.968 89.6721C262.872 89.5177 262.72 89.4061 262.544 89.3601C262.314 89.3037 262.077 89.2768 261.84 89.2801H261.6L261.56 91.4721ZM261.56 95.0721H262.096C262.256 95.0929 262.418 95.0755 262.57 95.0212C262.721 94.967 262.858 94.8775 262.968 94.7601C263.144 94.4693 263.225 94.131 263.2 93.7921C263.207 93.5342 263.169 93.2769 263.088 93.0321C263.026 92.8463 262.898 92.6897 262.728 92.5921C262.517 92.488 262.283 92.4385 262.048 92.4481H261.6L261.56 95.0721Z" fill="black"/>
<path d="M267.616 96.1761C267.146 96.2035 266.679 96.0922 266.272 95.8561C265.949 95.6448 265.713 95.3237 265.608 94.9521C265.477 94.4972 265.415 94.0254 265.424 93.5521V88.2961H266.808V93.7201C266.807 93.9477 266.823 94.175 266.856 94.4001C266.879 94.5914 266.957 94.772 267.08 94.9201C267.227 95.0551 267.42 95.1299 267.62 95.1299C267.82 95.1299 268.012 95.0551 268.16 94.9201C268.28 94.7711 268.355 94.5906 268.376 94.4001C268.416 94.1757 268.434 93.9481 268.432 93.7201V88.2961H269.808V93.5521C269.817 94.0254 269.755 94.4972 269.624 94.9521C269.521 95.3225 269.288 95.6434 268.968 95.8561C268.559 96.0938 268.088 96.2051 267.616 96.1761Z" fill="black"/>
<path d="M271.696 96.0721V89.3361H270.456V88.2961H274.336V89.3361H273.12V96.0721H271.696Z" fill="black"/>
<path d="M275.088 96.0721V88.2961H276.488V96.0721H275.088Z" fill="black"/>
<path d="M279.8 96.176C279.339 96.1989 278.882 96.0907 278.48 95.864C278.154 95.6596 277.908 95.3488 277.784 94.984C277.64 94.5376 277.577 94.0687 277.6 93.6V90.688C277.589 90.228 277.662 89.7698 277.816 89.336C277.945 88.9805 278.19 88.6789 278.512 88.48C278.926 88.2853 279.378 88.1843 279.836 88.1843C280.294 88.1843 280.746 88.2853 281.16 88.48C281.482 88.6808 281.729 88.9814 281.864 89.336C282.018 89.7698 282.091 90.228 282.08 90.688V93.6C282.09 94.0574 282.017 94.5129 281.864 94.944C281.733 95.309 281.485 95.6208 281.16 95.832C280.751 96.0796 280.278 96.1994 279.8 96.176ZM279.8 95.128C279.887 95.1403 279.975 95.1351 280.06 95.1127C280.145 95.0902 280.224 95.0509 280.294 94.9972C280.363 94.9435 280.421 94.8765 280.464 94.8C280.507 94.7235 280.534 94.6392 280.544 94.552C280.587 94.3603 280.608 94.1645 280.608 93.968V90.4C280.609 90.2036 280.587 90.0077 280.544 89.816C280.52 89.6579 280.44 89.5134 280.32 89.408C280.166 89.3088 279.987 89.2561 279.804 89.2561C279.621 89.2561 279.442 89.3088 279.288 89.408C279.168 89.5151 279.087 89.6583 279.056 89.816C279.02 90.0086 279.001 90.2041 279 90.4V93.984C278.997 94.1802 279.016 94.376 279.056 94.568C279.066 94.6552 279.093 94.7395 279.136 94.816C279.179 94.8925 279.237 94.9595 279.306 95.0132C279.376 95.0669 279.455 95.1062 279.54 95.1287C279.625 95.1511 279.713 95.1563 279.8 95.144V95.128Z" fill="black"/>
<path d="M283.088 96.0721V88.2961H284.08L285.968 92.7281V88.2961H287.144V96.0721H286.2L284.304 91.4241V96.0721H283.088Z" fill="black"/>
<path d="M250.624 84.408C254.079 84.408 256.88 81.6071 256.88 78.152C256.88 74.6969 254.079 71.896 250.624 71.896C247.169 71.896 244.368 74.6969 244.368 78.152C244.368 81.6071 247.169 84.408 250.624 84.408Z" fill="black" stroke="black" stroke-linecap="round" stroke-linejoin="round"/>
<path d="M286.136 84.408C289.591 84.408 292.392 81.6071 292.392 78.152C292.392 74.6969 289.591 71.896 286.136 71.896C282.681 71.896 279.88 74.6969 279.88 78.152C279.88 81.6071 282.681 84.408 286.136 84.408Z" fill="black" stroke="black" stroke-linecap="round" stroke-linejoin="round"/>
<path d="M246.784 77.992H226.872V65.896L233.896 58.176H246.784V77.992Z" fill="white" stroke="black" stroke-linecap="round" stroke-linejoin="round"/>
<path d="M242.24 61.0161H236.504V66.4241H242.24V61.0161Z" fill="black"/>
<path d="M235.2 61.0161H234.736L229.816 66.4161H235.2V61.0161Z" fill="black"/>
<path d="M229.464 75.0242H225.032V77.8882H229.464V75.0242Z" fill="white" stroke="black" stroke-linecap="round" stroke-linejoin="round"/>
<path d="M294.12 42.6001H251.648V77.9921H294.12V42.6001Z" fill="black" stroke="black" stroke-linecap="round" stroke-linejoin="round"/>
<path d="M286.584 42.6001H244.112V77.9921H286.584V42.6001Z" fill="white" stroke="black" stroke-linecap="round" stroke-linejoin="round"/>
<path d="M239.368 84.408C242.823 84.408 245.624 81.6071 245.624 78.152C245.624 74.6969 242.823 71.896 239.368 71.896C235.913 71.896 233.112 74.6969 233.112 78.152C233.112 81.6071 235.913 84.408 239.368 84.408Z" fill="black" stroke="black" stroke-linecap="round" stroke-linejoin="round"/>
<path d="M241.92 78.152C241.921 77.647 241.773 77.1528 241.494 76.7321C241.214 76.3113 240.816 75.983 240.35 75.7886C239.884 75.5942 239.371 75.5425 238.875 75.6401C238.379 75.7377 237.924 75.9801 237.566 76.3367C237.209 76.6933 236.965 77.148 236.866 77.6432C236.766 78.1385 236.816 78.652 237.009 79.1188C237.202 79.5856 237.529 79.9846 237.949 80.2654C238.369 80.5462 238.863 80.696 239.368 80.696C240.043 80.696 240.691 80.4283 241.17 79.9514C241.648 79.4745 241.918 78.8275 241.92 78.152Z" fill="white" stroke="black" stroke-linecap="round" stroke-linejoin="round"/>
<path d="M274.88 84.408C278.335 84.408 281.136 81.6071 281.136 78.152C281.136 74.6969 278.335 71.896 274.88 71.896C271.425 71.896 268.624 74.6969 268.624 78.152C268.624 81.6071 271.425 84.408 274.88 84.408Z" fill="black" stroke="black" stroke-linecap="round" stroke-linejoin="round"/>
<path d="M277.432 78.152C277.433 77.647 277.285 77.1528 277.006 76.7321C276.726 76.3113 276.328 75.983 275.862 75.7886C275.396 75.5942 274.882 75.5425 274.387 75.6401C273.891 75.7377 273.436 75.9801 273.078 76.3367C272.72 76.6933 272.477 77.148 272.378 77.6432C272.278 78.1385 272.328 78.652 272.521 79.1188C272.714 79.5856 273.041 79.9846 273.461 80.2654C273.881 80.5462 274.375 80.696 274.88 80.696C275.555 80.696 276.203 80.4283 276.682 79.9514C277.16 79.4745 277.43 78.8275 277.432 78.152Z" fill="white" stroke="black" stroke-linecap="round" stroke-linejoin="round"/>
<path d="M263.888 70.2322C270.409 70.2322 275.696 64.9456 275.696 58.4242C275.696 51.9028 270.409 46.6162 263.888 46.6162C257.367 46.6162 252.08 51.9028 252.08 58.4242C252.08 64.9456 257.367 70.2322 263.888 70.2322Z" fill="white" stroke="black" stroke-linecap="round" stroke-linejoin="round"/>
<path d="M263.888 65.12C267.586 65.12 270.584 62.1221 270.584 58.424C270.584 54.7259 267.586 51.728 263.888 51.728C260.19 51.728 257.192 54.7259 257.192 58.424C257.192 62.1221 260.19 65.12 263.888 65.12Z" fill="white" stroke="black" stroke-linecap="round" stroke-linejoin="round"/>
<path d="M127.2 96.1759C126.731 96.2028 126.265 96.0855 125.864 95.8399C125.541 95.6175 125.302 95.2937 125.184 94.9199C125.049 94.4877 124.984 94.0366 124.992 93.5839V90.8079C124.983 90.3394 125.048 89.8724 125.184 89.4239C125.301 89.0536 125.541 88.7345 125.864 88.5199C126.267 88.3214 126.71 88.2148 127.16 88.2079C127.609 88.201 128.055 88.2939 128.464 88.4799C128.768 88.6615 128.997 88.945 129.112 89.2799C129.247 89.657 129.312 90.0555 129.304 90.4559V91.1119H127.944V90.3999C127.944 90.1839 127.944 89.9839 127.944 89.8079C127.927 89.6487 127.863 89.4983 127.76 89.3759C127.617 89.2571 127.433 89.1996 127.248 89.2159C127.152 89.207 127.055 89.2173 126.963 89.2461C126.871 89.275 126.786 89.3218 126.712 89.3839C126.593 89.5086 126.517 89.6686 126.496 89.8399C126.462 90.0515 126.446 90.2656 126.448 90.4799V93.8559C126.445 94.0895 126.466 94.3228 126.512 94.5519C126.547 94.7141 126.634 94.8604 126.76 94.9679C126.904 95.0649 127.075 95.1126 127.248 95.1039C127.339 95.1121 127.431 95.1014 127.518 95.0725C127.604 95.0436 127.684 94.9971 127.752 94.9359C127.856 94.8076 127.92 94.6519 127.936 94.4879C127.963 94.281 127.976 94.0726 127.976 93.8639V93.1679H129.336V93.7919C129.345 94.2074 129.283 94.6214 129.152 95.0159C129.034 95.3443 128.812 95.6253 128.52 95.8159C128.126 96.065 127.666 96.1903 127.2 96.1759Z" fill="black"/>
<path d="M132.416 96.1759C131.955 96.1988 131.498 96.0906 131.096 95.8639C130.77 95.6595 130.524 95.3487 130.4 94.9839C130.247 94.5471 130.174 94.0865 130.184 93.6239V90.7119C130.173 90.2519 130.246 89.7937 130.4 89.3599C130.529 89.0044 130.774 88.7028 131.096 88.5039C131.51 88.3092 131.962 88.2083 132.42 88.2083C132.878 88.2083 133.33 88.3092 133.744 88.5039C134.066 88.7047 134.313 89.0054 134.448 89.3599C134.602 89.7937 134.675 90.2519 134.664 90.7119V93.5999C134.674 94.0574 134.601 94.5128 134.448 94.9439C134.317 95.3089 134.069 95.6208 133.744 95.8319C133.344 96.0734 132.883 96.1929 132.416 96.1759ZM132.416 95.1279C132.503 95.1403 132.591 95.135 132.676 95.1126C132.761 95.0901 132.84 95.0509 132.91 94.9972C132.979 94.9435 133.037 94.8764 133.08 94.7999C133.123 94.7234 133.15 94.6391 133.16 94.5519C133.203 94.3602 133.224 94.1644 133.224 93.9679V90.3999C133.225 90.2035 133.203 90.0076 133.16 89.8159C133.136 89.6578 133.056 89.5134 132.936 89.4079C132.782 89.3087 132.603 89.256 132.42 89.256C132.237 89.256 132.058 89.3087 131.904 89.4079C131.784 89.515 131.703 89.6583 131.672 89.8159C131.635 90.0085 131.617 90.204 131.616 90.3999V93.9839C131.613 94.1801 131.632 94.3759 131.672 94.5679C131.682 94.6551 131.709 94.7394 131.752 94.8159C131.795 94.8924 131.853 94.9595 131.922 95.0132C131.992 95.0669 132.071 95.1061 132.156 95.1286C132.241 95.151 132.329 95.1563 132.416 95.1439V95.1279Z" fill="black"/>
<path d="M135.688 96.0719L135.824 88.2959H137.288L138.4 93.6799L139.552 88.2959H140.976L141.12 96.0719H140.064L139.952 90.6639L138.848 96.0719H137.992L136.864 90.6479L136.76 96.0719H135.688Z" fill="black"/>
<path d="M142.208 96.0719V88.2959H144.488C144.885 88.2762 145.281 88.3647 145.632 88.5519C145.919 88.7288 146.143 88.992 146.272 89.3039C146.419 89.6864 146.49 90.0941 146.48 90.5039C146.498 90.9278 146.407 91.3492 146.216 91.7279C146.058 92.0264 145.805 92.2631 145.496 92.3999C145.148 92.5511 144.771 92.6248 144.392 92.6159H143.592V96.0719H142.208ZM143.624 91.6159H144.168C144.374 91.6245 144.579 91.5862 144.768 91.5039C144.838 91.4679 144.901 91.4183 144.952 91.3578C145.002 91.2974 145.041 91.2274 145.064 91.1519C145.125 90.9361 145.152 90.7121 145.144 90.4879C145.148 90.2596 145.126 90.0315 145.08 89.8079C145.066 89.7278 145.035 89.6515 144.989 89.584C144.944 89.5165 144.885 89.4592 144.816 89.4159C144.614 89.3206 144.391 89.2767 144.168 89.2879H143.624V91.6159Z" fill="black"/>
<path d="M147.2 96.0719V88.2959H150.464V89.2879H148.624V91.5279H150.072V92.5199H148.624V95.0879H150.488V96.0719H147.2Z" fill="black"/>
<path d="M152.112 96.0719V89.3359H150.872V88.2959H154.752V89.3359H153.536V96.0719H152.112Z" fill="black"/>
<path d="M155.504 96.0719V88.2959H156.904V96.0719H155.504Z" fill="black"/>
<path d="M158.88 96.0719V89.3359H157.64V88.2959H161.52V89.3359H160.304V96.0719H158.88Z" fill="black"/>
<path d="M164.304 96.1759C163.846 96.1994 163.39 96.0911 162.992 95.8639C162.663 95.6598 162.415 95.3492 162.288 94.9839C162.142 94.5455 162.072 94.0857 162.08 93.6239V90.7119C162.071 90.2526 162.141 89.7952 162.288 89.3599C162.42 89.0037 162.668 88.7023 162.992 88.5039C163.405 88.3087 163.855 88.2075 164.312 88.2075C164.768 88.2075 165.219 88.3087 165.632 88.5039C165.956 88.7023 166.204 89.0037 166.336 89.3599C166.49 89.7936 166.563 90.2518 166.552 90.7119V93.5999C166.562 94.0573 166.489 94.5127 166.336 94.9439C166.207 95.3103 165.959 95.6229 165.632 95.8319C165.232 96.0733 164.771 96.1929 164.304 96.1759ZM164.304 95.1279C164.492 95.1411 164.679 95.0873 164.832 94.9759C164.948 94.8608 165.026 94.7128 165.056 94.5519C165.096 94.3598 165.115 94.164 165.112 93.9679V90.3999C165.115 90.2037 165.096 90.0078 165.056 89.8159C165.028 89.659 164.949 89.5157 164.832 89.4079C164.679 89.2965 164.492 89.2426 164.304 89.2559C164.123 89.2482 163.946 89.3018 163.8 89.4079C163.678 89.5129 163.596 89.6571 163.568 89.8159C163.527 90.0078 163.509 90.2037 163.512 90.3999V93.9839C163.511 94.1796 163.527 94.375 163.56 94.5679C163.589 94.7288 163.668 94.8768 163.784 94.9919C163.936 95.0958 164.12 95.1439 164.304 95.1279Z" fill="black"/>
<path d="M167.6 96.0718V88.2958H169.464C169.914 88.282 170.363 88.3442 170.792 88.4798C171.124 88.5959 171.406 88.8217 171.592 89.1198C171.796 89.4945 171.892 89.9179 171.872 90.3438C171.877 90.6286 171.85 90.913 171.792 91.1918C171.738 91.423 171.637 91.6408 171.496 91.8318C171.347 92.0164 171.15 92.1574 170.928 92.2398L172.008 96.0718H170.592L169.648 92.5038H168.992V96.0718H167.6ZM169.016 91.6158H169.464C169.689 91.6246 169.913 91.5836 170.12 91.4958C170.281 91.4163 170.407 91.2793 170.472 91.1118C170.546 90.8929 170.581 90.6628 170.576 90.4318C170.597 90.1232 170.522 89.8156 170.36 89.5518C170.257 89.4466 170.131 89.366 169.993 89.3161C169.854 89.2663 169.706 89.2484 169.56 89.2638H169.04L169.016 91.6158Z" fill="black"/>
<path d="M174.92 96.176C174.514 96.1856 174.112 96.092 173.752 95.904C173.437 95.7178 173.188 95.4381 173.04 95.104C172.867 94.6936 172.778 94.2531 172.776 93.808L173.992 93.568C173.997 93.8382 174.034 94.1069 174.104 94.368C174.146 94.5692 174.242 94.7549 174.384 94.904C174.449 94.9656 174.525 95.0137 174.609 95.0453C174.693 95.0769 174.782 95.0914 174.872 95.088C174.965 95.097 175.06 95.0827 175.146 95.0464C175.233 95.0101 175.309 94.9529 175.368 94.88C175.469 94.7258 175.519 94.5441 175.512 94.36C175.515 94.0763 175.434 93.7982 175.28 93.56C175.103 93.3188 174.896 93.1011 174.664 92.912L173.68 92C173.419 91.7707 173.198 91.5005 173.024 91.2C172.855 90.8656 172.773 90.4944 172.784 90.12C172.767 89.8582 172.806 89.5958 172.899 89.3503C172.991 89.1047 173.135 88.8817 173.32 88.696C173.729 88.349 174.256 88.1715 174.792 88.2C175.102 88.19 175.41 88.2473 175.696 88.368C175.929 88.4677 176.13 88.6279 176.28 88.832C176.426 89.0379 176.534 89.2681 176.6 89.512C176.675 89.7727 176.721 90.0411 176.736 90.312L175.528 90.52C175.516 90.3024 175.489 90.0859 175.448 89.872C175.413 89.7035 175.336 89.5466 175.224 89.416C175.161 89.3593 175.088 89.316 175.008 89.2885C174.929 89.2609 174.844 89.2499 174.76 89.256C174.668 89.2497 174.576 89.2652 174.491 89.3014C174.406 89.3375 174.331 89.3933 174.272 89.464C174.158 89.6101 174.099 89.791 174.104 89.976C174.094 90.2039 174.153 90.4296 174.272 90.624C174.402 90.8205 174.561 90.9959 174.744 91.144L175.712 92C176.026 92.2713 176.296 92.5897 176.512 92.944C176.75 93.3391 176.87 93.7947 176.856 94.256C176.863 94.6029 176.778 94.9454 176.608 95.248C176.449 95.5317 176.213 95.7647 175.928 95.92C175.62 96.0927 175.273 96.181 174.92 96.176Z" fill="black"/>
<path d="M167.2 74.2478C167.185 70.1654 165.554 66.2549 162.663 63.3719C159.773 60.4889 155.858 58.868 151.776 58.8638C149.24 58.8564 146.743 59.4835 144.512 60.6878C142.051 62.0074 139.993 63.9684 138.557 66.3627C137.12 68.7571 136.358 71.4956 136.352 74.2878L167.2 74.2478Z" fill="white" stroke="black" stroke-linecap="round" stroke-linejoin="round"/>
<path d="M151.736 58.864C150.12 58.8777 148.516 59.1477 146.984 59.664L147.08 59.84L152.096 72.52L156.712 59.72C155.112 59.1614 153.43 58.8722 151.736 58.864Z" fill="white" stroke="black" stroke-linecap="round" stroke-linejoin="round"/>
<path d="M151.968 60.7039L149.976 62.3519L151.264 63.7519L150.208 65.5119L152.096 72.4799L153.728 65.8639L152.904 63.8719L154.08 62.3519L151.968 60.7039Z" fill="black"/>
<path d="M156.712 59.7038L152.088 61.1918L146.992 59.7038V53.4958H156.712V59.7038Z" fill="white" stroke="black" stroke-linecap="round" stroke-linejoin="round"/>
<path d="M159.2 45.6959C159.2 45.9359 159.2 46.1599 159.2 46.3919C159.016 54.0959 155.76 57.2239 151.736 57.2239C147.712 57.2239 144.424 54.6639 144.264 46.3679C144.264 46.1519 144.264 45.9199 144.264 45.6959C144.264 40.9439 147.616 37.0959 151.744 37.0959C155.872 37.0959 159.2 40.9439 159.2 45.6959Z" fill="white" stroke="black" stroke-linecap="round" stroke-linejoin="round"/>
<path d="M159.2 45.6959C159.2 45.9359 159.2 46.16 159.2 46.392L159.144 46.6319H157.408V43.6639L154.728 40.7039H149.128L147.48 39.0479L147.984 41.2719L145.76 43.7439V46.4559H144.32L144.264 46.3679C144.264 46.1519 144.264 45.9199 144.264 45.6959C144.264 40.9439 147.616 37.0959 151.744 37.0959C155.872 37.0959 159.2 40.9439 159.2 45.6959Z" fill="black"/>
<path d="M147.896 83.272C147.804 79.2431 146.139 75.4102 143.257 72.5933C140.376 69.7764 136.506 68.1992 132.476 68.1992C128.446 68.1992 124.576 69.7764 121.694 72.5933C118.813 75.4102 117.148 79.2431 117.056 83.272H147.896Z" fill="white" stroke="black" stroke-linecap="round" stroke-linejoin="round"/>
<path d="M132.48 67.896C130.864 67.8946 129.257 68.1484 127.72 68.6479L127.816 68.8239L132.84 81.5039L137.448 68.7039C135.848 68.1604 134.169 67.8873 132.48 67.896Z" fill="white" stroke="black" stroke-linecap="round" stroke-linejoin="round"/>
<path d="M132.712 69.7358L130.72 71.3758L132.008 72.7838L130.952 74.5438L132.84 81.5038L134.472 74.8958L133.648 72.9038L134.824 71.3758L132.712 69.7358Z" fill="black"/>
<path d="M137.448 68.728L132.824 70.224L127.736 68.728V62.52H137.448V68.728Z" fill="white" stroke="black" stroke-linecap="round" stroke-linejoin="round"/>
<path d="M139.952 54.7199C139.952 54.9599 139.952 55.1919 139.952 55.4159C139.768 63.1279 136.504 66.2479 132.48 66.2479C128.456 66.2479 125.176 63.6959 125.016 55.3919C125.016 55.1759 125.016 54.9519 125.016 54.7199C125.016 49.9679 128.368 46.1279 132.496 46.1279C136.624 46.1279 139.952 49.9679 139.952 54.7199Z" fill="white" stroke="black" stroke-linecap="round" stroke-linejoin="round"/>
<path d="M139.952 54.7199C139.952 54.9599 139.952 55.1919 139.952 55.4159L139.896 55.6559H138.16V52.6959L135.48 49.7279H129.88L128.224 48.0719L128.728 50.2959L126.464 52.7999V55.5119H125.064L125.008 55.4159C125.008 55.1999 125.008 54.9759 125.008 54.7439C125.008 49.9919 128.36 46.1519 132.488 46.1519C136.616 46.1519 139.952 49.9679 139.952 54.7199Z" fill="black"/>
<path d="M186.592 83.272C186.5 79.2431 184.835 75.4102 181.953 72.5933C179.072 69.7764 175.202 68.1992 171.172 68.1992C167.142 68.1992 163.272 69.7764 160.39 72.5933C157.509 75.4102 155.844 79.2431 155.752 83.272H186.592Z" fill="white" stroke="black" stroke-linecap="round" stroke-linejoin="round"/>
<path d="M171.2 67.8959C169.584 67.8939 167.977 68.1477 166.44 68.6479L166.536 68.8239L171.56 81.5039L176.168 68.7039C174.568 68.1615 172.889 67.8885 171.2 67.8959Z" fill="white" stroke="black" stroke-linecap="round" stroke-linejoin="round"/>
<path d="M171.4 69.7358L169.408 71.3758L170.704 72.7838L169.648 74.5438L171.536 81.5038L173.16 74.8958L172.344 72.9038L173.512 71.3758L171.4 69.7358Z" fill="black"/>
<path d="M176.144 68.728L171.52 70.224L166.424 68.728V62.52H176.144V68.728Z" fill="white" stroke="black" stroke-linecap="round" stroke-linejoin="round"/>
<path d="M178.648 54.7199C178.648 54.9599 178.648 55.1919 178.648 55.4159C178.464 63.1279 175.2 66.2479 171.176 66.2479C167.152 66.2479 163.872 63.6959 163.712 55.3919C163.712 55.1759 163.712 54.9519 163.712 54.7199C163.712 49.9679 167.064 46.1279 171.192 46.1279C175.32 46.1279 178.648 49.9679 178.648 54.7199Z" fill="white" stroke="black" stroke-linecap="round" stroke-linejoin="round"/>
<path d="M178.648 54.7199C178.648 54.9599 178.648 55.1919 178.648 55.4159L178.584 55.6559H176.856V52.6959L174.176 49.7279H168.576L166.92 48.0719L167.424 50.2959L165.16 52.7999V55.5119H163.76L163.704 55.4159C163.704 55.1999 163.704 54.9759 163.704 54.7439C163.704 49.9919 167.056 46.1519 171.184 46.1519C175.312 46.1519 178.648 49.9679 178.648 54.7199Z" fill="black"/>
<path d="M40.584 168.576V160.8H42.864C43.2622 160.783 43.6576 160.874 44.008 161.064C44.2991 161.236 44.5243 161.501 44.648 161.816C44.7944 162.196 44.8651 162.601 44.856 163.008C44.8741 163.432 44.7832 163.853 44.592 164.232C44.4346 164.533 44.1812 164.772 43.872 164.912C43.5223 165.057 43.1464 165.127 42.768 165.12H41.968V168.576H40.584ZM42 164.12H42.544C42.7493 164.131 42.9543 164.095 43.144 164.016C43.2146 163.978 43.2771 163.927 43.3279 163.865C43.3786 163.804 43.4167 163.732 43.44 163.656C43.5013 163.443 43.5283 163.221 43.52 163C43.5235 162.769 43.5021 162.538 43.456 162.312C43.4416 162.233 43.4107 162.158 43.3652 162.092C43.3197 162.025 43.2606 161.97 43.192 161.928C42.991 161.829 42.7675 161.785 42.544 161.8H42V164.12Z" fill="black"/>
<path d="M45.6001 168.576V160.8H47.4641C47.9144 160.789 48.3634 160.854 48.7921 160.992C49.1236 161.104 49.4061 161.327 49.5921 161.624C49.7938 162.002 49.8905 162.428 49.8721 162.856C49.8735 163.141 49.844 163.425 49.7841 163.704C49.7355 163.933 49.6372 164.149 49.4961 164.336C49.3439 164.521 49.145 164.662 48.9201 164.744L50.0081 168.576H48.6161L47.6801 165.016H47.0241V168.576H45.6001ZM47.0241 164.12H47.4641C47.689 164.13 47.9134 164.089 48.1201 164C48.2827 163.922 48.4089 163.785 48.4721 163.616C48.5491 163.4 48.5844 163.172 48.5761 162.944C48.5984 162.635 48.5228 162.327 48.3601 162.064C48.2582 161.957 48.1331 161.874 47.9945 161.823C47.8558 161.772 47.7072 161.753 47.5601 161.768H47.0401L47.0241 164.12Z" fill="black"/>
<path d="M53.0639 168.68C52.6041 168.705 52.1465 168.599 51.7439 168.376C51.4192 168.169 51.1739 167.859 51.0479 167.496C50.8948 167.056 50.8216 166.593 50.8319 166.128V163.2C50.8209 162.74 50.8941 162.282 51.0479 161.848C51.1711 161.489 51.4177 161.186 51.7439 160.992C52.1565 160.792 52.6092 160.687 53.0679 160.688C53.5266 160.687 53.9793 160.792 54.3919 160.992C54.7175 161.188 54.9659 161.49 55.0959 161.848C55.2497 162.282 55.3229 162.74 55.3119 163.2V166.112C55.3216 166.572 55.2485 167.03 55.0959 167.464C54.964 167.826 54.7167 168.136 54.3919 168.344C53.9913 168.582 53.5298 168.699 53.0639 168.68ZM53.0639 167.64C53.2511 167.653 53.4366 167.596 53.5839 167.48C53.7042 167.371 53.7834 167.224 53.8079 167.064C53.8506 166.869 53.8721 166.671 53.8719 166.472V162.896C53.873 162.699 53.8516 162.503 53.8079 162.312C53.7835 162.154 53.7042 162.009 53.5839 161.904C53.4301 161.805 53.2509 161.752 53.0679 161.752C52.8849 161.752 52.7057 161.805 52.5519 161.904C52.4321 162.011 52.3506 162.154 52.3199 162.312C52.2831 162.504 52.2643 162.7 52.2639 162.896V166.472C52.2612 166.671 52.28 166.869 52.3199 167.064C52.3444 167.224 52.4235 167.371 52.5439 167.48C52.6912 167.596 52.8767 167.653 53.0639 167.64Z" fill="black"/>
<path d="M56.3521 168.576V160.8H58.192C58.699 160.776 59.2048 160.866 59.672 161.064C60.0327 161.216 60.3197 161.503 60.472 161.864C60.636 162.301 60.7122 162.766 60.6961 163.232V166.072C60.7111 166.551 60.6351 167.029 60.472 167.48C60.3236 167.827 60.0572 168.11 59.72 168.28C59.2714 168.484 58.7803 168.577 58.288 168.552L56.3521 168.576ZM57.776 167.592H58.2081C58.4556 167.611 58.7027 167.55 58.912 167.416C59.0559 167.285 59.1469 167.106 59.168 166.912C59.2026 166.647 59.2186 166.379 59.216 166.112V163.136C59.2204 162.881 59.1989 162.627 59.1521 162.376C59.117 162.204 59.0167 162.052 58.872 161.952C58.6613 161.848 58.4267 161.801 58.192 161.816H57.776V167.592Z" fill="black"/>
<path d="M63.8319 168.68C63.3633 168.706 62.8969 168.598 62.4879 168.368C62.1687 168.152 61.934 167.833 61.8239 167.464C61.6966 167.008 61.6373 166.537 61.6479 166.064V160.8H63.0239V166.224C63.0229 166.454 63.0389 166.684 63.0719 166.912C63.0959 167.104 63.1766 167.285 63.3039 167.432C63.3732 167.5 63.4561 167.552 63.5472 167.585C63.6382 167.618 63.7353 167.631 63.8319 167.624C63.9311 167.633 64.0311 167.621 64.125 167.588C64.219 167.554 64.3046 167.501 64.3759 167.432C64.4945 167.281 64.5717 167.102 64.5999 166.912C64.633 166.684 64.649 166.454 64.6479 166.224V160.8H66.0239V166.064C66.032 166.537 65.97 167.009 65.8399 167.464C65.7326 167.832 65.5007 168.152 65.1839 168.368C64.7725 168.599 64.3032 168.707 63.8319 168.68Z" fill="black"/>
<path d="M69.2321 168.68C68.7604 168.706 68.2918 168.589 67.8881 168.344C67.5697 168.122 67.3334 167.802 67.2161 167.432C67.0811 166.997 67.0163 166.543 67.0241 166.088V163.32C67.0148 162.851 67.0796 162.384 67.2161 161.936C67.3269 161.565 67.5648 161.245 67.8881 161.032C68.2966 160.8 68.7628 160.689 69.2321 160.712C69.6684 160.689 70.1027 160.786 70.4881 160.992C70.7929 161.173 71.0228 161.456 71.1361 161.792C71.2704 162.172 71.3354 162.573 71.3281 162.976V163.632H69.9681V162.96C69.9811 162.76 69.9811 162.56 69.9681 162.36C69.9498 162.204 69.8858 162.056 69.7841 161.936C69.7138 161.876 69.6323 161.832 69.5443 161.804C69.4564 161.777 69.3638 161.767 69.2721 161.776C69.1761 161.767 69.0792 161.777 68.9872 161.806C68.8952 161.835 68.8098 161.882 68.7361 161.944C68.6183 162.067 68.5426 162.224 68.5201 162.392C68.4867 162.604 68.4706 162.818 68.4721 163.032V166.4C68.467 166.634 68.4912 166.868 68.5441 167.096C68.5726 167.256 68.6578 167.401 68.7841 167.504C68.9251 167.607 69.0976 167.658 69.2721 167.648C69.3631 167.656 69.4549 167.646 69.5416 167.617C69.6283 167.588 69.7082 167.541 69.7761 167.48C69.8797 167.352 69.9436 167.196 69.9601 167.032C69.9736 166.824 69.9736 166.616 69.9601 166.408V165.704H71.3201V166.328C71.3286 166.743 71.2692 167.156 71.1441 167.552C71.0212 167.88 70.797 168.16 70.5041 168.352C70.1202 168.581 69.6787 168.695 69.2321 168.68Z" fill="black"/>
<path d="M73.096 168.576V161.848H71.856V160.8H75.736V161.848H74.52V168.576H73.096Z" fill="black"/>
<path d="M78.4 168.68C77.9908 168.695 77.5849 168.602 77.224 168.408C76.9106 168.223 76.6641 167.942 76.5201 167.608C76.3447 167.198 76.2523 166.758 76.248 166.312L77.4641 166.072C77.4766 166.342 77.5141 166.609 77.576 166.872C77.6209 167.07 77.7176 167.252 77.856 167.4C77.921 167.464 77.9986 167.515 78.084 167.548C78.1693 167.581 78.2606 167.596 78.3521 167.592C78.4443 167.601 78.5374 167.587 78.6227 167.55C78.708 167.514 78.7827 167.457 78.8401 167.384C78.9419 167.227 78.9923 167.043 78.9841 166.856C78.9887 166.572 78.9078 166.293 78.7521 166.056C78.5732 165.814 78.3664 165.594 78.136 165.4L77.16 164.536C76.8936 164.312 76.6711 164.041 76.504 163.736C76.3267 163.404 76.2411 163.032 76.256 162.656C76.2409 162.396 76.2807 162.135 76.3731 161.891C76.4655 161.647 76.6082 161.425 76.792 161.24C77.1982 160.886 77.7264 160.706 78.2641 160.736C78.5766 160.725 78.8878 160.783 79.176 160.904C79.4081 161.008 79.6092 161.171 79.76 161.376C79.9061 161.579 80.0145 161.807 80.08 162.048C80.1506 162.31 80.1962 162.578 80.216 162.848L79 163.064C78.9926 162.843 78.9659 162.624 78.9201 162.408C78.8931 162.241 78.818 162.085 78.704 161.96C78.641 161.901 78.5666 161.856 78.4854 161.827C78.4042 161.798 78.318 161.786 78.232 161.792C78.1415 161.788 78.0511 161.804 77.9678 161.84C77.8846 161.876 77.8108 161.931 77.7521 162C77.6385 162.146 77.5792 162.327 77.5841 162.512C77.5759 162.739 77.6313 162.963 77.744 163.16C77.8757 163.357 78.0346 163.535 78.216 163.688L79.2 164.52C79.5133 164.792 79.7831 165.11 80 165.464C80.2336 165.861 80.3501 166.316 80.336 166.776C80.3422 167.119 80.2595 167.458 80.0961 167.76C79.9334 168.043 79.6988 168.277 79.416 168.44C79.1029 168.604 78.7535 168.687 78.4 168.68Z" fill="black"/>
<path d="M85.0879 168.68C84.7615 168.69 84.4385 168.612 84.1519 168.456C83.8913 168.307 83.6779 168.088 83.5359 167.824C83.387 167.529 83.3128 167.202 83.3199 166.872C83.3107 166.422 83.4211 165.977 83.6399 165.584C83.8582 165.212 84.1274 164.873 84.4399 164.576L84.0639 163.88C83.9376 163.649 83.8306 163.408 83.7439 163.16C83.6646 162.923 83.6241 162.674 83.6239 162.424C83.6161 162.119 83.6849 161.816 83.8239 161.544C83.9573 161.291 84.1562 161.078 84.3999 160.928C84.676 160.775 84.988 160.697 85.3039 160.704C85.6005 160.698 85.8941 160.764 86.1599 160.896C86.4016 161.022 86.6057 161.21 86.7519 161.44C86.8962 161.682 86.9709 161.959 86.9679 162.24C86.9718 162.573 86.895 162.903 86.7439 163.2C86.5963 163.488 86.4135 163.757 86.1999 164C85.9919 164.24 85.7839 164.464 85.5919 164.664L86.6239 166.44C86.6974 166.301 86.7538 166.153 86.7919 166C86.8731 165.623 86.9293 165.241 86.9599 164.856H87.9999C88.0013 165.157 87.9691 165.458 87.9039 165.752C87.8528 166.027 87.7723 166.295 87.6639 166.552C87.5648 166.78 87.4527 167.001 87.3279 167.216C87.412 167.314 87.5155 167.393 87.6319 167.448C87.7516 167.516 87.8861 167.555 88.0239 167.56V168.664H87.9199H87.8159C87.6492 168.658 87.4856 168.617 87.3359 168.544C87.1916 168.467 87.0572 168.373 86.9359 168.264C86.8189 168.165 86.7092 168.059 86.6079 167.944C86.4266 168.173 86.1937 168.357 85.9282 168.479C85.6627 168.601 85.372 168.659 85.0799 168.648L85.0879 168.68ZM85.0879 167.72C85.264 167.724 85.4371 167.673 85.5839 167.576C85.7229 167.483 85.8469 167.37 85.9519 167.24L84.8799 165.448C84.7381 165.653 84.625 165.876 84.5439 166.112C84.471 166.348 84.4332 166.593 84.4319 166.84C84.4326 166.989 84.4542 167.137 84.4959 167.28C84.537 167.405 84.6118 167.515 84.7119 167.6C84.8268 167.692 84.9734 167.735 85.1199 167.72H85.0879ZM85.1599 164C85.2818 163.839 85.3889 163.668 85.4799 163.488C85.5824 163.288 85.6654 163.079 85.7279 162.864C85.7898 162.662 85.8221 162.452 85.8239 162.24C85.8296 162.167 85.8199 162.094 85.7952 162.026C85.7705 161.957 85.7315 161.895 85.6808 161.843C85.6301 161.79 85.5688 161.75 85.501 161.723C85.4333 161.696 85.3606 161.684 85.2879 161.688C85.2068 161.684 85.1262 161.703 85.0545 161.741C84.9828 161.779 84.9225 161.835 84.8799 161.904C84.7891 162.062 84.7448 162.242 84.7519 162.424C84.7537 162.696 84.7969 162.965 84.8799 163.224C85.0079 163.52 85.0959 163.768 85.1919 164H85.1599Z" fill="black"/>
<path d="M93.3759 168.68C92.9666 168.696 92.5605 168.602 92.1999 168.408C91.8842 168.223 91.635 167.943 91.4879 167.608C91.3155 167.198 91.2258 166.757 91.2239 166.312L92.4399 166.072C92.4485 166.342 92.486 166.61 92.5519 166.872C92.5968 167.07 92.6934 167.252 92.8319 167.4C92.8963 167.465 92.9738 167.516 93.0593 167.549C93.1448 167.582 93.2363 167.597 93.3279 167.592C93.42 167.6 93.5126 167.585 93.5977 167.548C93.6827 167.512 93.7576 167.456 93.8159 167.384C93.9178 167.227 93.9681 167.043 93.9599 166.856C93.9645 166.572 93.8837 166.293 93.7279 166.056C93.549 165.814 93.3423 165.594 93.1119 165.4L92.1359 164.536C91.8672 164.315 91.6443 164.043 91.4799 163.736C91.3026 163.404 91.2169 163.032 91.2319 162.656C91.2146 162.395 91.2535 162.134 91.346 161.89C91.4385 161.645 91.5824 161.424 91.7679 161.24C92.174 160.886 92.7023 160.706 93.2399 160.736C93.5523 160.727 93.8632 160.784 94.1519 160.904C94.3815 161.009 94.58 161.171 94.7279 161.376C94.8765 161.579 94.9875 161.806 95.0559 162.048C95.1237 162.31 95.1666 162.578 95.1839 162.848L93.9759 163.064C93.9685 162.843 93.9417 162.624 93.8959 162.408C93.8711 162.239 93.7926 162.081 93.6719 161.96C93.6109 161.901 93.5379 161.855 93.4579 161.826C93.3779 161.797 93.2927 161.785 93.2079 161.792C93.1173 161.788 93.0269 161.804 92.9437 161.84C92.8604 161.876 92.7866 161.931 92.7279 162C92.6144 162.146 92.555 162.327 92.5599 162.512C92.5476 162.739 92.6033 162.965 92.7199 163.16C92.8516 163.357 93.0105 163.535 93.1919 163.688L94.1599 164.544C94.4732 164.816 94.743 165.134 94.9599 165.488C95.1934 165.885 95.3099 166.34 95.2959 166.8C95.302 167.143 95.2193 167.482 95.0559 167.784C94.8926 168.069 94.6547 168.304 94.3679 168.464C94.0602 168.617 93.7193 168.691 93.3759 168.68Z" fill="black"/>
<path d="M96.0801 168.576V160.8H99.3441V161.8H97.5041V164.04H98.9521V165.024H97.5041V167.6H99.3601V168.576H96.0801Z" fill="black"/>
<path d="M100.192 168.576V160.8H102.048C102.501 160.789 102.952 160.854 103.384 160.992C103.715 161.105 103.997 161.328 104.184 161.624C104.386 162.002 104.482 162.428 104.464 162.856C104.469 163.141 104.44 163.426 104.376 163.704C104.327 163.933 104.229 164.149 104.088 164.336C103.937 164.523 103.738 164.664 103.512 164.744L104.6 168.576H103.2L102.264 165.016H101.6V168.576H100.192ZM101.608 164.12H102.048C102.275 164.13 102.502 164.089 102.712 164C102.873 163.922 102.996 163.784 103.056 163.616C103.136 163.401 103.174 163.173 103.168 162.944C103.19 162.635 103.115 162.327 102.952 162.064C102.849 161.958 102.724 161.876 102.586 161.825C102.447 161.774 102.299 161.754 102.152 161.768H101.6L101.608 164.12Z" fill="black"/>
<path d="M106.728 168.576L105.128 160.8H106.4L107.432 166.304L108.392 160.8H109.68L108.08 168.576H106.728Z" fill="black"/>
<path d="M110.528 168.576V160.8H111.928V168.576H110.528Z" fill="black"/>
<path d="M115.2 168.68C114.728 168.706 114.26 168.589 113.856 168.344C113.538 168.122 113.301 167.802 113.184 167.432C113.049 166.997 112.984 166.543 112.992 166.088V163.32C112.983 162.851 113.048 162.384 113.184 161.936C113.295 161.565 113.533 161.245 113.856 161.032C114.265 160.8 114.731 160.689 115.2 160.712C115.636 160.689 116.071 160.786 116.456 160.992C116.761 161.173 116.991 161.456 117.104 161.792C117.245 162.171 117.313 162.572 117.304 162.976V163.632H116V162.96C116.013 162.76 116.013 162.56 116 162.36C115.988 162.202 115.923 162.053 115.816 161.936C115.746 161.876 115.664 161.832 115.576 161.804C115.488 161.777 115.396 161.767 115.304 161.776C115.208 161.767 115.111 161.777 115.019 161.806C114.927 161.835 114.842 161.882 114.768 161.944C114.65 162.067 114.575 162.224 114.552 162.392C114.519 162.604 114.503 162.818 114.504 163.032V166.4C114.499 166.634 114.523 166.868 114.576 167.096C114.608 167.255 114.692 167.399 114.816 167.504C114.957 167.607 115.13 167.658 115.304 167.648C115.395 167.656 115.487 167.646 115.574 167.617C115.66 167.588 115.74 167.541 115.808 167.48C115.912 167.352 115.976 167.196 115.992 167.032C116.01 166.824 116.01 166.616 115.992 166.408V165.704H117.36V166.328C117.366 166.743 117.304 167.157 117.176 167.552C117.053 167.88 116.829 168.16 116.536 168.352C116.134 168.594 115.668 168.709 115.2 168.68Z" fill="black"/>
<path d="M118.312 168.576V160.8H121.6V161.8H119.76V164.04H121.208V165.024H119.76V167.6H121.6V168.576H118.312Z" fill="black"/>
<path d="M124.384 168.68C123.975 168.696 123.569 168.602 123.208 168.408C122.892 168.223 122.643 167.943 122.496 167.608C122.324 167.198 122.234 166.757 122.232 166.312L123.448 166.072C123.457 166.342 123.494 166.61 123.56 166.872C123.601 167.071 123.698 167.254 123.84 167.4C123.903 167.464 123.98 167.514 124.064 167.548C124.148 167.581 124.238 167.596 124.328 167.592C124.421 167.601 124.516 167.587 124.602 167.55C124.689 167.514 124.765 167.457 124.824 167.384C124.926 167.227 124.976 167.043 124.968 166.856C124.973 166.572 124.892 166.293 124.736 166.056C124.557 165.814 124.35 165.594 124.12 165.4L123.144 164.536C122.875 164.313 122.65 164.041 122.48 163.736C122.309 163.402 122.227 163.031 122.24 162.656C122.223 162.395 122.262 162.134 122.354 161.89C122.447 161.645 122.59 161.424 122.776 161.24C123.182 160.886 123.71 160.706 124.248 160.736C124.56 160.727 124.871 160.784 125.16 160.904C125.39 161.009 125.588 161.171 125.736 161.376C125.885 161.577 125.994 161.805 126.056 162.048C126.13 162.309 126.176 162.577 126.192 162.848L124.984 163.064C124.977 162.843 124.95 162.624 124.904 162.408C124.874 162.24 124.796 162.084 124.68 161.96C124.619 161.901 124.546 161.855 124.466 161.826C124.386 161.797 124.301 161.785 124.216 161.792C124.124 161.788 124.033 161.804 123.948 161.84C123.864 161.876 123.788 161.931 123.728 162C123.614 162.146 123.555 162.327 123.56 162.512C123.55 162.74 123.609 162.966 123.728 163.16C123.857 163.359 124.016 163.537 124.2 163.688L125.168 164.544C125.484 164.814 125.754 165.132 125.968 165.488C126.206 165.883 126.326 166.339 126.312 166.8C126.319 167.144 126.234 167.484 126.064 167.784C125.906 168.07 125.67 168.306 125.384 168.464C125.074 168.618 124.73 168.693 124.384 168.68Z" fill="black"/>
<path d="M54.272 129.872H67.848L74.696 118.608H61.12L54.272 129.872Z" fill="white" stroke="black" stroke-linecap="round" stroke-linejoin="round"/>
<path d="M104.664 118.608H61.144V153.52H104.664V118.608Z" fill="white" stroke="black" stroke-linecap="round" stroke-linejoin="round"/>
<path d="M104.664 118.608H91.2319V153.52H104.664V118.608Z" fill="black" stroke="black" stroke-linecap="round" stroke-linejoin="round"/>
<path d="M111.664 129.872H98.0799L91.2319 118.608H104.816L111.664 129.872Z" fill="white" stroke="black" stroke-linecap="round" stroke-linejoin="round"/>
<path d="M87.5681 129.872H58.2561L61.3041 118.608H90.6081L87.5681 129.872Z" fill="white" stroke="black" stroke-linecap="round" stroke-linejoin="round"/>
<path d="M88.1759 145.4H81.3599V148.928H88.1759V145.4Z" fill="white" stroke="black" stroke-linecap="round" stroke-linejoin="round"/>
<path d="M56.0001 260.512V253.784H54.7681V252.736H58.6481V253.784H57.4241V260.512H56.0001Z" fill="black"/>
<path d="M59.3601 260.512V252.736H62.6241V253.736H60.8001V256H62.2481V256.992H60.8001V259.56H62.6401V260.536L59.3601 260.512Z" fill="black"/>
<path d="M65.6001 260.624C65.1286 260.65 64.6603 260.532 64.2561 260.288C63.9359 260.065 63.6994 259.741 63.5841 259.368C63.4492 258.936 63.3844 258.485 63.3921 258.032V255.256C63.3834 254.788 63.4482 254.321 63.5841 253.872C63.6974 253.502 63.9348 253.183 64.2561 252.968C64.6659 252.74 65.1317 252.632 65.6001 252.656C66.0382 252.632 66.4748 252.726 66.8641 252.928C67.168 253.11 67.3976 253.393 67.5121 253.728C67.6471 254.105 67.7121 254.504 67.7041 254.904V255.56H66.2961V254.888C66.309 254.688 66.309 254.488 66.2961 254.288C66.2837 254.13 66.2189 253.981 66.1121 253.864C66.0419 253.804 65.9603 253.76 65.8724 253.732C65.7844 253.705 65.6919 253.695 65.6001 253.704C65.4064 253.688 65.214 253.748 65.0641 253.872C64.9448 253.997 64.8691 254.157 64.8481 254.328C64.8144 254.537 64.7983 254.748 64.8001 254.96V258.344C64.7951 258.578 64.8193 258.812 64.8721 259.04C64.9014 259.2 64.9864 259.345 65.1121 259.448C65.2531 259.551 65.4257 259.602 65.6001 259.592C65.6913 259.602 65.7835 259.592 65.8704 259.563C65.9574 259.534 66.0371 259.487 66.1041 259.424C66.2077 259.296 66.2717 259.14 66.2881 258.976C66.319 258.77 66.3324 258.561 66.3281 258.352V257.6H67.6961V258.232C67.7018 258.645 67.6397 259.056 67.5121 259.448C67.3923 259.778 67.1674 260.059 66.8721 260.248C66.494 260.495 66.0518 260.626 65.6001 260.624Z" fill="black"/>
<path d="M68.6721 260.512V252.736H70.0801V256H71.6801V252.744H73.1041V260.52H71.6641V257.008H70.0641V260.52L68.6721 260.512Z" fill="black"/>
<path d="M74.272 260.512V252.736H75.264L77.152 257.176V252.736H78.328V260.512H77.384L75.488 255.872V260.512H74.272Z" fill="black"/>
<path d="M81.6 260.624C81.1418 260.648 80.6865 260.539 80.288 260.312C79.9594 260.108 79.7109 259.797 79.584 259.432C79.4377 258.991 79.3674 258.529 79.376 258.064V255.2C79.3672 254.741 79.4375 254.284 79.584 253.848C79.7134 253.49 79.962 253.188 80.288 252.992C80.6903 252.776 81.1439 252.674 81.6 252.696C82.064 252.671 82.526 252.773 82.936 252.992C83.2573 253.191 83.5024 253.493 83.632 253.848C83.7858 254.282 83.859 254.74 83.848 255.2V258.12C83.8583 258.578 83.7852 259.033 83.632 259.464C83.5037 259.828 83.2591 260.141 82.936 260.352C82.5251 260.567 82.062 260.661 81.6 260.624ZM81.6 259.576C81.7884 259.589 81.9754 259.536 82.128 259.424C82.2442 259.309 82.3224 259.161 82.352 259C82.3901 258.803 82.4062 258.601 82.4 258.4V254.816C82.4035 254.62 82.3848 254.424 82.344 254.232C82.316 254.075 82.2373 253.932 82.12 253.824C81.9674 253.713 81.7804 253.659 81.592 253.672C81.4108 253.657 81.2308 253.712 81.088 253.824C80.9657 253.929 80.8837 254.073 80.856 254.232C80.8152 254.424 80.7964 254.62 80.8 254.816V258.4C80.7991 258.596 80.8151 258.791 80.848 258.984C80.8797 259.146 80.9608 259.294 81.08 259.408C81.2253 259.529 81.4115 259.589 81.6 259.576Z" fill="black"/>
<path d="M84.9121 260.512V252.736H86.3361V259.536H88.2161V260.512H84.9121Z" fill="black"/>
<path d="M90.9681 260.624C90.51 260.648 90.0547 260.539 89.6561 260.312C89.3276 260.108 89.0791 259.797 88.9521 259.432C88.8059 258.991 88.7356 258.529 88.7441 258.064V255.2C88.7353 254.741 88.8057 254.284 88.9521 253.848C89.0815 253.49 89.3301 253.188 89.6561 252.992C90.0688 252.797 90.5196 252.696 90.9761 252.696C91.4326 252.696 91.8835 252.797 92.2961 252.992C92.6222 253.188 92.8708 253.49 93.0001 253.848C93.1539 254.282 93.2271 254.74 93.2161 255.2V258.12C93.2265 258.578 93.1533 259.033 93.0001 259.464C92.8714 259.831 92.6235 260.143 92.2961 260.352C91.8888 260.569 91.4278 260.663 90.9681 260.624ZM90.9681 259.576C91.1566 259.589 91.3436 259.536 91.4961 259.424C91.6124 259.309 91.6906 259.161 91.7201 259C91.7598 258.808 91.7785 258.612 91.7761 258.416V254.832C91.7797 254.636 91.7609 254.44 91.7201 254.248C91.6921 254.091 91.6134 253.948 91.4961 253.84C91.3436 253.729 91.1566 253.675 90.9681 253.688C90.787 253.673 90.6069 253.728 90.4641 253.84C90.3419 253.945 90.2599 254.089 90.2321 254.248C90.1914 254.44 90.1726 254.636 90.1761 254.832V258.4C90.1752 258.596 90.1913 258.791 90.2241 258.984C90.2537 259.145 90.3319 259.293 90.4481 259.408C90.5964 259.523 90.7805 259.583 90.9681 259.576Z" fill="black"/>
<path d="M96.2081 260.624C95.7784 260.645 95.3529 260.53 94.9921 260.296C94.6794 260.067 94.4515 259.74 94.3441 259.368C94.2048 258.909 94.1373 258.431 94.1441 257.952V255.344C94.1339 254.857 94.1987 254.371 94.3361 253.904C94.4477 253.525 94.6882 253.197 95.0161 252.976C95.4207 252.741 95.8851 252.63 96.3521 252.656C96.7916 252.635 97.2294 252.725 97.6241 252.92C97.9338 253.101 98.1713 253.384 98.2961 253.72C98.4469 254.11 98.5177 254.526 98.5041 254.944V255.344H97.1521V254.904C97.1566 254.689 97.1378 254.475 97.0961 254.264C97.0774 254.108 97.0036 253.963 96.8881 253.856C96.7407 253.747 96.5586 253.696 96.3761 253.712C96.2777 253.704 96.1786 253.716 96.085 253.747C95.9914 253.779 95.9053 253.83 95.8321 253.896C95.7109 254.028 95.6377 254.197 95.6241 254.376C95.5907 254.593 95.5747 254.812 95.5761 255.032V258.288C95.5729 258.522 95.597 258.756 95.6481 258.984C95.6778 259.159 95.7651 259.32 95.8961 259.44C96.0454 259.552 96.2294 259.609 96.4161 259.6C96.6084 259.613 96.7979 259.55 96.9441 259.424C97.0729 259.292 97.1593 259.125 97.1921 258.944C97.2439 258.705 97.268 258.461 97.2641 258.216V257.488H96.4641V256.592H98.5761V260.536H97.6001L97.4961 259.736C97.4011 259.985 97.2408 260.203 97.0321 260.368C96.7915 260.538 96.503 260.628 96.2081 260.624Z" fill="black"/>
<path d="M99.6641 260.512V252.736H101.072V260.512H99.6641Z" fill="black"/>
<path d="M102.272 260.512V252.736H105.536V253.736H103.688V256H105.136V256.992H103.688V259.56H105.552V260.536L102.272 260.512Z" fill="black"/>
<path d="M108.336 260.624C107.926 260.637 107.52 260.54 107.16 260.344C106.845 260.16 106.598 259.88 106.456 259.544C106.281 259.134 106.188 258.694 106.184 258.248L107.4 258.008C107.413 258.278 107.45 258.545 107.512 258.808C107.558 259.005 107.655 259.187 107.792 259.336C107.857 259.401 107.935 259.451 108.02 259.484C108.105 259.517 108.197 259.532 108.288 259.528C108.38 259.537 108.473 259.523 108.559 259.487C108.644 259.45 108.719 259.393 108.776 259.32C108.877 259.166 108.927 258.984 108.92 258.8C108.932 258.503 108.851 258.209 108.688 257.96C108.511 257.719 108.304 257.501 108.072 257.312L107.096 256.448C106.833 256.221 106.611 255.95 106.44 255.648C106.265 255.316 106.179 254.944 106.192 254.568C106.177 254.306 106.217 254.045 106.309 253.799C106.401 253.554 106.544 253.331 106.728 253.144C107.135 252.793 107.664 252.615 108.2 252.648C108.513 252.637 108.824 252.695 109.112 252.816C109.344 252.918 109.545 253.078 109.696 253.28C109.842 253.486 109.951 253.716 110.016 253.96C110.088 254.222 110.134 254.49 110.152 254.76L108.936 254.968C108.928 254.748 108.901 254.528 108.856 254.312C108.825 254.146 108.751 253.991 108.64 253.864C108.509 253.751 108.34 253.694 108.168 253.704C108.078 253.698 107.988 253.713 107.905 253.748C107.821 253.782 107.747 253.836 107.688 253.904C107.573 254.052 107.513 254.236 107.52 254.424C107.513 254.651 107.568 254.875 107.68 255.072C107.812 255.267 107.971 255.442 108.152 255.592L109.12 256.448C109.433 256.72 109.703 257.038 109.92 257.392C110.154 257.789 110.27 258.244 110.256 258.704C110.262 259.047 110.18 259.386 110.016 259.688C109.856 259.972 109.62 260.208 109.336 260.368C109.029 260.535 108.686 260.623 108.336 260.624Z" fill="black"/>
<path d="M91.8641 197.144H76.5281V240.248H91.8641V197.144Z" fill="white" stroke="black" stroke-linecap="round" stroke-linejoin="round"/>
<path d="M90.2401 197.144H74.9041V240.248H90.2401V197.144Z" fill="white" stroke="black" stroke-linecap="round" stroke-linejoin="round"/>
<path d="M90.2401 223.04H74.9041V232.952H90.2401V223.04Z" fill="black" stroke="black" stroke-linecap="round" stroke-linejoin="round"/>
<path d="M94.68 239.976H72.592V242.264H94.68V239.976Z" fill="white" stroke="black" stroke-linecap="round" stroke-linejoin="round"/>
<path d="M91.4562 239.976H69.3682V242.264H91.4562V239.976Z" fill="white" stroke="black" stroke-linecap="round" stroke-linejoin="round"/>
<path d="M103.52 197.144H61.616C59.9459 197.144 58.592 198.498 58.592 200.168V227.44C58.592 229.11 59.9459 230.464 61.616 230.464H103.52C105.19 230.464 106.544 229.11 106.544 227.44V200.168C106.544 198.498 105.19 197.144 103.52 197.144Z" fill="black" stroke="black" stroke-linecap="round" stroke-linejoin="round"/>
<path d="M105.56 197.144H63.6561C61.986 197.144 60.6321 198.498 60.6321 200.168V227.44C60.6321 229.11 61.986 230.464 63.6561 230.464H105.56C107.23 230.464 108.584 229.11 108.584 227.44V200.168C108.584 198.498 107.23 197.144 105.56 197.144Z" fill="black" stroke="black" stroke-linecap="round" stroke-linejoin="round"/>
<path d="M58.592 223.688V227.44C58.592 228.239 58.9084 229.006 59.4721 229.573C60.0357 230.139 60.8008 230.46 61.6 230.464H103.52C104.322 230.464 105.091 230.145 105.658 229.578C106.225 229.011 106.544 228.242 106.544 227.44V223.688H58.592Z" fill="white" stroke="black" stroke-linecap="round" stroke-linejoin="round"/>
<path d="M102.224 286.856C102.224 286.856 98.6561 282.8 96.5521 281.344C95.1199 280.265 93.7818 279.066 92.5521 277.76C92.0335 277.208 91.344 276.847 90.595 276.736C89.846 276.624 89.0812 276.768 88.4241 277.144C88.0633 277.361 87.737 277.631 87.4561 277.944C85.8561 279.728 82.6001 285.232 82.6001 286.688C82.6001 288.144 85.5121 290.904 85.5121 290.904C85.5121 290.904 91.1841 295.928 94.0961 297.224C96.4189 298.174 98.7997 298.976 101.224 299.624C102.108 299.305 102.899 298.769 103.523 298.066C104.148 297.364 104.587 296.516 104.8 295.6C105.6 292.36 102.224 286.856 102.224 286.856Z" fill="black" stroke="black" stroke-linecap="round" stroke-linejoin="round"/>
<path d="M96.5522 290.4C95.6082 293.504 97.2402 297.376 97.8162 298.592C99.6962 299.216 101.248 299.632 101.248 299.632C102.129 299.308 102.915 298.77 103.535 298.066C104.155 297.362 104.59 296.514 104.8 295.6C105.6 292.36 102.208 286.856 102.208 286.856C101.6 287.504 97.6882 286.688 96.5522 290.4Z" fill="white" stroke="black" stroke-linecap="round" stroke-linejoin="round"/>
<path d="M201.04 295.28C201.04 295.28 199.904 299.976 199.44 301.752C198.995 304.056 198.672 306.382 198.472 308.72C198.472 308.72 202.032 310.992 204.784 311.472C207.536 311.952 206.24 311.472 206.24 311.472L207.536 310.016C208.731 310.276 209.844 310.825 210.776 311.616C212.24 312.912 215.152 313.56 217.744 314.016C220.336 314.472 230.544 315.48 232.328 314.504C234.112 313.528 235.08 312.904 234.728 312.4C234.376 311.896 231.976 310.8 228.088 308.672C224.2 306.544 216.424 300.248 215.616 298.472L214.816 296.688C214.816 296.688 206.056 296.736 201.04 295.28Z" fill="black" stroke="black" stroke-linecap="round" stroke-linejoin="round"/>
<path d="M287.536 223.824H224.728V276.248H287.536V223.824Z" fill="black" stroke="black" stroke-linecap="round" stroke-linejoin="round"/>
<path d="M251.016 202.32L258.64 207.552C259.088 207.848 262.08 217.416 262.08 217.416C262.08 217.416 263.12 220.552 260.88 221.152C258.64 221.752 250.864 223.096 250.864 223.096C250.864 223.096 246.232 216.072 246.232 214.296C246.291 212.883 246.489 211.478 246.824 210.104L251.016 202.32Z" fill="white" stroke="black" stroke-linecap="round" stroke-linejoin="round"/>
<path d="M265.472 223.936H263.072V218.336C263.072 218.26 263.042 218.187 262.988 218.132C262.934 218.078 262.86 218.048 262.784 218.048H246.92C246.845 218.05 246.774 218.081 246.722 218.135C246.669 218.189 246.64 218.261 246.64 218.336V223.752H244.24V218.4C244.24 217.689 244.522 217.006 245.024 216.502C245.527 215.998 246.208 215.714 246.92 215.712H262.784C263.496 215.714 264.179 215.998 264.682 216.502C265.186 217.005 265.47 217.688 265.472 218.4V223.936Z" fill="black"/>
<path d="M230.68 183.48L247.576 198.128L241.448 209.192L219.92 195.288L230.68 183.48Z" fill="#2C4BFF" stroke="black" stroke-linecap="round" stroke-linejoin="round"/>
<path d="M230.616 185.792L228.512 200.576L221.768 197.072L230.616 185.792Z" fill="black" stroke="black" stroke-linecap="round" stroke-linejoin="round"/>
<path d="M247.576 198.128L252.056 202.464L246.824 210.088L242.64 206.952L247.576 198.128Z" fill="white" stroke="black" stroke-linecap="round" stroke-linejoin="round"/>
<path d="M138.344 241.656C138.344 241.656 142.072 278.264 143.04 281.992C144.008 285.72 144.336 287.824 144.336 287.824C144.336 287.824 141.744 287.336 141.744 288.152V288.952L102.224 286.848C102.224 286.848 99.6321 289.248 99.8241 292.512C100.038 294.936 100.526 297.327 101.28 299.64C101.28 299.64 114.728 303.04 131.896 305.8C149.064 308.56 150.368 309.36 151.984 309.36C153.6 309.36 160.248 309.688 162.84 306.448C165.432 303.208 167.696 301.424 168.344 296.048C168.992 290.672 177.256 237.08 177.256 237.08L212.728 238.864L200.096 296.368C200.096 296.368 204.632 299.448 207.872 299.608C211.112 299.768 216.944 299.288 216.944 299.288C217.211 298.226 217.374 297.141 217.432 296.048V292.808C217.432 292.808 236.056 244.048 238.16 238.056C240.264 232.064 244.32 222.344 243.512 217.808C242.704 213.272 211.92 208.896 209.328 208.896C206.736 208.896 155.384 247.296 153.768 247.776C152.152 248.256 138.344 241.656 138.344 241.656Z" fill="#2C4BFF" stroke="black" stroke-linecap="round" stroke-linejoin="round"/>
<path d="M146.456 290.192C146.456 290.192 149.432 294.24 152.936 295.592" stroke="black" stroke-linecap="round" stroke-linejoin="round"/>
<path d="M141.744 288.96C141.744 288.96 143.224 295.32 148.08 297.76" stroke="black" stroke-linecap="round" stroke-linejoin="round"/>
<path d="M209.296 208.936L198.28 238.368H184.52L209.296 208.936Z" fill="black" stroke="black" stroke-linecap="round" stroke-linejoin="round"/>
<path d="M216.168 143.2C216.168 143.2 186.816 149.48 178.072 155.304C169.328 161.128 143.008 192.608 136.168 202.024C129.328 211.44 125.528 217.704 125.528 217.704C125.528 217.704 126.872 235.072 134.376 244.152C141.88 253.232 148.272 261.512 149.392 261.064C150.512 260.616 173.704 243.928 176.392 240.56C179.08 237.192 185.128 241.36 195.216 229.024C205.304 216.688 218.52 201.128 218.52 201.128C218.52 201.128 226.136 190.816 230.616 185.776C235.201 180.578 238.163 174.151 239.136 167.288C239.936 160.792 235.216 151.384 229.384 146.68C223.552 141.976 216.168 143.2 216.168 143.2Z" fill="#2C4BFF" stroke="black" stroke-linecap="round" stroke-linejoin="round"/>
<path d="M157.464 232.248L144.992 218.168L148.064 215.576L163.616 232.752" stroke="black" stroke-linecap="round" stroke-linejoin="round"/>
<path d="M162.648 238.096L160.104 235.232" stroke="black" stroke-linecap="round" stroke-linejoin="round"/>
<path d="M212.536 144.464C209.938 148.713 207.665 153.153 205.736 157.744C202.984 164.552 200.872 171.344 200.872 171.344C200.872 171.344 205.736 173.288 206.216 173.288C206.696 173.288 200.224 179.608 200.224 179.608C199.904 184.248 200.399 188.908 201.688 193.376C202.781 196.672 203.7 200.023 204.44 203.416L208 200.664" stroke="black" stroke-linecap="round" stroke-linejoin="round"/>
<path d="M202.336 204.888L196.016 211.848" stroke="black" stroke-linecap="round" stroke-linejoin="round"/>
<path d="M212.36 157C212.36 157 210.232 170.56 209.448 178.848C208.664 187.136 209.216 199.464 209.216 199.464C209.216 199.464 222.664 187.024 224.68 183.216C226.088 180.345 227.213 177.345 228.04 174.256C228.04 174.256 223.448 165.848 221.88 162.712C220.312 159.576 216.616 151.4 212.36 157Z" fill="white" stroke="black" stroke-linecap="round" stroke-linejoin="round"/>
<path d="M215.944 177.28L218.408 186.8L211.352 241.592L217.512 250.552L223.448 241.704L220.424 186.8L226.136 177.28L222.104 170.552L215.944 177.28Z" fill="black" stroke="black" stroke-linecap="round" stroke-linejoin="round"/>
<path d="M221.096 173.696L211.8 181.872C211.8 181.872 210.568 179.632 211.24 169.432C211.912 159.232 213.48 150.168 214.712 146.36C215.944 142.552 216.728 141.984 216.728 141.984C216.728 141.984 218.632 158.12 220.2 161.48C221.768 164.84 232.072 170.896 232.072 170.896C232.072 170.896 230.28 178.624 229.384 180.304C228.828 181.354 228.342 182.439 227.928 183.552L221.096 173.696Z" fill="white" stroke="black" stroke-linecap="round" stroke-linejoin="round"/>
<path d="M216.168 143.2C216.168 143.2 214.936 153.512 216.168 159C217.4 164.488 221.096 173.68 221.096 173.68L237.456 168.08L239.136 167.28C239.136 167.28 237.904 166.608 231.936 161.68C225.968 156.752 225.536 156.08 225.104 151.712C224.672 147.344 224.096 144.312 221.632 142.184C219.168 140.056 216.616 142.544 216.168 143.2Z" fill="white" stroke="black" stroke-linecap="round" stroke-linejoin="round"/>
<path d="M225.904 160.312L229.464 170.768L239.136 167.304L225.904 160.312Z" fill="black" stroke="black" stroke-linecap="round" stroke-linejoin="round"/>
<path d="M191.592 307.776L196.448 311.984C196.448 311.984 202.12 314.384 200.824 315.064C199.528 315.744 196.448 314.416 195.152 313.608C194.384 313.12 193.582 312.687 192.752 312.312L191.592 307.776Z" fill="white" stroke="black" stroke-linecap="round" stroke-linejoin="round"/>
<path d="M186.608 288.488C186.608 288.488 185.76 292.064 190.296 304.368C191.984 308.944 197.096 318.304 198.56 319.92C200.024 321.536 202.28 322.68 200.824 323C199.368 323.32 198.424 322.032 196.616 320.896C194.808 319.76 191.752 314.904 191.752 314.904C191.752 314.904 194.344 320.088 195.48 322.032C196.616 323.976 198.232 326.56 198.232 326.56C198.232 326.56 197.744 327.856 195.64 326.24C193.536 324.624 192.4 322.192 191.432 320.896C190.721 319.91 190.072 318.882 189.488 317.816C189.488 317.816 191.592 324.136 192.24 325.432C192.888 326.728 191.44 327.536 190.64 326.232C189.84 324.928 188.976 324.472 188.648 323.504C188.32 322.536 188.048 324.632 185.296 318.944C183.792 315.824 179.792 311.328 178.008 306.944C176.224 302.56 176.224 304.544 176.064 300.952C175.904 297.36 176.224 290.752 176.224 290.752L186.608 288.488Z" fill="white" stroke="black" stroke-linecap="round" stroke-linejoin="round"/>
<path d="M188.464 323.2C188.263 321.55 187.956 319.915 187.544 318.304C186.807 316.707 185.926 315.181 184.912 313.744" stroke="black" stroke-linecap="round" stroke-linejoin="round"/>
<path d="M189.488 317.816L187.216 313.12" stroke="black" stroke-linecap="round" stroke-linejoin="round"/>
<path d="M191.752 314.904L190.136 311.176" stroke="black" stroke-linecap="round" stroke-linejoin="round"/>
<path d="M173.448 284L173.776 292.424C173.776 292.424 178.144 293.88 181.064 293.88C183.984 293.88 187.864 293.72 187.864 293.72L187.704 284.648L173.448 284Z" fill="white" stroke="black" stroke-linecap="round" stroke-linejoin="round"/>
<path d="M177.544 168.28C177.544 168.28 170.424 183.48 169.608 187.552C168.792 191.624 167.208 221.248 166.856 226.92C166.504 232.592 170.208 285.744 170.208 285.744C173.392 286.549 176.648 287.037 179.928 287.2C182.929 287.284 185.927 286.958 188.84 286.232C188.84 286.232 192.776 222.056 193.096 219.952C193.416 217.848 192.936 216.064 192.936 212.664C192.936 209.264 195.856 186.584 195.856 186.584C195.856 186.584 194.256 173.944 190.832 169.088" fill="#2C4BFF"/>
<path d="M177.544 168.28C177.544 168.28 170.424 183.48 169.608 187.552C168.792 191.624 167.208 221.248 166.856 226.92C166.504 232.592 170.208 285.744 170.208 285.744C173.392 286.549 176.648 287.037 179.928 287.2C182.929 287.284 185.927 286.958 188.84 286.232C188.84 286.232 192.776 222.056 193.096 219.952C193.416 217.848 192.936 216.064 192.936 212.664C192.936 209.264 195.856 186.584 195.856 186.584C195.856 186.584 194.256 173.944 190.832 169.088" stroke="black" stroke-linecap="round" stroke-linejoin="round"/>
<path d="M173.824 181.72C173.824 181.72 177.544 195.32 186.944 204.072" stroke="black" stroke-linecap="round" stroke-linejoin="round"/>
<path d="M185.6 212.976C186.592 213.842 187.708 214.554 188.912 215.088" stroke="black" stroke-linecap="round" stroke-linejoin="round"/>
<path d="M173.176 193.872C173.176 193.872 177.248 203.736 182.816 210.208" stroke="black" stroke-linecap="round" stroke-linejoin="round"/>
<path d="M249.968 219.296C249.968 219.296 247.984 216.464 247.128 217.12C246.272 217.776 247.696 221.376 248.552 222.136C249.408 222.896 250.728 222.04 250.728 222.04L249.968 219.296Z" fill="white" stroke="black" stroke-linecap="round" stroke-linejoin="round"/>
<path d="M252.336 216.368C252.336 216.368 250.816 214.288 249.4 215.328C247.984 216.368 250.064 221.376 250.728 222.04C251.398 222.741 252.312 223.156 253.28 223.2C254.049 223.241 254.818 223.144 255.552 222.912L252.336 216.368Z" fill="white" stroke="black" stroke-linecap="round" stroke-linejoin="round"/>
<path d="M254.888 215.704C254.888 215.704 253.504 212.96 252.208 213.528C250.912 214.096 251.952 216.648 252.52 217.88C253.383 219.634 254.398 221.31 255.552 222.888C255.928 223.176 258.2 223.272 258.48 222.328C258.653 221.617 258.718 220.883 258.672 220.152L254.888 215.704Z" fill="white" stroke="black" stroke-linecap="round" stroke-linejoin="round"/>
<path d="M260.848 219.2C260.848 219.2 257.44 214.288 256.496 214.096C255.552 213.904 254.696 215.232 254.896 215.696C255.096 216.16 258.096 221.184 258.768 221.368C259.44 221.552 260.072 221.864 260.888 221.144" fill="white"/>
<path d="M260.848 219.2C260.848 219.2 257.44 214.288 256.496 214.096C255.552 213.904 254.696 215.232 254.896 215.696C255.096 216.16 258.096 221.184 258.768 221.368C259.44 221.552 260.072 221.864 260.888 221.144" stroke="black" stroke-linecap="round" stroke-linejoin="round"/>
<path d="M251.76 209.192C251.76 209.192 251.608 212.632 252.208 213.528C252.808 214.424 254.456 216.816 254.456 216.816C254.456 216.816 249.072 218.76 249.816 219.96C250.56 221.16 255.648 219.656 257.016 219.208C258.384 218.76 259.264 218.912 259.56 216.808C259.856 214.704 258.808 210.408 258.808 210.408" fill="white"/>
<path d="M251.76 209.192C251.76 209.192 251.608 212.632 252.208 213.528C252.808 214.424 254.456 216.816 254.456 216.816C254.456 216.816 249.072 218.76 249.816 219.96C250.56 221.16 255.648 219.656 257.016 219.208C258.384 218.76 259.264 218.912 259.56 216.808C259.856 214.704 258.808 210.408 258.808 210.408" stroke="black" stroke-linecap="round" stroke-linejoin="round"/>
<path d="M252.981 143.855L246.916 143.566C245.84 143.515 244.925 144.346 244.874 145.423L244.733 148.364C244.682 149.44 245.513 150.355 246.59 150.406L252.655 150.696C253.732 150.747 254.647 149.916 254.698 148.839L254.838 145.898C254.89 144.821 254.058 143.907 252.981 143.855Z" stroke="black" stroke-linecap="round" stroke-linejoin="round"/>
<path d="M250.928 131.096C250.928 131.096 251.912 130.408 251.816 129.496C251.72 128.584 251.12 125.048 247.168 121.68C243.216 118.312 235.6 115.16 228.976 116.248C222.352 117.336 217.408 123.76 216.224 127.12C215.04 130.48 215.832 140.568 215.832 141.752C215.832 142.936 217.312 146.592 218.792 146.992C220.272 147.392 219.488 141.952 220.872 142.936C222.256 143.92 226.016 147.88 227.4 146.296C228.784 144.712 229.176 140.864 230.36 140.696C231.544 140.528 236.096 138.52 235.8 136.544C235.504 134.568 233.232 129.72 235.504 128.936C237.776 128.152 241.104 130.808 245.688 131.208C250.272 131.608 250.928 131.096 250.928 131.096Z" fill="black" stroke="black" stroke-linecap="round" stroke-linejoin="round"/>
<path d="M226.904 144.248C226.904 144.248 225.52 144.152 225.304 143.848C225.088 143.544 223.232 139.304 221.152 139.008C219.072 138.712 218.088 144.936 219.176 148.304C219.406 149.214 219.926 150.025 220.658 150.612C221.39 151.2 222.294 151.533 223.232 151.56C223.232 151.56 223.328 160.36 226 162.144C228.672 163.928 240.528 170.84 242.8 170.64C245.072 170.44 246.064 168.368 246.36 166.688C246.656 165.008 246.56 164.512 246.656 163.92C246.752 163.328 248.632 156.408 248.632 156.408C248.632 156.408 252.488 155.608 252.592 155.12C252.696 154.632 250.512 146.128 250.512 146.128C250.512 146.128 252.192 144.048 252.296 143.16C252.4 142.272 252.392 135.544 251.992 133.968C251.592 132.392 249.528 128.328 248.736 128.624C248.262 128.773 247.763 128.824 247.269 128.773C246.776 128.722 246.297 128.571 245.864 128.328C245.064 127.84 237.368 124.968 235.584 125.072C233.8 125.176 230.448 127.344 230.152 129.224C229.856 131.104 232.92 134.064 233.112 135.448C233.304 136.832 228.368 137.848 228.272 138.512C228.176 139.176 227.792 143.656 226.904 144.248Z" fill="white" stroke="black" stroke-linecap="round" stroke-linejoin="round"/>
<path d="M245.632 160.472L243.28 159.8" stroke="black" stroke-linecap="round" stroke-linejoin="round"/>
<path d="M245.375 143.334L239.31 143.044C238.233 142.993 237.318 143.824 237.267 144.901L237.127 147.842C237.075 148.919 237.907 149.833 238.983 149.885L245.049 150.174C246.125 150.225 247.04 149.394 247.091 148.317L247.232 145.376C247.283 144.3 246.452 143.385 245.375 143.334Z" stroke="black" stroke-linecap="round" stroke-linejoin="round"/>
<path d="M243.2 146.832C243.096 147.632 242.736 148.184 242.4 148.136C242.064 148.088 241.872 147.432 241.984 146.664C242.096 145.896 242.448 145.312 242.784 145.36C243.12 145.408 243.264 146.064 243.2 146.832Z" fill="black"/>
<path d="M239.136 141.76C239.136 141.76 243.52 141.264 245.384 143.312" stroke="black" stroke-linecap="round" stroke-linejoin="round"/>
<path d="M237.28 144.888L224.792 142.208" stroke="black" stroke-linecap="round" stroke-linejoin="round"/>
<path d="M247.24 145.36C247.24 145.36 249.144 144.032 250.744 145.448" stroke="black" stroke-linecap="round" stroke-linejoin="round"/>
<path d="M246.328 143.552L251.888 143.928" stroke="black" stroke-linecap="round" stroke-linejoin="round"/>
<path d="M348.128 270.064L73.136 378.072" stroke="black" stroke-linecap="round" stroke-linejoin="round"/>
<path d="M355.968 277.76L86.792 384.28" stroke="black" stroke-linecap="round" stroke-linejoin="round"/>
</svg>
