<svg width="178" height="178" viewBox="0 0 178 178" fill="none" xmlns="http://www.w3.org/2000/svg">
<rect width="178" height="178" rx="89" fill="#EAEDFF"/>
<path d="M53.222 82.04V90.68C53.222 91.6267 53.4687 92.3533 53.962 92.86C54.4554 93.3533 55.1487 93.6 56.042 93.6C56.9487 93.6 57.6487 93.3533 58.142 92.86C58.6354 92.3533 58.882 91.6267 58.882 90.68V82.04H61.702V90.66C61.702 91.8467 61.442 92.8533 60.922 93.68C60.4154 94.4933 59.7287 95.1067 58.862 95.52C58.0087 95.9333 57.0554 96.14 56.002 96.14C54.962 96.14 54.0154 95.9333 53.162 95.52C52.322 95.1067 51.6554 94.4933 51.162 93.68C50.6687 92.8533 50.422 91.8467 50.422 90.66V82.04H53.222ZM71.7673 96L68.7473 91.3L66.0073 96H62.8473L67.2473 88.96L62.7873 82.04H66.0073L69.0273 86.72L71.7473 82.04H74.9073L70.5273 89.06L74.9873 96H71.7673ZM88.4439 93.34H82.8839L81.9639 96H79.0239L84.0439 82.02H87.3039L92.3239 96H89.3639L88.4439 93.34ZM87.6839 91.1L85.6639 85.26L83.6439 91.1H87.6839ZM103.66 84.92V96H100.84V94.6C100.48 95.08 100.007 95.46 99.4203 95.74C98.847 96.0067 98.2203 96.14 97.5403 96.14C96.6736 96.14 95.907 95.96 95.2403 95.6C94.5736 95.2267 94.047 94.6867 93.6603 93.98C93.287 93.26 93.1003 92.4067 93.1003 91.42V84.92H95.9003V91.02C95.9003 91.9 96.1203 92.58 96.5603 93.06C97.0003 93.5267 97.6003 93.76 98.3603 93.76C99.1336 93.76 99.7403 93.5267 100.18 93.06C100.62 92.58 100.84 91.9 100.84 91.02V84.92H103.66ZM104.703 90.42C104.703 89.3 104.923 88.3067 105.363 87.44C105.816 86.5733 106.43 85.9067 107.203 85.44C107.976 84.9733 108.836 84.74 109.783 84.74C110.503 84.74 111.19 84.9 111.843 85.22C112.496 85.5267 113.016 85.94 113.403 86.46V81.2H116.243V96H113.403V94.36C113.056 94.9067 112.57 95.3467 111.943 95.68C111.316 96.0133 110.59 96.18 109.763 96.18C108.83 96.18 107.976 95.94 107.203 95.46C106.43 94.98 105.816 94.3067 105.363 93.44C104.923 92.56 104.703 91.5533 104.703 90.42ZM113.423 90.46C113.423 89.78 113.29 89.2 113.023 88.72C112.756 88.2267 112.396 87.8533 111.943 87.6C111.49 87.3333 111.003 87.2 110.483 87.2C109.963 87.2 109.483 87.3267 109.043 87.58C108.603 87.8333 108.243 88.2067 107.963 88.7C107.696 89.18 107.563 89.7533 107.563 90.42C107.563 91.0867 107.696 91.6733 107.963 92.18C108.243 92.6733 108.603 93.0533 109.043 93.32C109.496 93.5867 109.976 93.72 110.483 93.72C111.003 93.72 111.49 93.5933 111.943 93.34C112.396 93.0733 112.756 92.7 113.023 92.22C113.29 91.7267 113.423 91.14 113.423 90.46ZM119.398 83.6C118.904 83.6 118.491 83.4467 118.158 83.14C117.838 82.82 117.678 82.4267 117.678 81.96C117.678 81.4933 117.838 81.1067 118.158 80.8C118.491 80.48 118.904 80.32 119.398 80.32C119.891 80.32 120.298 80.48 120.618 80.8C120.951 81.1067 121.118 81.4933 121.118 81.96C121.118 82.4267 120.951 82.82 120.618 83.14C120.298 83.4467 119.891 83.6 119.398 83.6ZM120.778 84.92V96H117.978V84.92H120.778ZM125.804 87.22V92.58C125.804 92.9533 125.891 93.2267 126.064 93.4C126.251 93.56 126.557 93.64 126.984 93.64H128.284V96H126.524C124.164 96 122.984 94.8533 122.984 92.56V87.22H121.664V84.92H122.984V82.18H125.804V84.92H128.284V87.22H125.804Z" fill="#5670FF"/>
</svg>
