<svg width="178" height="178" viewBox="0 0 178 178" fill="none" xmlns="http://www.w3.org/2000/svg">
<rect width="178" height="178" rx="89" fill="#EAEDFF"/>
<path d="M38.2572 82.04V90.68C38.2572 91.6267 38.5039 92.3533 38.9972 92.86C39.4905 93.3533 40.1839 93.6 41.0772 93.6C41.9839 93.6 42.6839 93.3533 43.1772 92.86C43.6705 92.3533 43.9172 91.6267 43.9172 90.68V82.04H46.7372V90.66C46.7372 91.8467 46.4772 92.8533 45.9572 93.68C45.4505 94.4933 44.7639 95.1067 43.8972 95.52C43.0439 95.9333 42.0905 96.14 41.0372 96.14C39.9972 96.14 39.0505 95.9333 38.1972 95.52C37.3572 95.1067 36.6905 94.4933 36.1972 93.68C35.7039 92.8533 35.4572 91.8467 35.4572 90.66V82.04H38.2572ZM56.8025 96L53.7825 91.3L51.0425 96H47.8825L52.2825 88.96L47.8225 82.04H51.0425L54.0625 86.72L56.7825 82.04H59.9425L55.5625 89.06L60.0225 96H56.8025ZM69.7391 96.14C68.7657 96.14 67.8857 95.9733 67.0991 95.64C66.3257 95.3067 65.7124 94.8267 65.2591 94.2C64.8057 93.5733 64.5724 92.8333 64.5591 91.98H67.5591C67.5991 92.5533 67.7991 93.0067 68.1591 93.34C68.5324 93.6733 69.0391 93.84 69.6791 93.84C70.3324 93.84 70.8457 93.6867 71.2191 93.38C71.5924 93.06 71.7791 92.6467 71.7791 92.14C71.7791 91.7267 71.6524 91.3867 71.3991 91.12C71.1457 90.8533 70.8257 90.6467 70.4391 90.5C70.0657 90.34 69.5457 90.1667 68.8791 89.98C67.9724 89.7133 67.2324 89.4533 66.6591 89.2C66.0991 88.9333 65.6124 88.54 65.1991 88.02C64.7991 87.4867 64.5991 86.78 64.5991 85.9C64.5991 85.0733 64.8057 84.3533 65.2191 83.74C65.6324 83.1267 66.2124 82.66 66.9591 82.34C67.7057 82.0067 68.5591 81.84 69.5191 81.84C70.9591 81.84 72.1257 82.1933 73.0191 82.9C73.9257 83.5933 74.4257 84.5667 74.5191 85.82H71.4391C71.4124 85.34 71.2057 84.9467 70.8191 84.64C70.4457 84.32 69.9457 84.16 69.3191 84.16C68.7724 84.16 68.3324 84.3 67.9991 84.58C67.6791 84.86 67.5191 85.2667 67.5191 85.8C67.5191 86.1733 67.6391 86.4867 67.8791 86.74C68.1324 86.98 68.4391 87.18 68.7991 87.34C69.1724 87.4867 69.6924 87.66 70.3591 87.86C71.2657 88.1267 72.0057 88.3933 72.5791 88.66C73.1524 88.9267 73.6457 89.3267 74.0591 89.86C74.4724 90.3933 74.6791 91.0933 74.6791 91.96C74.6791 92.7067 74.4857 93.4 74.0991 94.04C73.7124 94.68 73.1457 95.1933 72.3991 95.58C71.6524 95.9533 70.7657 96.14 69.7391 96.14ZM79.3666 87.22V92.58C79.3666 92.9533 79.4532 93.2267 79.6266 93.4C79.8132 93.56 80.1199 93.64 80.5466 93.64H81.8466V96H80.0866C77.7266 96 76.5466 94.8533 76.5466 92.56V87.22H75.2266V84.92H76.5466V82.18H79.3666V84.92H81.8466V87.22H79.3666ZM85.6605 86.64C86.0205 86.0533 86.4871 85.5933 87.0605 85.26C87.6471 84.9267 88.3138 84.76 89.0605 84.76V87.7H88.3205C87.4405 87.7 86.7738 87.9067 86.3205 88.32C85.8805 88.7333 85.6605 89.4533 85.6605 90.48V96H82.8605V84.92H85.6605V86.64ZM89.2264 90.42C89.2264 89.3 89.4464 88.3067 89.8864 87.44C90.3397 86.5733 90.9464 85.9067 91.7064 85.44C92.4797 84.9733 93.3397 84.74 94.2864 84.74C95.1131 84.74 95.8331 84.9067 96.4464 85.24C97.0731 85.5733 97.5731 85.9933 97.9464 86.5V84.92H100.766V96H97.9464V94.38C97.5864 94.9 97.0864 95.3333 96.4464 95.68C95.8197 96.0133 95.0931 96.18 94.2664 96.18C93.3331 96.18 92.4797 95.94 91.7064 95.46C90.9464 94.98 90.3397 94.3067 89.8864 93.44C89.4464 92.56 89.2264 91.5533 89.2264 90.42ZM97.9464 90.46C97.9464 89.78 97.8131 89.2 97.5464 88.72C97.2797 88.2267 96.9197 87.8533 96.4664 87.6C96.0131 87.3333 95.5264 87.2 95.0064 87.2C94.4864 87.2 94.0064 87.3267 93.5664 87.58C93.1264 87.8333 92.7664 88.2067 92.4864 88.7C92.2197 89.18 92.0864 89.7533 92.0864 90.42C92.0864 91.0867 92.2197 91.6733 92.4864 92.18C92.7664 92.6733 93.1264 93.0533 93.5664 93.32C94.0197 93.5867 94.4997 93.72 95.0064 93.72C95.5264 93.72 96.0131 93.5933 96.4664 93.34C96.9197 93.0733 97.2797 92.7 97.5464 92.22C97.8131 91.7267 97.9464 91.14 97.9464 90.46ZM105.761 87.22V92.58C105.761 92.9533 105.848 93.2267 106.021 93.4C106.208 93.56 106.514 93.64 106.941 93.64H108.241V96H106.481C104.121 96 102.941 94.8533 102.941 92.56V87.22H101.621V84.92H102.941V82.18H105.761V84.92H108.241V87.22H105.761ZM119.555 90.22C119.555 90.62 119.528 90.98 119.475 91.3H111.375C111.442 92.1 111.722 92.7267 112.215 93.18C112.708 93.6333 113.315 93.86 114.035 93.86C115.075 93.86 115.815 93.4133 116.255 92.52H119.275C118.955 93.5867 118.342 94.4667 117.435 95.16C116.528 95.84 115.415 96.18 114.095 96.18C113.028 96.18 112.068 95.9467 111.215 95.48C110.375 95 109.715 94.3267 109.235 93.46C108.768 92.5933 108.535 91.5933 108.535 90.46C108.535 89.3133 108.768 88.3067 109.235 87.44C109.702 86.5733 110.355 85.9067 111.195 85.44C112.035 84.9733 113.002 84.74 114.095 84.74C115.148 84.74 116.088 84.9667 116.915 85.42C117.755 85.8733 118.402 86.52 118.855 87.36C119.322 88.1867 119.555 89.14 119.555 90.22ZM116.655 89.42C116.642 88.7 116.382 88.1267 115.875 87.7C115.368 87.26 114.748 87.04 114.015 87.04C113.322 87.04 112.735 87.2533 112.255 87.68C111.788 88.0933 111.502 88.6733 111.395 89.42H116.655ZM124.939 84.74C125.765 84.74 126.492 84.9067 127.119 85.24C127.745 85.56 128.239 85.98 128.599 86.5V84.92H131.419V96.08C131.419 97.1067 131.212 98.02 130.799 98.82C130.385 99.6333 129.765 100.273 128.939 100.74C128.112 101.22 127.112 101.46 125.939 101.46C124.365 101.46 123.072 101.093 122.059 100.36C121.059 99.6267 120.492 98.6267 120.359 97.36H123.139C123.285 97.8667 123.599 98.2667 124.079 98.56C124.572 98.8667 125.165 99.02 125.859 99.02C126.672 99.02 127.332 98.7733 127.839 98.28C128.345 97.8 128.599 97.0667 128.599 96.08V94.36C128.239 94.88 127.739 95.3133 127.099 95.66C126.472 96.0067 125.752 96.18 124.939 96.18C124.005 96.18 123.152 95.94 122.379 95.46C121.605 94.98 120.992 94.3067 120.539 93.44C120.099 92.56 119.879 91.5533 119.879 90.42C119.879 89.3 120.099 88.3067 120.539 87.44C120.992 86.5733 121.599 85.9067 122.359 85.44C123.132 84.9733 123.992 84.74 124.939 84.74ZM128.599 90.46C128.599 89.78 128.465 89.2 128.199 88.72C127.932 88.2267 127.572 87.8533 127.119 87.6C126.665 87.3333 126.179 87.2 125.659 87.2C125.139 87.2 124.659 87.3267 124.219 87.58C123.779 87.8333 123.419 88.2067 123.139 88.7C122.872 89.18 122.739 89.7533 122.739 90.42C122.739 91.0867 122.872 91.6733 123.139 92.18C123.419 92.6733 123.779 93.0533 124.219 93.32C124.672 93.5867 125.152 93.72 125.659 93.72C126.179 93.72 126.665 93.5933 127.119 93.34C127.572 93.0733 127.932 92.7 128.199 92.22C128.465 91.7267 128.599 91.14 128.599 90.46ZM143.753 84.92L136.893 101.24H133.913L136.313 95.72L131.873 84.92H135.013L137.873 92.66L140.773 84.92H143.753Z" fill="#5670FF"/>
</svg>
