<svg width="178" height="178" viewBox="0 0 178 178" fill="none" xmlns="http://www.w3.org/2000/svg">
<rect width="178" height="178" rx="89" fill="#EAEDFF"/>
<path d="M40.0626 82.04L34.9426 96H31.5426L26.4226 82.04H29.4226L33.2626 93.14L37.0826 82.04H40.0626ZM42.1613 83.6C41.668 83.6 41.2547 83.4467 40.9213 83.14C40.6013 82.82 40.4413 82.4267 40.4413 81.96C40.4413 81.4933 40.6013 81.1067 40.9213 80.8C41.2547 80.48 41.668 80.32 42.1613 80.32C42.6547 80.32 43.0613 80.48 43.3813 80.8C43.7147 81.1067 43.8813 81.4933 43.8813 81.96C43.8813 82.4267 43.7147 82.82 43.3813 83.14C43.0613 83.4467 42.6547 83.6 42.1613 83.6ZM43.5413 84.92V96H40.7413V84.92H43.5413ZM49.5477 96.18C48.6411 96.18 47.8277 96.02 47.1077 95.7C46.3877 95.3667 45.8144 94.92 45.3877 94.36C44.9744 93.8 44.7477 93.18 44.7077 92.5H47.5277C47.5811 92.9267 47.7877 93.28 48.1477 93.56C48.5211 93.84 48.9811 93.98 49.5277 93.98C50.0611 93.98 50.4744 93.8733 50.7677 93.66C51.0744 93.4467 51.2277 93.1733 51.2277 92.84C51.2277 92.48 51.0411 92.2133 50.6677 92.04C50.3077 91.8533 49.7277 91.6533 48.9277 91.44C48.1011 91.24 47.4211 91.0333 46.8877 90.82C46.3677 90.6067 45.9144 90.28 45.5277 89.84C45.1544 89.4 44.9677 88.8067 44.9677 88.06C44.9677 87.4467 45.1411 86.8867 45.4877 86.38C45.8477 85.8733 46.3544 85.4733 47.0077 85.18C47.6744 84.8867 48.4544 84.74 49.3477 84.74C50.6677 84.74 51.7211 85.0733 52.5077 85.74C53.2944 86.3933 53.7277 87.28 53.8077 88.4H51.1277C51.0877 87.96 50.9011 87.6133 50.5677 87.36C50.2477 87.0933 49.8144 86.96 49.2677 86.96C48.7611 86.96 48.3677 87.0533 48.0877 87.24C47.8211 87.4267 47.6877 87.6867 47.6877 88.02C47.6877 88.3933 47.8744 88.68 48.2477 88.88C48.6211 89.0667 49.2011 89.26 49.9877 89.46C50.7877 89.66 51.4477 89.8667 51.9677 90.08C52.4877 90.2933 52.9344 90.6267 53.3077 91.08C53.6944 91.52 53.8944 92.1067 53.9077 92.84C53.9077 93.48 53.7277 94.0533 53.3677 94.56C53.0211 95.0667 52.5144 95.4667 51.8477 95.76C51.1944 96.04 50.4277 96.18 49.5477 96.18ZM65.6662 84.92V96H62.8462V94.6C62.4862 95.08 62.0128 95.46 61.4262 95.74C60.8528 96.0067 60.2262 96.14 59.5462 96.14C58.6795 96.14 57.9128 95.96 57.2462 95.6C56.5795 95.2267 56.0528 94.6867 55.6662 93.98C55.2928 93.26 55.1062 92.4067 55.1062 91.42V84.92H57.9062V91.02C57.9062 91.9 58.1262 92.58 58.5662 93.06C59.0062 93.5267 59.6062 93.76 60.3662 93.76C61.1395 93.76 61.7462 93.5267 62.1862 93.06C62.6262 92.58 62.8462 91.9 62.8462 91.02V84.92H65.6662ZM66.7088 90.42C66.7088 89.3 66.9288 88.3067 67.3688 87.44C67.8222 86.5733 68.4288 85.9067 69.1888 85.44C69.9622 84.9733 70.8222 84.74 71.7688 84.74C72.5955 84.74 73.3155 84.9067 73.9288 85.24C74.5555 85.5733 75.0555 85.9933 75.4288 86.5V84.92H78.2488V96H75.4288V94.38C75.0688 94.9 74.5688 95.3333 73.9288 95.68C73.3022 96.0133 72.5755 96.18 71.7488 96.18C70.8155 96.18 69.9622 95.94 69.1888 95.46C68.4288 94.98 67.8222 94.3067 67.3688 93.44C66.9288 92.56 66.7088 91.5533 66.7088 90.42ZM75.4288 90.46C75.4288 89.78 75.2955 89.2 75.0288 88.72C74.7622 88.2267 74.4022 87.8533 73.9488 87.6C73.4955 87.3333 73.0088 87.2 72.4888 87.2C71.9688 87.2 71.4888 87.3267 71.0488 87.58C70.6088 87.8333 70.2488 88.2067 69.9688 88.7C69.7022 89.18 69.5688 89.7533 69.5688 90.42C69.5688 91.0867 69.7022 91.6733 69.9688 92.18C70.2488 92.6733 70.6088 93.0533 71.0488 93.32C71.5022 93.5867 71.9822 93.72 72.4888 93.72C73.0088 93.72 73.4955 93.5933 73.9488 93.34C74.4022 93.0733 74.7622 92.7 75.0288 92.22C75.2955 91.7267 75.4288 91.14 75.4288 90.46ZM82.7835 81.2V96H79.9835V81.2H82.7835ZM93.1955 82.04C94.6622 82.04 95.9489 82.3267 97.0555 82.9C98.1755 83.4733 99.0355 84.2933 99.6355 85.36C100.249 86.4133 100.556 87.64 100.556 89.04C100.556 90.44 100.249 91.6667 99.6355 92.72C99.0355 93.76 98.1755 94.5667 97.0555 95.14C95.9489 95.7133 94.6622 96 93.1955 96H88.3155V82.04H93.1955ZM93.0955 93.62C94.5622 93.62 95.6955 93.22 96.4955 92.42C97.2955 91.62 97.6955 90.4933 97.6955 89.04C97.6955 87.5867 97.2955 86.4533 96.4955 85.64C95.6955 84.8133 94.5622 84.4 93.0955 84.4H91.1155V93.62H93.0955ZM111.951 90.22C111.951 90.62 111.925 90.98 111.871 91.3H103.771C103.838 92.1 104.118 92.7267 104.611 93.18C105.105 93.6333 105.711 93.86 106.431 93.86C107.471 93.86 108.211 93.4133 108.651 92.52H111.671C111.351 93.5867 110.738 94.4667 109.831 95.16C108.925 95.84 107.811 96.18 106.491 96.18C105.425 96.18 104.465 95.9467 103.611 95.48C102.771 95 102.111 94.3267 101.631 93.46C101.165 92.5933 100.931 91.5933 100.931 90.46C100.931 89.3133 101.165 88.3067 101.631 87.44C102.098 86.5733 102.751 85.9067 103.591 85.44C104.431 84.9733 105.398 84.74 106.491 84.74C107.545 84.74 108.485 84.9667 109.311 85.42C110.151 85.8733 110.798 86.52 111.251 87.36C111.718 88.1867 111.951 89.14 111.951 90.22ZM109.051 89.42C109.038 88.7 108.778 88.1267 108.271 87.7C107.765 87.26 107.145 87.04 106.411 87.04C105.718 87.04 105.131 87.2533 104.651 87.68C104.185 88.0933 103.898 88.6733 103.791 89.42H109.051ZM117.235 96.18C116.329 96.18 115.515 96.02 114.795 95.7C114.075 95.3667 113.502 94.92 113.075 94.36C112.662 93.8 112.435 93.18 112.395 92.5H115.215C115.269 92.9267 115.475 93.28 115.835 93.56C116.209 93.84 116.669 93.98 117.215 93.98C117.749 93.98 118.162 93.8733 118.455 93.66C118.762 93.4467 118.915 93.1733 118.915 92.84C118.915 92.48 118.729 92.2133 118.355 92.04C117.995 91.8533 117.415 91.6533 116.615 91.44C115.789 91.24 115.109 91.0333 114.575 90.82C114.055 90.6067 113.602 90.28 113.215 89.84C112.842 89.4 112.655 88.8067 112.655 88.06C112.655 87.4467 112.829 86.8867 113.175 86.38C113.535 85.8733 114.042 85.4733 114.695 85.18C115.362 84.8867 116.142 84.74 117.035 84.74C118.355 84.74 119.409 85.0733 120.195 85.74C120.982 86.3933 121.415 87.28 121.495 88.4H118.815C118.775 87.96 118.589 87.6133 118.255 87.36C117.935 87.0933 117.502 86.96 116.955 86.96C116.449 86.96 116.055 87.0533 115.775 87.24C115.509 87.4267 115.375 87.6867 115.375 88.02C115.375 88.3933 115.562 88.68 115.935 88.88C116.309 89.0667 116.889 89.26 117.675 89.46C118.475 89.66 119.135 89.8667 119.655 90.08C120.175 90.2933 120.622 90.6267 120.995 91.08C121.382 91.52 121.582 92.1067 121.595 92.84C121.595 93.48 121.415 94.0533 121.055 94.56C120.709 95.0667 120.202 95.4667 119.535 95.76C118.882 96.04 118.115 96.18 117.235 96.18ZM124.314 83.6C123.82 83.6 123.407 83.4467 123.074 83.14C122.754 82.82 122.594 82.4267 122.594 81.96C122.594 81.4933 122.754 81.1067 123.074 80.8C123.407 80.48 123.82 80.32 124.314 80.32C124.807 80.32 125.214 80.48 125.534 80.8C125.867 81.1067 126.034 81.4933 126.034 81.96C126.034 82.4267 125.867 82.82 125.534 83.14C125.214 83.4467 124.807 83.6 124.314 83.6ZM125.694 84.92V96H122.894V84.92H125.694ZM131.8 84.74C132.627 84.74 133.353 84.9067 133.98 85.24C134.607 85.56 135.1 85.98 135.46 86.5V84.92H138.28V96.08C138.28 97.1067 138.073 98.02 137.66 98.82C137.247 99.6333 136.627 100.273 135.8 100.74C134.973 101.22 133.973 101.46 132.8 101.46C131.227 101.46 129.933 101.093 128.92 100.36C127.92 99.6267 127.353 98.6267 127.22 97.36H130C130.147 97.8667 130.46 98.2667 130.94 98.56C131.433 98.8667 132.027 99.02 132.72 99.02C133.533 99.02 134.193 98.7733 134.7 98.28C135.207 97.8 135.46 97.0667 135.46 96.08V94.36C135.1 94.88 134.6 95.3133 133.96 95.66C133.333 96.0067 132.613 96.18 131.8 96.18C130.867 96.18 130.013 95.94 129.24 95.46C128.467 94.98 127.853 94.3067 127.4 93.44C126.96 92.56 126.74 91.5533 126.74 90.42C126.74 89.3 126.96 88.3067 127.4 87.44C127.853 86.5733 128.46 85.9067 129.22 85.44C129.993 84.9733 130.853 84.74 131.8 84.74ZM135.46 90.46C135.46 89.78 135.327 89.2 135.06 88.72C134.793 88.2267 134.433 87.8533 133.98 87.6C133.527 87.3333 133.04 87.2 132.52 87.2C132 87.2 131.52 87.3267 131.08 87.58C130.64 87.8333 130.28 88.2067 130 88.7C129.733 89.18 129.6 89.7533 129.6 90.42C129.6 91.0867 129.733 91.6733 130 92.18C130.28 92.6733 130.64 93.0533 131.08 93.32C131.533 93.5867 132.013 93.72 132.52 93.72C133.04 93.72 133.527 93.5933 133.98 93.34C134.433 93.0733 134.793 92.7 135.06 92.22C135.327 91.7267 135.46 91.14 135.46 90.46ZM146.155 84.76C147.475 84.76 148.541 85.18 149.355 86.02C150.168 86.8467 150.575 88.0067 150.575 89.5V96H147.775V89.88C147.775 89 147.555 88.3267 147.115 87.86C146.675 87.38 146.075 87.14 145.315 87.14C144.541 87.14 143.928 87.38 143.475 87.86C143.035 88.3267 142.815 89 142.815 89.88V96H140.015V84.92H142.815V86.3C143.188 85.82 143.661 85.4467 144.235 85.18C144.821 84.9 145.461 84.76 146.155 84.76Z" fill="#5670FF"/>
</svg>
